<?xml version="1.0" encoding="utf-8"?>
<!-- Generator: Adobe Illustrator 24.0.1, SVG Export Plug-In . SVG Version: 6.00 Build 0)  -->
<svg version="1.1" id="图层_1" xmlns="http://www.w3.org/2000/svg" xmlns:xlink="http://www.w3.org/1999/xlink" x="0px" y="0px"
	 viewBox="0 0 40 40" style="enable-background:new 0 0 40 40;" xml:space="preserve">
<style type="text/css">
	.st0{fill:none;}
	.st1{fill:#A0ACBF;}
</style>
<rect class="st0" width="40" height="40"/>
<path id="menu_airconditioning_normal" class="st1" d="M19.8,40c-0.6,0-1-0.4-1-1v-4.7l-2.9,2.9c-0.5,0.5-1.3,0.5-1.8,0
	s-0.5-1.3,0-1.8l4.6-4.6v-8.6l-7.4,4.3l-1.7,6.3c-0.2,0.7-0.9,1.1-1.5,0.9c-0.7-0.2-1.1-0.9-0.9-1.5l1-3.9l-4.1,2.4
	c-0.5,0.3-1.1,0.1-1.4-0.4l-0.3-0.4c-0.3-0.5-0.1-1.1,0.4-1.4L7,26.1L3.1,25c-0.7-0.2-1.1-0.8-0.9-1.5s0.8-1.1,1.5-0.9
	c0,0,0,0,0.1,0l6.3,1.7l7.4-4.3l-7.4-4.3l-6.3,1.7c-0.7,0.2-1.4-0.2-1.5-0.9c-0.2-0.7,0.2-1.4,0.9-1.5L7,14l-4.1-2.4
	c-0.5-0.3-0.6-0.9-0.4-1.4l0.3-0.4c0.3-0.5,0.9-0.6,1.4-0.4l4.1,2.4l-1-3.9C7.1,7.2,7.5,6.5,8.1,6.3c0.7-0.2,1.4,0.2,1.5,0.9l0,0
	l1.7,6.3l7.4,4.3V9.3l-4.6-4.6c-0.5-0.5-0.5-1.3,0-1.8c0.5-0.5,1.3-0.5,1.8,0l2.9,2.9V1c0-0.6,0.4-1,1-1h0.5c0.6,0,1,0.4,1,1v4.7
	l2.9-2.9c0.5-0.5,1.3-0.5,1.8,0s0.5,1.3,0,1.8l0,0l-4.6,4.6v8.6l7.4-4.3l1.7-6.3c0.2-0.7,0.9-1.1,1.5-0.9c0.7,0.2,1.1,0.9,0.9,1.5
	l0,0l-1,3.9l4.1-2.4c0.5-0.3,1.1-0.1,1.4,0.4l0.2,0.4c0.3,0.5,0.1,1.1-0.4,1.4L33,13.9l3.9,1.1c0.7,0.2,1.1,0.9,0.9,1.5
	c-0.2,0.7-0.9,1.1-1.5,0.9l-6.3-1.7L22.5,20l7.4,4.3l6.3-1.7c0.7-0.2,1.4,0.2,1.5,0.9c0.2,0.7-0.2,1.4-0.9,1.5L33,26.1l4.1,2.4
	c0.5,0.3,0.6,0.9,0.4,1.4l-0.2,0.4c-0.3,0.5-0.9,0.6-1.4,0.4l-4.1-2.4l1.1,3.9c0.2,0.7-0.2,1.4-0.9,1.5c-0.7,0.2-1.4-0.2-1.5-0.9
	l-1.7-6.3l-7.4-4.3v8.6l4.6,4.6c0.5,0.5,0.5,1.3,0,1.8c-0.5,0.5-1.3,0.5-1.8,0l0,0l-2.9-2.9V39c0,0.6-0.4,1-1,1H19.8z"/>
</svg>
