<?xml version="1.0" encoding="utf-8"?>
<!-- Generator: Adobe Illustrator 24.0.1, SVG Export Plug-In . SVG Version: 6.00 Build 0)  -->
<svg version="1.1" id="图层_1" xmlns="http://www.w3.org/2000/svg" xmlns:xlink="http://www.w3.org/1999/xlink" x="0px" y="0px"
	 viewBox="0 0 40 40" style="enable-background:new 0 0 40 40;" xml:space="preserve">
<style type="text/css">
	.st0{fill:none;}
	.st1{fill:#A0ACBF;}
</style>
<rect class="st0" width="40" height="40"/>
<path id="menu_security_nomarl" class="st1" d="M18,39.4C3.1,33.4,2.1,24.5,2,22.8V8.1c0-1,0.6-1.9,1.6-2.3l2.4-1
	C13.8,1.6,18.5,0,20,0l0.2,0c1.8,0.1,7.3,2,16.2,5.6C37.4,6,38,6.9,38,8v14.7c-0.3,2.3-1.2,4.5-2.6,6.4c-1.3,2-3,3.8-4.8,5.3
	c-2.6,2.1-5.6,3.9-8.7,5.2c-0.6,0.3-1.3,0.4-1.9,0.6C19.3,39.9,18.6,39.7,18,39.4z M19.9,3c-1.2,0.3-2.5,0.6-3.7,1.1l-0.6,0.2
	C13.6,5,10.8,6.1,7.5,7.4L5,8.4v14.2l0,0.3c0,0.1,0,0.2,0,0.3l0,0.2c0.1,0.7,0.3,1.3,0.6,2c1,2.4,2.7,4.6,4.8,6.2
	c2.5,2,5.2,3.6,8.1,4.8l0.5,0.2l0.5,0.2l0.5,0.1l0.3-0.1c0.1,0,0.2-0.1,0.3-0.1l0.1,0c5.7-2.5,9.9-5.7,12.4-9.6
	c0.7-1.1,1.3-2.3,1.6-3.5c0.1-0.3,0.2-0.5,0.2-0.8l0.1-0.3l0,0V8.3l-2-0.8c-3-1.2-5.5-2.2-7.6-2.9l-1.1-0.4L23.5,4
	c-1.1-0.4-2.3-0.8-3.5-1L19.9,3z M18.5,27v-7h-7c-0.8,0-1.5-0.7-1.5-1.5s0.7-1.5,1.5-1.5h7v-7c0-0.8,0.7-1.5,1.5-1.5
	s1.5,0.7,1.5,1.5v7h7c0.8,0,1.5,0.7,1.5,1.5S29.3,20,28.5,20h-7v7c0,0.8-0.7,1.5-1.5,1.5S18.5,27.8,18.5,27z"/>
</svg>
