<?xml version="1.0" encoding="utf-8"?>
<!-- Generator: Adobe Illustrator 24.0.1, SVG Export Plug-In . SVG Version: 6.00 Build 0)  -->
<svg version="1.1" id="图层_1" xmlns="http://www.w3.org/2000/svg" xmlns:xlink="http://www.w3.org/1999/xlink" x="0px" y="0px"
	 viewBox="0 0 40 40" style="enable-background:new 0 0 40 40;" xml:space="preserve">
<style type="text/css">
	.st0{fill:none;}
	.st1{fill:#A0ACBF;}
</style>
<rect class="st0" width="40" height="40"/>
<path id="形状结合-3" class="st1" d="M34,40H6V13h4V8h8v5h4V8h8v5h4V40L34,40z M9,37h22V16H9V37z M27,13v-2h-2v2H27z M15,13v-2
	h-2v2H15z M10,36v-3.2l19-7.3V36H10z M24.5,7V5h-2V2h2V0h3v2h2v3h-2v2H24.5z M10.5,5V2h7v3H10.5z"/>
</svg>
