<?xml version="1.0" encoding="utf-8"?>
<!-- Generator: Adobe Illustrator 24.0.1, SVG Export Plug-In . SVG Version: 6.00 Build 0)  -->
<svg version="1.1" id="图层_1" xmlns="http://www.w3.org/2000/svg" xmlns:xlink="http://www.w3.org/1999/xlink" x="0px" y="0px"
	 viewBox="0 0 40 40" style="enable-background:new 0 0 40 40;" xml:space="preserve">
<style type="text/css">
	.st0{fill:none;}
	.st1{fill:#A0ACBF;}
</style>
<rect class="st0" width="40" height="40"/>
<path id="形状结合-2" class="st1" d="M31.7,38.9l-9.3-9.4c-0.4-0.4-0.4-1,0-1.3l4-4c0.4-0.4,0.9-0.4,1.3,0c0,0,0,0,0,0l9.3,9.4
	c1.5,1.5,1.5,3.8,0,5.3C35.5,40.4,33.2,40.4,31.7,38.9C31.7,38.9,31.7,38.9,31.7,38.9L31.7,38.9z M2.6,37.5
	c-2.1-2.1-2.2-5.6-0.1-7.8l0.1-0.2l17.2-17.2c-0.7-3.4,0.3-6.9,2.8-9.4c1.5-1.5,3.5-2.5,5.7-2.9c0.2,0,0.4,0,0.6,0
	c0.6-0.1,1.2,0.2,1.5,0.8c0.2,0.5,0,1.1-0.5,1.4l-2,2.1c-2.2,2.2-2.2,5.7,0,7.9c2.1,2.1,5.6,2.2,7.8,0.1l0.2-0.1l2-2.1
	c0.3-0.3,0.7-0.5,1.1-0.5c0.3,0,0.6,0.1,0.7,0.3c0.4,0.5,0.5,1.2,0.3,1.8c-0.8,5-5.1,8.7-10.1,8.7c-0.6,0-1.2-0.1-1.8-0.2l-0.3-0.1
	L10.6,37.5C8.4,39.7,4.8,39.7,2.6,37.5C2.7,37.5,2.6,37.5,2.6,37.5L2.6,37.5z M24.5,4.5c-0.1,0-0.2,0-0.2,0.1
	c-1.8,1.8-2.6,4.4-2.2,7l0,0.3l0.3,1.3L4.3,31.3c-1.2,1.3-1.2,3.3,0,4.5C5.5,37,7.5,37,8.7,35.9l0.1-0.1l18.1-18.1l1.3,0.3
	c0.5,0.1,1.1,0.2,1.6,0.2c2.1,0,4.1-0.8,5.5-2.3c0.1-0.1,0.1-0.2,0.1-0.3c0-0.1-0.1-0.1-0.1-0.1c0,0-0.1,0-0.1,0
	c-1.1,0.5-2.2,0.8-3.4,0.8c-2,0-4-0.8-5.5-2.2l-0.2-0.2c-2.4-2.4-3-6-1.6-9.1c0-0.1,0-0.2,0-0.2C24.6,4.5,24.5,4.5,24.5,4.5z
	 M5.3,34.7c-0.6-0.6-0.6-1.6,0-2.3c0.6-0.6,1.6-0.6,2.3,0s0.6,1.6,0,2.3c-0.3,0.3-0.7,0.5-1.1,0.5C6,35.2,5.6,35,5.3,34.7z M12.5,17
	l-6.5-6.5L3.3,9L0,4.4l2.6-2.6l4.6,3.3l1.5,2.8l6.5,6.5L12.5,17L12.5,17L12.5,17z"/>
</svg>
