<?xml version="1.0" encoding="utf-8"?>
<!-- Generator: Adobe Illustrator 24.0.1, SVG Export Plug-In . SVG Version: 6.00 Build 0)  -->
<svg version="1.1" id="图层_1" xmlns="http://www.w3.org/2000/svg" xmlns:xlink="http://www.w3.org/1999/xlink" x="0px" y="0px"
	 viewBox="0 0 40 40" style="enable-background:new 0 0 40 40;" xml:space="preserve">
<style type="text/css">
	.st0{fill:none;}
	.st1{fill:#3CB2FF;}
</style>
<rect class="st0" width="40" height="40"/>
<g>
	<g id="形状">
		<path class="st1" d="M36.6,31.1h-32V8.2c0-1.1,0.9-2.1,2-2.1h27.9c1.2,0,2.1,1,2.1,2.1V31.1z M6.6,29.1h28V8.2
			c0-0.1,0-0.1-0.1-0.1l-27.8,0c0,0-0.1,0-0.1,0.1V29.1z"/>
	</g>
	<g id="形状-2">
		<path class="st1" d="M1.1,33.9C0.5,34,0,33.5,0,32.9c0,0,0,0,0,0v-1.9h40v1.9c0,0.6-0.5,1.1-1.1,1.1H1.1z M20.4,15.6l-3.5,6.6
			l-3.1-3.1l-2.5,1.6l-1.1-0.6l4-2.5l2.2,2.4l4.2-7.9l3.9,9.9l3.1-6.7l2.9,6.1L29,21.6l-1.4-2.9l-3.4,7L20.4,15.6z"/>
	</g>
</g>
</svg>
