<?xml version="1.0" encoding="utf-8"?>
<!-- Generator: Adobe Illustrator 24.0.1, SVG Export Plug-In . SVG Version: 6.00 Build 0)  -->
<svg version="1.1" id="图层_1" xmlns="http://www.w3.org/2000/svg" xmlns:xlink="http://www.w3.org/1999/xlink" x="0px" y="0px"
	 viewBox="0 0 40 40" style="enable-background:new 0 0 40 40;" xml:space="preserve">
<style type="text/css">
	.st0{fill:none;}
	.st1{fill:#A0ACBF;}
</style>
<rect class="st0" width="40" height="40"/>
<path id="形状结合" class="st1" d="M25,38.3l-0.1-0.1l-0.4-0.5c-2.4-2.4-6.2-2.4-8.8-0.2l-0.2,0.2l-0.4,0.5
	c-0.5,0.5-1.2,0.8-1.9,0.8c-0.2,0-0.4,0-0.6-0.1l-0.2-0.1c-0.8-0.3-1.5-0.7-2.2-1.2l-0.6-0.3C8.9,37,8.3,36.5,7.7,36
	c-0.7-0.6-1-1.6-0.8-2.5l0-0.1l0.2-0.6c0.4-1.6,0.1-3.4-0.7-4.8c-0.8-1.4-2-2.4-3.6-3l-0.2-0.1L2,24.8c-0.9-0.3-1.6-1-1.8-1.9l0-0.2
	l0-0.3c0-0.4-0.1-1-0.1-2.1v-0.7l0-0.7c0-0.6,0-1.3,0.1-1.9c0.2-0.9,0.9-1.6,1.7-1.9l0.1,0l0.6-0.1c1.6-0.5,3-1.6,3.8-3
	c0.8-1.4,1-3,0.7-4.6L7.1,7.2L6.9,6.6c-0.2-0.9,0-1.8,0.7-2.5l0.1-0.1l0.2-0.1c0.7-0.5,1.4-1,2.1-1.4l0.5-0.3l0.6-0.3
	c0.4-0.2,0.9-0.5,1.4-0.7C12.7,1,13,1,13.2,1c0.7,0,1.3,0.2,1.8,0.7l0.1,0.1l0.4,0.5c1.2,1.2,2.8,1.8,4.5,1.8c1.6,0,3.1-0.6,4.3-1.6
	l0.2-0.2l0.5-0.5C25.4,1.3,26.1,1,26.8,1c0.2,0,0.4,0,0.6,0.1l0.2,0.1l0.3,0.1c0.4,0.2,1.1,0.5,2.2,1.1l0.5,0.3l0.6,0.4
	c0.6,0.4,0.9,0.6,1.1,0.7l0.1,0.1c0.7,0.6,1,1.6,0.8,2.5l0,0.1l-0.2,0.6c-0.4,1.6-0.1,3.4,0.7,4.8c0.8,1.4,2,2.4,3.5,2.9l0.2,0.1
	l0.7,0.2c0.9,0.3,1.6,1,1.8,1.8l0,0.2l0,0.3c0,0.4,0.1,1.2,0.1,2.5v0.6l0,0.6c0,0.5,0,1-0.1,1.6c-0.2,0.9-0.9,1.6-1.7,1.9l-0.1,0
	L37.4,25c-1.6,0.5-3,1.6-3.8,3c-0.8,1.4-1,3-0.7,4.6l0.1,0.3l0.2,0.6c0.2,0.9,0,1.9-0.7,2.5l-0.1,0.1L32,36.3c-0.3,0.3-1,0.7-2,1.3
	l-0.5,0.3l-0.6,0.3c-0.4,0.2-0.9,0.5-1.4,0.7C27.3,39,27,39,26.8,39C26.1,39,25.5,38.8,25,38.3z M26.3,35.4l0.2,0.2l0.1,0.1l0.2,0.2
	l0.1,0c0.3-0.1,0.5-0.3,0.8-0.4l0.2-0.1l0.5-0.3l0.5-0.3c0.3-0.2,0.6-0.4,0.8-0.5l0.3-0.2L30,33.5l-0.1-0.4
	c-0.4-2.3-0.1-4.6,1.1-6.6c1.1-2,3-3.6,5.2-4.3l0.3-0.1l0.2,0l0.2-0.1v0c0-0.3,0-0.7,0.1-1.1l0-0.3V20l0-0.6c0-0.3,0-0.7,0-1l0-0.4
	l-0.4-0.1l-0.4-0.1c-2.2-0.8-4-2.3-5.1-4.3c-1.1-2-1.5-4.4-1.1-6.7L30,6.5l0-0.1L30.1,6l-0.3-0.2c-0.1-0.1-0.3-0.2-0.4-0.3L29,5.3
	L28.5,5L28,4.7c-0.2-0.1-0.5-0.3-0.7-0.4l-0.5-0.3l-0.3,0.3l-0.3,0.3c-1.7,1.5-4,2.4-6.3,2.4c-2.3,0-4.6-0.9-6.3-2.4l-0.2-0.2
	l-0.1-0.1l-0.2-0.2l-0.1,0c-0.3,0.1-0.5,0.3-0.8,0.4L12,4.7L11.5,5L11,5.3c-0.3,0.2-0.6,0.4-0.8,0.5L9.9,6L10,6.5l0.1,0.4
	c0.4,2.3,0.1,4.6-1.1,6.6c-1.1,2-3,3.6-5.2,4.3l-0.3,0.1L3.3,18L3.1,18v0c0,0.3,0,0.7-0.1,1.1l0,0.6v0.4l0,0.5c0,0.3,0,0.7,0,0.9
	l0,0.3L3.4,22l0.4,0.1c2.2,0.8,4,2.3,5.2,4.3c1.1,2,1.5,4.4,1.1,6.7L10,33.5l0,0.2L9.9,34l0,0c0.3,0.2,0.7,0.5,1.1,0.7l0.5,0.3
	l0.7,0.4c0.3,0.2,0.6,0.3,0.8,0.4l0.2,0.1l0.2-0.3l0.3-0.3C17.3,32.1,22.8,32.1,26.3,35.4L26.3,35.4z M12,20c0-4.4,3.6-8,8-8
	s8,3.6,8,8s-3.6,8-8,8C15.6,28,12,24.4,12,20z M15,20c0,2.8,2.2,5,5,5s5-2.2,5-5s-2.2-5-5-5C17.2,15,15,17.2,15,20z"/>
</svg>
