<?xml version="1.0" encoding="utf-8"?>
<!-- Generator: Adobe Illustrator 24.0.1, SVG Export Plug-In . SVG Version: 6.00 Build 0)  -->
<svg version="1.1" id="图层_1" xmlns="http://www.w3.org/2000/svg" xmlns:xlink="http://www.w3.org/1999/xlink" x="0px" y="0px"
	 viewBox="0 0 40 40" style="enable-background:new 0 0 40 40;" xml:space="preserve">
<style type="text/css">
	.st0{fill:none;}
	.st1{fill:#A0ACBF;}
</style>
<rect class="st0" width="40" height="40"/>
<path id="navigation_history_normal" class="st1" d="M0,20C0,9,9,0,20,0s20,9,20,20s-9,20-20,20C9,40,0,31,0,20z M3,20
	c0,9.4,7.6,17,17,17s17-7.6,17-17S29.4,3,20,3C10.6,3,3,10.6,3,20z M26.9,26.9l-0.1-0.1l-7.5-4.5c-0.4-0.2-0.7-0.7-0.7-1.1l0-0.2
	V7.5C18.5,6.7,19.2,6,20,6c0.8,0,1.4,0.6,1.5,1.4l0,0.1v12.6l6.8,4.1c0.7,0.4,0.9,1.2,0.6,1.9l-0.1,0.1
	C28.4,26.9,27.6,27.2,26.9,26.9z"/>
</svg>
