<svg xmlns="http://www.w3.org/2000/svg" viewBox="0 0 30 10"><defs><style>.cls-1{fill:#021742;}.cls-2{fill:#0077e9;}</style></defs><title>资源 24</title><g id="图层_2" data-name="图层 2"><g id="图层_6" data-name="图层 6"><g id="图层_1-2" data-name="图层 1-2"><rect class="cls-1" width="30" height="10" rx="1"/><path class="cls-2" d="M29,1V9H1V1H29m0-1H1A1,1,0,0,0,0,1V9a1,1,0,0,0,1,1H29a1,1,0,0,0,1-1V1A1,1,0,0,0,29,0Z"/><path class="cls-2" d="M7.9,7.83a.15.15,0,0,1-.15-.15H5.5V6.42l1.36-.13a.77.77,0,0,1,.39-.11.7.7,0,0,1,.25.05L8,6.18V7.57a.16.16,0,0,1,.05.11A.15.15,0,0,1,7.9,7.83ZM10,4.07v.44a.5.5,0,0,1-1,0V4.07A.75.75,0,0,1,9,3H9V2h1V3a.75.75,0,0,1,.06,1.06L10,4.12Zm3.5,3.61H11.25a.15.15,0,0,1-.3,0A.16.16,0,0,1,11,7.57V6.18l.49.05a.75.75,0,0,1,.26-.05.77.77,0,0,1,.39.11l1.36.13Z"/><path class="cls-2" d="M18.9,7.83a.15.15,0,0,1-.15-.15H16.5V6.42l1.36-.13a.77.77,0,0,1,.39-.11.7.7,0,0,1,.25.05l.5-.05V7.57a.16.16,0,0,1,.05.11A.15.15,0,0,1,18.9,7.83ZM21,4.07v.44a.5.5,0,0,1-1,0V4.07A.75.75,0,0,1,20,3h0V2h1V3a.75.75,0,0,1,.06,1.06L21,4.12Zm3.5,3.61H22.25a.15.15,0,1,1-.3,0h0A.16.16,0,0,1,22,7.57V6.18l.49.05a.75.75,0,0,1,.26-.05.77.77,0,0,1,.39.11l1.36.13Z"/><path class="cls-2" d="M3.5,8h-1a.5.5,0,0,1,0-1h1a.5.5,0,0,1,0,1Z"/><path class="cls-2" d="M3.5,5.51h-1a.5.5,0,0,1,0-1h1a.5.5,0,0,1,0,1Z"/><path class="cls-2" d="M3.5,3h-1a.5.5,0,0,1,0-1h1a.5.5,0,0,1,0,1Z"/><path class="cls-2" d="M27.5,8h-1a.5.5,0,0,1,0-1h1a.5.5,0,0,1,0,1Z"/><path class="cls-2" d="M27.5,5.51h-1a.5.5,0,0,1,0-1h1a.5.5,0,0,1,0,1Z"/><path class="cls-2" d="M27.5,3h-1a.5.5,0,0,1,0-1h1a.5.5,0,0,1,0,1Z"/></g></g></g></svg>