<?xml version="1.0" encoding="utf-8"?>
<!-- Generator: Adobe Illustrator 16.0.0, SVG Export Plug-In . SVG Version: 6.00 Build 0)  -->
<!DOCTYPE svg PUBLIC "-//W3C//DTD SVG 1.1//EN" "http://www.w3.org/Graphics/SVG/1.1/DTD/svg11.dtd">
<svg version="1.1" id="图层_1" xmlns="http://www.w3.org/2000/svg" xmlns:xlink="http://www.w3.org/1999/xlink" x="0px" y="0px"
	 width="20px" height="20px" viewBox="0 0 20 20" enable-background="new 0 0 20 20" xml:space="preserve">
<g>
	<g display="none">
		<rect x="-20" y="-19" display="inline" fill="#FFFFFF" width="1340" height="60"/>
		<rect x="-20" y="40" display="inline" fill="#DCDDDD" width="1340" height="1"/>
	</g>
	<g display="none">
		<rect x="-20" y="-19" display="inline" fill="#FFFFFF" width="60" height="58"/>
		<rect x="39" y="-9" display="inline" fill="#DCDDDD" width="1" height="40"/>
	</g>
	<g>
		
			<line fill="none" stroke="#666666" stroke-width="2" stroke-linecap="round" stroke-miterlimit="10" x1="2" y1="3" x2="18" y2="3"/>
		
			<line fill="none" stroke="#666666" stroke-width="2" stroke-linecap="round" stroke-miterlimit="10" x1="9" y1="10" x2="18" y2="10"/>
		
			<line fill="none" stroke="#666666" stroke-width="2" stroke-linecap="round" stroke-miterlimit="10" x1="2" y1="17" x2="18" y2="17"/>
		<polygon fill="#666666" points="2,7 6,10 2,13 		"/>
	</g>
</g>
<g display="none">
	<path display="inline" fill="none" stroke="#666666" stroke-width="2" stroke-linecap="round" stroke-miterlimit="10" d="M10,3H4
		C2.896,3,2,3.896,2,5v10c0,1.104,0.896,2,2,2h6"/>
	
		<line display="inline" fill="none" stroke="#666666" stroke-width="2" stroke-linecap="round" stroke-miterlimit="10" x1="7" y1="10" x2="16" y2="10"/>
	<polyline display="inline" fill="none" stroke="#666666" stroke-width="2" stroke-linecap="round" stroke-miterlimit="10" points="
		14,6 18,10 14,14 	"/>
</g>
</svg>
