<?xml version="1.0" encoding="UTF-8"?>
<svg width="48px" height="60px" viewBox="0 0 48 60" version="1.1" xmlns="http://www.w3.org/2000/svg" xmlns:xlink="http://www.w3.org/1999/xlink">
    <title>加湿模式</title>
    <g id="中阳" stroke="none" stroke-width="1" fill="none" fill-rule="evenodd">
        <g id="制冷-空调1" transform="translate(-1598.000000, -224.000000)" fill="#838FA3" fill-rule="nonzero">
            <g id="编组-3" transform="translate(176.000000, 94.000000)">
                <g id="分组-2" transform="translate(884.000000, 130.000000)">
                    <g id="加湿模式" transform="translate(538.000000, 0.000000)">
                        <path d="M24.75,42 C25.5784271,42 26.25,42.6715729 26.25,43.5 L26.25,58.5 C26.25,59.3284271 25.5784271,60 24.75,60 L23.25,60 C22.4215729,60 21.75,59.3284271 21.75,58.5 L21.75,43.5 C21.75,42.6715729 22.4215729,42 23.25,42 L24.75,42 Z M3,36 C3.82842712,36 4.5,36.6715729 4.5,37.5 L4.5,52.5 C4.5,53.3284271 3.82842712,54 3,54 L1.5,54 C0.671572875,54 1.01453063e-16,53.3284271 0,52.5 L0,37.5 C-1.01453063e-16,36.6715729 0.671572875,36 1.5,36 L3,36 Z M46.5,36 C47.3284271,36 48,36.6715729 48,37.5 L48,52.5 C48,53.3284271 47.3284271,54 46.5,54 L45,54 C44.1715729,54 43.5,53.3284271 43.5,52.5 L43.5,37.5 C43.5,36.6715729 44.1715729,36 45,36 L46.5,36 Z M24,3.25581925e-05 C24.6453169,0.0141056536 25.2413442,0.353792015 25.6666667,0.818205496 L27.0845728,2.36639833 C29.4371147,4.96246309 32.3934819,8.34841437 34.8091067,11.3153624 C40.3969644,17.0853479 40.3969644,26.0077157 34.8091067,31.7777012 C28.8252591,37.4069554 19.2481695,37.4069554 13.2643218,31.7777012 C7.44686993,26.2646145 7.8076461,18.1332825 12.9724543,11.6725463 L13.2643218,11.3153624 C16.0362513,7.92373677 19.8107309,3.56246687 22.3333333,0.818205496 C22.7586558,0.353792015 23.3546831,-0.0140405372 24,3.25581925e-05 Z M24.0075,5.673 L23.5770838,6.16044638 C21.5966854,8.39432079 19.3225764,11.0455357 17.4151668,13.3523186 L16.7183672,14.199729 C12.5384021,19.2052609 12.4443457,24.8009081 16.347707,28.5000899 C20.5001686,32.4064831 27.156027,32.4973294 31.4249256,28.772629 L31.6545,28.5645 L31.8483151,28.3560872 C35.383895,24.4286011 35.383895,18.6644624 31.8483151,14.7369764 L31.5765174,14.4459161 L31.4417618,14.3067684 L31.3194618,14.1565556 C29.314507,11.6940056 26.7307457,8.700699 24.3795099,6.08504608 L24.0075,5.673 Z" id="形状结合"></path>
                    </g>
                </g>
            </g>
        </g>
    </g>
</svg>