<?xml version="1.0" encoding="utf-8"?>
<!-- Generator: Adobe Illustrator 21.0.0, SVG Export Plug-In . SVG Version: 6.00 Build 0)  -->
<svg version="1.1" id="图层_1" xmlns="http://www.w3.org/2000/svg" xmlns:xlink="http://www.w3.org/1999/xlink" x="0px" y="0px"
	 viewBox="0 0 16 16" style="enable-background:new 0 0 16 16;" xml:space="preserve">
<style type="text/css">
	.st0{fill:#F4092A;}
</style>
<path class="st0" d="M8,0C3.6,0,0,3.6,0,8s3.6,8,8,8s8-3.6,8-8S12.4,0,8,0z M9.4,12.5c0.9-1.8-1-2.3-1-2.3s0.3,0.8-0.3,1.5
	c-0.8,0.9-1.9,0.8-1.9,0.8S4,11.5,4,9c0-1,1-1.9,1.1-2.9c0.3,0.5,0.8,1.1,0.4,1.5c1.2-1.2,2-2.7,1.8-4.1c0,0,1.8,0.6,2.6,3.3
	c0.4-0.4,0.4-1.2,0.2-1.6C10.7,5.6,14.5,9.8,9.4,12.5z"/>
</svg>
