<?xml version="1.0" encoding="UTF-8"?>
<svg width="20px" height="18px" viewBox="0 0 20 18" version="1.1" xmlns="http://www.w3.org/2000/svg" xmlns:xlink="http://www.w3.org/1999/xlink">
    <title>大屏</title>
    <g id="页面-1" stroke="none" stroke-width="1" fill="none" fill-rule="evenodd">
        <g id="监控管理-机房-布局图备份" transform="translate(-1475.000000, -23.000000)" fill="#8B9ED4" fill-rule="nonzero">
            <g id="Top-Bar" transform="translate(160.000000, 0.000000)">
                <g id="大屏" transform="translate(1315.000000, 23.000000)">
                    <path d="M18,16 C18.5,16 19,16.4390233 19,17 C19,17.5609745 18.5,18 18,18 L2,18 C1.5,18 1,17.5609767 1,17 C1,16.4390255 1.5,16 2,16 L18,16 Z M19.7090134,0.00135614281 C19.7799857,-0.00587662415 19.8580553,0.0158216979 19.9148332,0.066451109 C19.9716111,0.117080457 20,0.189408338 20,0.268968711 L20,12.7310313 C20,12.8105919 19.9716111,12.8829195 19.9148332,12.9335489 C19.8651527,12.9769455 19.8012776,12.9986439 19.7374025,12.9986439 L19.7090134,12.9986439 C19.6593329,12.9914111 14.8828887,12.4634179 10,12.4634179 C5.1242016,12.4634179 0.340660276,12.9914097 0.290986583,12.9986439 C0.212916961,13.0058766 0.14194471,12.9841783 0.0851667844,12.9335489 C0.0283888588,12.8829195 0,12.8105917 0,12.7310313 L0,0.268968711 C0,0.189408126 0.0283888588,0.117080457 0.0851667844,0.066451109 C0.14194471,0.0158217615 0.212916961,-0.00587656058 0.290986583,0.00135614281 C0.340667137,0.00858890977 5.11711129,0.536582127 10,0.536582127 C14.8757984,0.536582127 19.6593397,0.00859032949 19.7090134,0.00135614281 Z M18,2.1723381 C17.6167142,2.20460388 17.2104859,2.23698727 16.8106363,2.26632145 C14.5081733,2.43523712 12.1898822,2.53658213 10,2.53658213 C7.80701845,2.53658213 5.48803567,2.43523628 3.18663592,2.26631567 C2.78760215,2.23702696 2.38236843,2.20470686 2,2.17250056 L2,10.8276619 C2.38328583,10.7953961 2.78951414,10.7630127 3.18936372,10.7336786 C5.49182667,10.5647629 7.81011778,10.4634179 10,10.4634179 C12.1929816,10.4634179 14.5119643,10.5647637 16.8133641,10.7336843 C17.2123979,10.762973 17.6176316,10.7952931 18,10.8274994 L18,2.1723381 Z" id="形状结合"></path>
                </g>
            </g>
        </g>
    </g>
</svg>