<?xml version="1.0" encoding="UTF-8"?>
<svg width="52px" height="60px" viewBox="0 0 52 60" version="1.1" xmlns="http://www.w3.org/2000/svg" xmlns:xlink="http://www.w3.org/1999/xlink">
    <title>漏水</title>
    <g id="页面-1" stroke="none" stroke-width="1" fill="none" fill-rule="evenodd">
        <g id="监控管理-设备状态" transform="translate(-1562.000000, -170.000000)" fill="#FF4B61">
            <g id="编组-2" transform="translate(176.000000, 80.000000)">
                <g id="编组-6" transform="translate(88.000000, 90.000000)">
                    <g id="漏水" transform="translate(1298.000000, 0.000000)">
                        <polygon id="Fill-1" points="0 37 52 37 52 35 0 35"></polygon>
                        <g id="编组" transform="translate(5.000000, 0.000000)">
                            <path d="M29.0006,28 C29.0006,29.104 28.1046,30 27.0006,30 C25.8946,30 25.0006,29.104 25.0006,28 C25.0006,26.9 25.9006,26 27.0006,26 C28.1006,26 29.0006,26.9 29.0006,28" id="Fill-2"></path>
                            <path d="M23,17 C24.106,17 25,17.896 25,19 C25,20.106 24.106,21 23,21 C21.894,21 21,20.106 21,19 C21,17.9 21.9,17 23,17" id="Fill-4"></path>
                            <path d="M19.0006,30 C17.8946,30 17.0006,29.104 17.0006,28 C17.0006,26.894 17.8946,26 19.0006,26 C20.1046,26 21.0006,26.894 21.0006,28 C21.0006,29.104 20.1046,30 19.0006,30" id="Fill-6"></path>
                            <path d="M38.1522199,30 C33.8239958,19.9139656 23.8640592,6.8647459 21,3.20928371 C18.1339323,6.8647459 8.16997886,19.9159664 3.84778013,29.9979992 L2,29.2116847 C7.16173362,17.1748699 19.6864693,1.62264906 20.2167019,0.966386555 L21,-1.73472348e-18 L21.7832981,0.966386555 C22.3115222,1.62264906 34.832241,17.1748699 40,29.2116847 L38.1522199,30 Z" id="Fill-8"></path>
                            <path d="M21.0170138,60 C19.5698423,60 18.1166659,59.8395538 16.6734976,59.5166806 C8.26268884,57.6329233 1.71739027,50.5059425 -3.46944695e-18,41.3644704 L1.96759281,41 C3.54086642,49.3649917 9.48567888,55.8739575 17.1158557,57.5853837 C21.8596959,58.6411593 26.7596626,57.7379066 30.9170281,55.0281485 C35.6108278,51.9717473 38.9335176,46.8592577 40.0344088,41 L42,41.3644704 C40.803031,47.7466639 37.1620836,53.3325688 32.0179193,56.6821309 C28.6632035,58.8709341 24.8661297,60 21.0170138,60" id="Fill-10"></path>
                        </g>
                    </g>
                </g>
            </g>
        </g>
    </g>
</svg>