<?xml version="1.0" encoding="UTF-8"?>
<svg width="38px" height="53px" viewBox="0 0 38 53" version="1.1" xmlns="http://www.w3.org/2000/svg" xmlns:xlink="http://www.w3.org/1999/xlink">
    <title>电表</title>
    <g id="页面-1" stroke="none" stroke-width="1" fill="none" fill-rule="evenodd">
        <g id="监控管理-设备状态" transform="translate(-729.000000, -174.000000)" fill="#8B9ED4" fill-rule="nonzero">
            <g id="编组-2" transform="translate(176.000000, 80.000000)">
                <g id="编组-6" transform="translate(88.000000, 90.000000)">
                    <g id="电表" transform="translate(465.000000, 4.000000)">
                        <path d="M36,0 C37.1045695,0 38,0.8954305 38,2 L38,51 C38,52.1045695 37.1045695,53 36,53 L2,53 C0.8954305,53 0,52.1045695 0,51 L0,2 C0,0.8954305 0.8954305,0 2,0 L36,0 Z M36,2 L2,2 L2,51 L36,51 L36,2 Z" id="路径备份-21"></path>
                        <path d="M28,9 C28.5,9 29,9.5 29,10 L29,19 C29,19.5 28.5,20 28,20 L10,20 L10,20 C9.5,20 9,19.5 9,19 L9,10 C9,9.5 9.5,9 10,9 L28,9 Z M14,11 L12,11 C11.4477153,11 11,11.4477153 11,12 L11,12 L11,17 C11,17.5522847 11.4477153,18 12,18 L12,18 L14,18 C14.5522847,18 15,17.5522847 15,17 L15,17 L15,12 C15,11.4477153 14.5522847,11 14,11 L14,11 Z M20,11 L18,11 C17.4477153,11 17,11.4477153 17,12 L17,12 L17,17 C17,17.5522847 17.4477153,18 18,18 L18,18 L20,18 C20.5522847,18 21,17.5522847 21,17 L21,17 L21,12 C21,11.4477153 20.5522847,11 20,11 L20,11 Z M26,11 L24,11 C23.4477153,11 23,11.4477153 23,12 L23,12 L23,17 C23,17.5522847 23.4477153,18 24,18 L24,18 L26,18 C26.5522847,18 27,17.5522847 27,17 L27,17 L27,12 C27,11.4477153 26.5522847,11 26,11 L26,11 Z M14,15 L14,17 L12,17 L12,15 L14,15 Z M20,15 L20,17 L18,17 L18,15 L20,15 Z M26,15 L26,17 L24,17 L24,15 L26,15 Z M26,12 L26,14 L24,14 L24,12 L26,12 Z M20,12 L20,14 L18,14 L18,12 L20,12 Z M14,12 L14,14 L12,14 L12,12 L14,12 Z" id="形状结合"></path>
                        <path d="M31.8333333,5 C32.475,5 33,5.65 33,6.44444444 L33,29.5555556 C33,30.35 32.4866667,31 31.8333333,31 L6.16666667,31 C5.525,31 5,30.35 5,29.5555556 L5,6.44444444 C5,5.65 5.525,5 6.16666667,5 L31.8333333,5 Z M31,7 L7,7 L7,29 L31,29 L31,7 Z" id="路径备份-13"></path>
                        <path d="M30,35 C30.5522847,35 31,35.4477153 31,36 L31,46 C31,46.5522847 30.5522847,47 30,47 L8,47 C7.44771525,47 7,46.5522847 7,46 L7,36 C7,35.4477153 7.44771525,35 8,35 L30,35 Z M29,37 L9,37 L9,45 L29,45 L29,37 Z" id="路径备份-14"></path>
                        <circle id="椭圆形" cx="13" cy="41" r="2"></circle>
                        <circle id="椭圆形" cx="19" cy="41" r="2"></circle>
                        <circle id="椭圆形" cx="25" cy="41" r="2"></circle>
                        <circle id="椭圆形备份-5" cx="12" cy="24" r="1"></circle>
                        <circle id="椭圆形备份-4" cx="16" cy="24" r="1"></circle>
                        <circle id="椭圆形备份-3" cx="20" cy="24" r="1"></circle>
                        <path d="M27,24 C27,22.8954305 26.1045695,22 25,22 C23.8954305,22 23,22.8954305 23,24 C24,24 26,24 27,24 Z" id="椭圆形备份-6"></path>
                        <path d="M27,27 C27,25.8954305 26.1045695,25 25,25 C23.8954305,25 23,25.8954305 23,27 C24,27 26,27 27,27 Z" id="椭圆形备份-7" transform="translate(25.000000, 26.000000) scale(1, -1) translate(-25.000000, -26.000000) "></path>
                    </g>
                </g>
            </g>
        </g>
    </g>
</svg>