<?xml version="1.0" encoding="UTF-8"?>
<svg width="24px" height="30px" viewBox="0 0 24 30" version="1.1" xmlns="http://www.w3.org/2000/svg" xmlns:xlink="http://www.w3.org/1999/xlink">
    <title>门禁管理</title>
    <g id="页面-1" stroke="none" stroke-width="1" fill="none" fill-rule="evenodd">
        <g id="监控管理-机房-布局图备份" transform="translate(-68.000000, -290.000000)" fill="#8497CA" fill-rule="nonzero">
            <g id="菜单">
                <g id="Main-menu" transform="translate(52.000000, 24.000000)">
                    <path d="M38.6666667,266 C39.4030458,266 40,266.610522 40,267.363637 L40,267.363637 L40,294.636364 C40,295.389479 39.4030458,296 38.6666667,296 L38.6666667,296 L17.3333333,296 C16.5969542,296 16,295.389479 16,294.636363 L16,294.636363 L16,267.363636 C16,266.610521 16.5969542,266 17.3333334,266 L17.3333334,266 Z M36.8888889,268 L19.1111112,268 C18.4974618,268 18,268.529118 18,269.181818 L18,292.818182 C18,293.470882 18.4974618,294 19.1111111,294 L36.8888889,294 C37.5025382,294 38,293.470882 38,292.818182 L38,269.181818 C38,268.529119 37.5025382,268 36.8888889,268 Z M35.4166667,270 C35.7388329,270 36,270.24632 36,270.550172 L36,291.449828 C36,291.75368 35.7388329,292 35.4166667,292 L25,292 L25,270 L35.4166667,270 Z M34,272 L27,272 L27,290 L34,290 L34,272 Z M21.5,277 C22.3284266,277 23,277.666667 23,278.5 L23,285.5 L23,285.5 C23,286.333333 22.3284266,287 21.5,287 C20.6715734,287 20,286.333333 20,285.5 L20,278.5 L20,278.5 C20,277.666667 20.6715734,277 21.5,277 Z" id="门禁管理"></path>
                </g>
            </g>
        </g>
    </g>
</svg>