<?xml version="1.0" encoding="UTF-8"?>
<svg width="30px" height="28px" viewBox="0 0 30 28" version="1.1" xmlns="http://www.w3.org/2000/svg" xmlns:xlink="http://www.w3.org/1999/xlink">
    <title>视频管理</title>
    <g id="页面-1" stroke="none" stroke-width="1" fill="none" fill-rule="evenodd">
        <g id="监控管理-机房-布局图备份" transform="translate(-65.000000, -380.000000)" fill="#8497CA" fill-rule="nonzero">
            <g id="菜单">
                <g id="Main-menu" transform="translate(52.000000, 24.000000)">
                    <path d="M42,366 C42.5,376 37.9118927,384 27.9559463,384 C18,384 13.5,376 14,366 L42,366 Z M40.034,368 L15.964,368 L15.9716029,368.310604 C16.2108068,376.644614 20.3910627,381.85186 27.6432596,381.996889 L27.9559463,382 C35.4210142,382 39.7744201,376.736814 40.0269337,368.304326 L40.034,368 Z M28.0147558,370.000017 C30.7703581,370.008175 32.9999636,372.244282 33.0000706,374.999936 C32.981727,377.771122 30.7268279,380.006186 27.955628,380.000071 C25.2001227,379.975513 22.9838665,377.726175 23.0000706,374.970569 C23.0164533,372.214963 25.2591535,369.991991 28.0147558,370.000017 Z M27.9744371,372.000109 C26.3409322,372.014005 25.0188062,373.332322 25.000196,374.96578 C24.9863109,376.184505 25.7111487,377.290497 26.8341594,377.76413 C27.9571701,378.237763 29.255115,377.984885 30.1181816,377.124305 C30.9812483,376.263725 31.2378712,374.966515 30.7674814,373.842142 C30.2970917,372.717768 29.1931961,371.989742 27.9744371,372.000109 Z M28,374.000128 C28.5522847,374.000128 29,374.447843 29,375.000128 C29,375.552412 28.5522847,376.000128 28,376.000128 C27.4477153,376.000128 27,375.552412 27,375.000128 C27,374.447843 27.4477153,374.000128 28,374.000128 Z M43,361 C43,362 43,364 42,364 L14,364 C13,364 13,362 13,361 L43,361 Z M42.9993519,356.805745 L43,359 L13,359 L13,356.567568 C13,356.068774 13.3319643,356.006929 13.7036534,356.000639 L42.065,356 C42.8892105,356 42.990928,356.054578 42.9993519,356.805745 Z" id="视频管理"></path>
                </g>
            </g>
        </g>
    </g>
</svg>