<?xml version="1.0" encoding="UTF-8"?>
<svg width="60px" height="60px" viewBox="0 0 60 60" version="1.1" xmlns="http://www.w3.org/2000/svg" xmlns:xlink="http://www.w3.org/1999/xlink">
    <title>风机状态</title>
    <g id="中阳" stroke="none" stroke-width="1" fill="none" fill-rule="evenodd">
        <g id="制冷-空调1" transform="translate(-1242.000000, -224.000000)" fill="#3CB2FF" fill-rule="nonzero">
            <g id="编组-3" transform="translate(176.000000, 94.000000)">
                <g id="分组-2" transform="translate(884.000000, 130.000000)">
                    <g id="风机状态" transform="translate(182.000000, 0.000000)">
                        <path d="M52.1220631,8.7876603 C55.4889783,14.7842159 53.2806306,18.7827999 46.5123319,19.2667585 L45.5402937,19.325772 C40.1936429,19.6979256 33.3430986,21.5104749 34.5620703,27.2412932 C34.7384259,27.66556 35.2194943,27.8227944 35.8944295,27.8125159 L36.1264361,27.8030221 C38.2763806,27.6641972 42.0602798,26.1172751 44.4852899,25.8492803 C45.0745464,25.7839981 45.6550787,25.7459622 46.2253803,25.7342561 L46.6511646,25.7303991 C53.5735414,25.7475676 58.9041439,29.6814646 59.8735788,35.8472851 C60.976789,42.8707256 54.6802286,52.1276559 47.9853836,53.3510996 C47.4020564,53.4575014 46.8493127,53.520967 46.3284948,53.5426261 L46.019846,53.5506139 C42.2694004,53.5873941 40.273759,51.357769 40.5731164,47.3164036 L40.6054999,46.9551224 C41.0220313,42.9774245 40.1154349,39.6594253 37.9954644,36.6082074 C37.3265836,35.6471649 36.2624746,34.624167 35.0119242,34.494152 L34.789346,34.4806723 C34.4152983,34.4743035 34.0261849,34.5500416 33.6273179,34.7321828 C31.7090183,35.6101385 33.7054303,37.6731428 34.0055106,39.3288573 C37.4454653,48.4322753 33.6770693,56.1935737 27.0254834,59.1595145 C25.8236626,59.6956945 24.4783345,59.9642541 23.0666292,59.9966556 L22.6800309,59.9996608 C17.2462373,59.9604239 10.9469847,56.5200505 8.07559477,51.4298357 C4.62189402,45.3104721 6.56013005,41.477183 13.4405279,41.0069476 L13.8207209,40.9846402 C16.0973263,40.8711657 18.2222173,40.6140344 20.3955612,39.7762533 C22.9922021,38.7782528 25.7121965,37.1124092 25.1255672,34.625347 C24.7658543,33.1045202 24.0258062,32.5764804 23.1174995,32.5182133 L22.945272,32.5126656 C21.66857,32.5104814 20.0988138,33.3346595 18.7873195,33.6255671 C16.884996,34.0466368 15.0251261,34.3152537 13.2470267,34.3474633 L12.8672714,34.3507162 C8.07325318,34.3453115 3.90235737,32.5540317 1.14080852,27.2980304 C-1.87414063,21.5596986 1.34405123,13.1673782 7.77059402,8.80429136 C9.89229538,7.36462375 11.7662778,6.60686775 13.3517,6.50801022 L13.5996259,6.4978734 C16.7094945,6.43874632 18.6565241,9.0103683 19.113984,14.0286344 C19.3155182,16.2302309 19.8722146,18.4117058 20.4055388,20.5648464 C21.0084193,22.9894702 22.510657,25.3950237 24.7599031,25.3262635 L25.0128857,25.3083164 C25.1835798,25.2893971 25.3583418,25.2564023 25.5371098,25.2083342 C29.1355446,24.2436643 26.9054786,21.1992221 26.4220425,18.9058468 C24.5356576,9.89934059 27.0921831,3.15527455 33.2636815,0.701679851 C34.3744698,0.259997318 35.5948832,0.0353084986 36.8695032,0.00385321555 L37.25346,0.000189876536 C42.7785609,0.0300913128 49.2034756,3.58894827 52.1220631,8.7876603 Z M28.893,38.64 L28.7425881,38.9201709 C28.3499373,39.6072848 27.8474581,40.2478017 27.2525916,40.8321692 L26.9920432,41.0791468 C25.6612721,42.2968024 23.9808898,43.2191829 22.01413,43.9750907 C19.7306456,44.8553288 17.5221312,45.2627633 14.7035794,45.4418186 L13.2448599,45.5231804 C10.2186453,45.7163723 10.2508537,46.1285668 11.9950022,49.2188982 C14.6060386,53.8475749 21.5438894,56.6775391 25.1928668,55.0495855 C29.970695,52.9191529 32.1331741,47.583547 29.94492,41.3287214 L29.7960216,40.9195182 L29.6508738,40.5354024 L29.5815,40.1595 L29.5785342,40.1667242 L29.5677169,40.1496055 L29.0441291,39.00037 L28.893,38.64 Z M44.9795885,30.32205 L44.7103603,30.3591008 C44.1804573,30.4447605 43.4349324,30.6315784 42.2118913,30.9793871 L40.4976331,31.4694179 C40.2665618,31.5343301 40.0531813,31.5933915 39.8540317,31.6473623 L39.576,31.7205 L39.681511,31.8067697 C40.3445605,32.3654993 40.9511097,33.0270578 41.4914973,33.7616959 L41.6910224,34.0405527 C44.3569016,37.8774826 45.5089791,42.0933353 45.1355911,46.8295759 L45.0282479,47.9660528 C44.9178544,49.3040036 45.1643246,49.2914263 47.1764317,48.9244082 C51.432329,48.1466679 56.1579861,41.1923757 55.4281893,36.5462214 C54.7625656,32.3127075 50.7073373,29.687488 44.9795885,30.32205 Z M27.2236991,29.3974155 L27.0765,29.445 L27.170444,29.5215246 L27.1917377,29.5427118 L27.1796872,29.6109879 C27.1571865,29.7491612 27.1454881,29.8909701 27.1454881,30.0355166 C27.1454881,31.2640455 27.9906987,32.2949295 29.1307355,32.5765528 L29.2095958,32.5947326 L29.2545,32.7225 L29.328782,32.6173596 C29.4728455,32.6408981 29.6144566,32.6526158 29.758804,32.6526158 C31.2022783,32.6526158 32.3721198,31.4808447 32.3721198,30.0355166 C32.3721198,28.5900516 31.2022783,27.4183489 29.758804,27.4183489 C28.6085354,27.4183489 27.6320263,28.1623916 27.2827793,29.196098 L27.2236991,29.3974155 Z M10.2982303,12.5273351 C5.52434036,15.7684084 3.32342185,21.7771576 5.12442879,25.2050016 C7.41770726,29.5697532 10.941149,30.6637348 17.3395146,29.3339596 L17.8128423,29.2323457 C17.8946611,29.2141972 17.987385,29.1889047 18.1260931,29.1450841 L19.2815634,28.7496263 C19.483067,28.6803945 19.6773167,28.6155296 19.8655034,28.5552006 L20.181,28.4565 L20.1542688,28.437637 C18.2368077,27.0256069 16.8587439,24.6877903 16.1257913,21.9863193 L15.9388491,21.2487441 C15.1940356,18.2450616 14.8587649,16.6603976 14.6669206,14.7913506 L14.553549,13.6263747 C14.1889311,10.1890151 13.6932028,10.2236973 10.2982303,12.5273351 Z M34.926392,4.88323386 C31.1384569,6.38919832 29.4300767,10.7254159 30.7274802,17.4903265 L30.8252763,17.9776594 C30.8407513,18.0510714 30.8649271,18.1400291 30.9083088,18.276033 L31.4763033,19.9198977 C31.5069194,20.0125281 31.5364021,20.1035428 31.5647361,20.193102 L31.665,20.5245 L31.7275979,20.4391794 C32.6591049,19.2002863 33.9208376,18.1486557 35.445754,17.3173686 L35.8022992,17.1294596 C38.4124081,15.7999094 41.680744,15.0823157 45.2008613,14.8381346 L46.4767691,14.7622804 C49.7159272,14.5446446 49.8693464,13.9670319 48.19814,10.9905737 C45.5808424,6.32853202 38.7054522,3.38056691 34.926392,4.88323386 Z" id="形状"></path>
                    </g>
                </g>
            </g>
        </g>
    </g>
</svg>