<svg xmlns="http://www.w3.org/2000/svg" viewBox="0 0 12 26"><defs><style>.cls-1{fill:#021742;}.cls-2{fill:#0077e9;}</style></defs><title>资源 25</title><g id="图层_2" data-name="图层 2"><g id="图层_3" data-name="图层 3"><path class="cls-1" d="M10,18.35V3A2.5,2.5,0,0,0,5,3V18.35a4,4,0,1,0,5,0Z"/><path class="cls-2" d="M7.5,26A4.51,4.51,0,0,1,3,21.5a4.45,4.45,0,0,1,1.5-3.38V3a3,3,0,0,1,6,0V18.12A4.45,4.45,0,0,1,12,21.5,4.51,4.51,0,0,1,7.5,26Zm0-25a2,2,0,0,0-2,2V18.6l-.19.15A3.46,3.46,0,0,0,4,21.5a3.5,3.5,0,0,0,7,0,3.46,3.46,0,0,0-1.31-2.75L9.5,18.6V3A2,2,0,0,0,7.5,1Z"/><circle class="cls-2" cx="7.5" cy="21.5" r="2"/><path class="cls-2" d="M8.5,20.5h-2v-8a1,1,0,0,1,1-1h0a1,1,0,0,1,1,1Z"/><rect class="cls-2" y="4" width="4" height="1"/><rect class="cls-2" x="2" y="6" width="2" height="1"/><rect class="cls-2" x="2" y="8" width="2" height="1"/><rect class="cls-2" y="10" width="4" height="1"/><rect class="cls-2" y="16" width="4" height="1"/><rect class="cls-2" x="2" y="12" width="2" height="1"/><rect class="cls-2" x="2" y="14" width="2" height="1"/><path class="cls-1" d="M7.5,22.75v-.5a.76.76,0,0,0,.75-.75h.5A1.25,1.25,0,0,1,7.5,22.75Z"/></g></g></svg>