<?xml version="1.0" encoding="utf-8"?>
<!-- Generator: Adobe Illustrator 23.0.4, SVG Export Plug-In . SVG Version: 6.00 Build 0)  -->
<svg version="1.1" id="图层_1" xmlns="http://www.w3.org/2000/svg" xmlns:xlink="http://www.w3.org/1999/xlink" x="0px" y="0px"
	 viewBox="0 0 30 30" style="enable-background:new 0 0 30 30;" xml:space="preserve">
<style type="text/css">
	.st0{fill:#021742;}
	.st1{fill:#E88400;}
</style>
<title>资源 23</title>
<circle class="st0" cx="15" cy="15" r="15"/>
<path class="st1" d="M15,2c7.2,0,13,5.8,13,13s-5.8,13-13,13S2,22.2,2,15S7.8,2,15,2 M15,0C6.7,0,0,6.7,0,15s6.7,15,15,15
	s15-6.7,15-15S23.3,0,15,0z"/>
<path class="st1" d="M15,4c6.1,0,11,4.9,11,11s-4.9,11-11,11S4,21.1,4,15S8.9,4,15,4 M15,3C8.4,3,3,8.4,3,15s5.4,12,12,12
	s12-5.4,12-12S21.6,3,15,3z"/>
<path class="st1" d="M15,11c2.2,0,4,1.8,4,4s-1.8,4-4,4s-4-1.8-4-4S12.8,11,15,11 M15,10c-2.8,0-5,2.2-5,5s2.2,5,5,5s5-2.2,5-5
	S17.8,10,15,10z"/>
<circle class="st1" cx="8" cy="15" r="1"/>
<circle class="st1" cx="15" cy="8" r="1"/>
<circle class="st1" cx="15" cy="22" r="1"/>
<circle class="st1" cx="22" cy="15" r="1"/>
</svg>
