<svg xmlns="http://www.w3.org/2000/svg" viewBox="0 0 30 30"><defs><style>.cls-1{fill:#041842;}.cls-2{fill:#0477e9;}</style></defs><title>资源 23</title><g id="图层_2" data-name="图层 2"><g id="图层_6" data-name="图层 6"><circle class="cls-1" cx="15" cy="15" r="15"/><path class="cls-2" d="M15,2A13,13,0,1,1,2,15,13,13,0,0,1,15,2m0-2A15,15,0,1,0,30,15,15,15,0,0,0,15,0Z"/><path class="cls-2" d="M15,4A11,11,0,1,1,4,15,11,11,0,0,1,15,4m0-1A12,12,0,1,0,27,15,12,12,0,0,0,15,3Z"/><path class="cls-2" d="M15,11a4,4,0,1,1-4,4,4,4,0,0,1,4-4m0-1a5,5,0,1,0,5,5,5,5,0,0,0-5-5Z"/><circle class="cls-2" cx="8" cy="15" r="1"/><circle class="cls-2" cx="15" cy="8" r="1"/><circle class="cls-2" cx="15" cy="22" r="1"/><circle class="cls-2" cx="22" cy="15" r="1"/></g></g></svg>