<svg xmlns="http://www.w3.org/2000/svg" viewBox="0 0 30 22"><defs><style>.cls-1{fill:#0077e9;}</style></defs><title>资源 22</title><g id="图层_2" data-name="图层 2"><g id="图层_6" data-name="图层 6"><path class="cls-1" d="M14.52,0A26.48,26.48,0,0,1,25.28,1.92a13.55,13.55,0,0,1,3,1.86,4.17,4.17,0,0,1,1.65,3.68,7.22,7.22,0,0,0,0,1.47c.45,3.07-1.25,4.94-3.75,6.1a3.9,3.9,0,0,0-2.35,2.52,5.59,5.59,0,0,1-4.36,3.83,16.89,16.89,0,0,1-8.7.1c-2.35-.55-4.1-1.76-4.8-4.18a3.13,3.13,0,0,0-2-2.22,8.67,8.67,0,0,1-2.45-1.67A4,4,0,0,1,0,10.09,19.54,19.54,0,0,0,0,7.67,4.75,4.75,0,0,1,2.37,3.18a19.42,19.42,0,0,1,9.25-3C12.67.05,13.82.05,14.52,0ZM4.42,14.52c0-.1.15-.15.2-.25-.35-.76-.7-1.51-1-2.32a3.41,3.41,0,0,1,0-1c.25.2.65.36.8.66.9,2,1.8,4,2.65,6.1a4,4,0,0,0,2.45,2.42,15.61,15.61,0,0,0,10.8.05,4.26,4.26,0,0,0,2.55-2.47c.81-2,1.66-3.93,2.56-5.9a3.54,3.54,0,0,1,.8-.91,5.3,5.3,0,0,1-.05,1.26c-.25.76-.6,1.42-.9,2.12.1.05.15.15.25.2a19.64,19.64,0,0,0,2.4-1.76,2.85,2.85,0,0,0,0-4.59,10,10,0,0,0-2.75-1.77,27.32,27.32,0,0,0-18.36-.7,15,15,0,0,0-4.7,2.52C.37,9.48.47,11.3,2,12.71A28.1,28.1,0,0,0,4.42,14.52ZM28.93,7.77A3.13,3.13,0,0,0,28,4.64a12.21,12.21,0,0,0-2.85-1.87A26.7,26.7,0,0,0,8.32,1.71,23.59,23.59,0,0,0,2.67,4,3.32,3.32,0,0,0,1,7.82C6.37,2.32,23.07,2.12,28.93,7.77Z"/><ellipse class="cls-1" cx="14.92" cy="18.05" rx="4.15" ry="1.87"/><path class="cls-1" d="M4.62,8.82A7.29,7.29,0,0,1,7.17,7.16l2.3,6.25a17,17,0,0,0-2.55,1.42Z"/><path class="cls-1" d="M22.37,7.16a9.7,9.7,0,0,1,2.41,1.61l-2.11,6a5.28,5.28,0,0,0-2.5-1.47Z"/><path class="cls-1" d="M11.82,12.91s4-.71,5.85,0V5.7a11.78,11.78,0,0,0-5.85,0Z"/></g></g></svg>