<?xml version="1.0" encoding="utf-8"?>
<!-- Generator: Adobe Illustrator 23.0.4, SVG Export Plug-In . SVG Version: 6.00 Build 0)  -->
<svg version="1.1" id="图层_1" xmlns="http://www.w3.org/2000/svg" xmlns:xlink="http://www.w3.org/1999/xlink" x="0px" y="0px"
	 viewBox="0 0 30 22" style="enable-background:new 0 0 30 22;" xml:space="preserve">
<style type="text/css">
	.st0{fill:#E88400;}
</style>
<title>资源 22</title>
<g>
	<g id="图层_6">
		<path class="st0" d="M14.5,0c3.7-0.1,7.3,0.5,10.8,1.9c1.1,0.5,2.1,1.1,3,1.9C29.4,4.6,30,6,29.9,7.5c-0.1,0.5-0.1,1,0,1.5
			c0.5,3.1-1.2,4.9-3.8,6.1c-1.1,0.4-2,1.4-2.4,2.5c-0.6,2-2.3,3.5-4.4,3.8c-2.8,0.8-5.8,0.8-8.7,0.1c-2.3-0.5-4.1-1.8-4.8-4.2
			c-0.2-1-1-1.9-2-2.2c-0.9-0.4-1.7-1-2.5-1.7c-1-0.8-1.6-2-1.5-3.3c0.1-0.8,0-1.6,0-2.4c-0.1-1.8,0.8-3.6,2.4-4.5
			c2.8-1.8,6-2.8,9.2-3C12.7,0.1,13.8,0.1,14.5,0z M4.4,14.5c0-0.1,0.2-0.1,0.2-0.2c-0.3-0.8-0.7-1.5-1-2.3c0-0.3,0-0.7,0-1
			c0.2,0.2,0.7,0.4,0.8,0.7c0.9,2,1.8,4,2.7,6.1c0.4,1.1,1.3,2,2.5,2.4c3.5,1.3,7.3,1.3,10.8,0c1.2-0.4,2.1-1.3,2.5-2.5
			c0.8-2,1.7-3.9,2.6-5.9c0.2-0.3,0.5-0.7,0.8-0.9c0,0.4,0,0.8,0,1.3c-0.2,0.8-0.6,1.4-0.9,2.1c0.1,0.1,0.1,0.1,0.2,0.2
			c0.8-0.5,1.6-1.1,2.4-1.8c1.3-0.9,1.5-2.7,0.6-4c-0.2-0.2-0.4-0.4-0.6-0.6c-0.8-0.7-1.7-1.3-2.8-1.8C19.3,4,12.8,3.8,6.8,5.7
			C5.1,6.2,3.5,7.1,2.1,8.2C0.4,9.5,0.5,11.3,2,12.7C2.8,13.4,3.6,14,4.4,14.5z M28.9,7.8c0.3-1.1-0.1-2.3-0.9-3.1
			c-0.9-0.8-1.8-1.4-2.9-1.9C19.8,0.6,13.9,0.2,8.3,1.7C6.3,2.2,4.4,3,2.7,4C1.3,4.7,0.6,6.3,1,7.8C6.4,2.3,23.1,2.1,28.9,7.8z"/>
		<ellipse class="st0" cx="14.9" cy="18" rx="4.1" ry="1.9"/>
		<path class="st0" d="M4.6,8.8c0.7-0.7,1.6-1.3,2.6-1.7l2.3,6.2c-0.9,0.4-1.7,0.9-2.6,1.4L4.6,8.8z"/>
		<path class="st0" d="M22.4,7.2c0.9,0.4,1.7,1,2.4,1.6l-2.1,6c-0.7-0.7-1.5-1.2-2.5-1.5L22.4,7.2z"/>
		<path class="st0" d="M11.8,12.9c0,0,4-0.7,5.9,0V5.7c-1.9-0.5-3.9-0.5-5.9,0V12.9z"/>
	</g>
</g>
</svg>
