<?xml version="1.0" encoding="UTF-8"?>
<svg width="30px" height="60px" viewBox="0 0 30 60" version="1.1" xmlns="http://www.w3.org/2000/svg" xmlns:xlink="http://www.w3.org/1999/xlink">
    <title>列头柜</title>
    <g id="页面-1" stroke="none" stroke-width="1" fill="none" fill-rule="evenodd">
        <g id="监控管理-设备状态" transform="translate(-943.000000, -171.000000)" fill="#8B9ED4" fill-rule="nonzero">
            <g id="编组-2" transform="translate(176.000000, 80.000000)">
                <g id="编组-6" transform="translate(88.000000, 90.000000)">
                    <g id="列头柜" transform="translate(679.000000, 1.000000)">
                        <path d="M29.0739379,0 C29.3200646,0 29.5559361,0.1 29.7302758,0.26 C29.9046156,0.43 29.9969131,0.66 29.9969131,0.9 L29.9969131,59.01 C30.0174236,59.26 29.9353814,59.51 29.7610417,59.7 C29.5867019,59.89 29.3405752,60 29.0739379,60 L0.922975157,60 C0.410211181,60 -1.77635684e-15,59.6 -1.77635684e-15,59.1 L-1.77635684e-15,0.9 C-1.77635684e-15,0.4 0.410211181,0 0.922975157,0 L29.0739379,0 Z M28,2 L2,2 L2,58 L28,58 L28,2 Z M1.5,28 L0.5,28 L0.5,32 L1.5,32 L1.5,28 Z" id="形状结合"></path>
                        <path d="M25.5424504,4 C25.7966446,4 26,4.1986249 26,4.44690604 L26,55.553094 C25.9898322,55.8013751 25.7864769,56 25.5322827,56 L4.45754957,56 C4.20335536,56 4,55.8013751 4,55.553094 L4,4.44690604 C4,4.32773109 4.05083884,4.21848739 4.13218099,4.12910619 C4.21352313,4.04965623 4.33553635,4 4.45754957,4 L25.5424504,4 Z M24.999,5 L4.999,5 L4.999,55 L24.999,55 L24.999,5 Z" id="路径"></path>
                        <path d="M14,53 L8,53 L8,37 L14,37 L14,53 Z M8.5,52.5 L13.5,52.5 L13.5,37.5 L8.5,37.5 L8.5,52.5 Z M22,53 L16,53 L16,37 L22,37 L22,53 Z M16.5,52.5 L21.5,52.5 L21.5,37.5 L16.5,37.5 L16.5,52.5 Z" id="形状"></path>
                        <path d="M14,28 L8,28 L8,12 L14,12 L14,28 Z M8.5,27.5 L13.5,27.5 L13.5,12.5 L8.5,12.5 L8.5,27.5 Z M22,28 L16,28 L16,12 L22,12 L22,28 Z M16.5,27.5 L21.5,27.5 L21.5,12.5 L16.5,12.5 L16.5,27.5 Z" id="形状备份"></path>
                        <path d="M9.5,7.86646884 C9.80952381,8.04451039 10.1904762,8.04451039 10.5,7.86646884 C10.8095238,7.6884273 11,7.35608309 11,7 C11,6.64391691 10.8095238,6.3115727 10.5,6.13353116 C10.1904762,5.95548961 9.80952381,5.95548961 9.5,6.13353116 C9.19047619,6.3115727 9,6.64391691 9,7 C9,7.35608309 9.19047619,7.6884273 9.5,7.86646884 Z" id="路径"></path>
                        <path d="M14.5,7.86646884 C14.8095238,8.04451039 15.1904762,8.04451039 15.5,7.86646884 C15.8095238,7.6884273 16,7.35608309 16,7 C16,6.64391691 15.8095238,6.3115727 15.5,6.13353116 C15.1904762,5.95548961 14.8095238,5.95548961 14.5,6.13353116 C14.1904762,6.3115727 14,6.64391691 14,7 C14,7.35608309 14.1904762,7.6884273 14.5,7.86646884 Z" id="路径"></path>
                        <path d="M19.5,7.86646884 C19.8095238,8.04451039 20.1904762,8.04451039 20.5,7.86646884 C20.8095238,7.6884273 21,7.35608309 21,7 C21,6.64391691 20.8095238,6.3115727 20.5,6.13353116 C20.1904762,5.95548961 19.8095238,5.95548961 19.5,6.13353116 C19.1904762,6.3115727 19,6.64391691 19,7 C19,7.35608309 19.1904762,7.6884273 19.5,7.86646884 Z" id="路径"></path>
                        <path d="M9.5,10.8664688 C9.80952381,11.0445104 10.1904762,11.0445104 10.5,10.8664688 C10.8095238,10.6884273 11,10.3560831 11,10 C11,9.64391691 10.8095238,9.3115727 10.5,9.13353116 C10.1904762,8.95548961 9.80952381,8.95548961 9.5,9.13353116 C9.19047619,9.3115727 9,9.64391691 9,10 C9,10.3560831 9.19047619,10.6884273 9.5,10.8664688 Z" id="路径"></path>
                        <path d="M15,11 C14.4444444,11 14,10.5555556 14,10 C14,9.44444444 14.4545455,9 15,9 C15.5555556,9 16,9.45454545 16,10 C16,10.5555556 15.5555556,11 15,11 L15,11 Z M15,9.3030303 C14.6144928,9.3030303 14.3,9.61752306 14.3,10.0030303 C14.3,10.3885375 14.6144928,10.7030303 15,10.7030303 C15.3855072,10.7030303 15.7,10.3885375 15.7,10.0030303 C15.7,9.61752306 15.3855072,9.3030303 15,9.3030303 L15,9.3030303 Z M19,10 C19,9.44444444 19.4545455,9 20,9 C20.5555556,9 21,9.45454545 21,10 C21,10.5555556 20.5555556,11 20,11 C19.4444444,11 19,10.5555556 19,10 Z M19.33,10.0030303 C19.33,10.3885375 19.6444928,10.7030303 20.03,10.7030303 C20.4155072,10.7030303 20.73,10.3885375 20.73,10.0030303 C20.73,9.61752306 20.4155072,9.3030303 20.03,9.3030303 C19.6444928,9.3030303 19.33,9.61752306 19.33,10.0030303 Z" id="形状"></path>
                        <path d="M20,33 L20,35 L16,35 L16,33 L20,33 Z M19.5,33.5 L16.5,33.5 L16.5,34.5 L19.5,34.5 L19.5,33.5 Z" id="形状结合"></path>
                        <path d="M20,30 L20,32 L16,32 L16,30 L20,30 Z M19.5,30.5 L16.5,30.5 L16.5,31.5 L19.5,31.5 L19.5,30.5 Z" id="形状结合备份-4"></path>
                        <path d="M14,33 L14,35 L10,35 L10,33 L14,33 Z M13.5,33.5 L10.5,33.5 L10.5,34.5 L13.5,34.5 L13.5,33.5 Z" id="形状结合备份-6"></path>
                        <path d="M14,30 L14,32 L10,32 L10,30 L14,30 Z M13.5,30.5 L10.5,30.5 L10.5,31.5 L13.5,31.5 L13.5,30.5 Z" id="形状结合备份-5"></path>
                    </g>
                </g>
            </g>
        </g>
    </g>
</svg>