<?xml version="1.0" encoding="UTF-8"?>
<svg width="57px" height="60px" viewBox="0 0 57 60" version="1.1" xmlns="http://www.w3.org/2000/svg" xmlns:xlink="http://www.w3.org/1999/xlink">
    <title>制冷模式</title>
    <g id="中阳" stroke="none" stroke-width="1" fill="none" fill-rule="evenodd">
        <g id="制冷-空调1" transform="translate(-1419.000000, -224.000000)" fill="#3CB2FF">
            <g id="编组-3" transform="translate(176.000000, 94.000000)">
                <g id="分组-2" transform="translate(884.000000, 130.000000)">
                    <path d="M388.177328,0 C389.281897,-2.02906125e-16 390.177328,0.8954305 390.177328,2 L390.177046,8.303 L394.998396,3.48223305 C395.779444,2.70118446 397.045774,2.70118446 397.826823,3.48223305 L398.180376,3.83578644 C398.961425,4.61683502 398.961425,5.88316498 398.180376,6.66421356 L390.177046,14.667 L390.177,26.102 L400.080955,20.3846992 L403.010188,9.45270646 C403.296071,8.38577426 404.392745,7.75260928 405.459677,8.0384929 L405.94264,8.16790242 C407.009572,8.45378605 407.642737,9.55045996 407.356854,10.6173922 L405.59234,17.2026992 L411.051039,14.0514428 C412.007624,13.4991581 413.230805,13.8269084 413.78309,14.7834936 L414.03309,15.2165064 C414.585375,16.1730916 414.257624,17.3962724 413.301039,17.9485572 L407.84234,21.0998135 L414.427922,22.8648409 C415.494854,23.1507245 416.128019,24.2473984 415.842135,25.3143306 L415.712726,25.7972935 C415.426842,26.8642257 414.330168,27.4973907 413.263236,27.2115071 L402.330955,24.2818135 L392.427,29.999 L402.331236,35.7176992 L413.263236,32.7884929 C414.330168,32.5026093 415.426842,33.1357743 415.712726,34.2027065 L415.842135,34.6856694 C416.128019,35.7526016 415.494854,36.8492755 414.427922,37.1351591 L407.842622,38.8996992 L413.301039,42.0514428 C414.257624,42.6037276 414.585375,43.8269084 414.03309,44.7834936 L413.78309,45.2165064 C413.230805,46.1730916 412.007624,46.5008419 411.051039,45.9485572 L405.592622,42.7968135 L407.356854,49.3826078 C407.642737,50.44954 407.009572,51.546214 405.94264,51.8320976 L405.459677,51.9615071 C404.392745,52.2473907 403.296071,51.6142257 403.010188,50.5472935 L400.081236,39.6148135 L390.177,33.896 L390.177046,45.332 L398.180376,53.3357864 C398.920317,54.0757272 398.959261,55.2512114 398.297209,56.0369988 L398.180376,56.1642136 L397.826823,56.517767 C397.086882,57.2577077 395.911398,57.296652 395.12561,56.6345997 L394.998396,56.517767 L390.177046,51.696 L390.177328,58 C390.177328,59.1045695 389.281897,60 388.177328,60 L387.677328,60 C386.572758,60 385.677328,59.1045695 385.677328,58 L385.677046,51.696 L380.85626,56.517767 C380.116319,57.2577077 378.940835,57.296652 378.155048,56.6345997 L378.027833,56.517767 L377.67428,56.1642136 C376.934339,55.4242728 376.895395,54.2487886 377.557447,53.4630012 L377.67428,53.3357864 L385.677046,45.332 L385.677,33.896 L375.774286,39.6143135 L372.844468,50.5472935 C372.573631,51.5580714 371.575104,52.1795402 370.563566,51.9990798 L370.394978,51.9615071 L369.912016,51.8320976 C368.89358,51.5592087 368.270375,50.5475625 368.464469,49.528204 L368.497802,49.3826078 L370.2629,42.7963135 L364.803617,45.9485572 C363.847031,46.5008419 362.623851,46.1730916 362.071566,45.2165064 L361.821566,44.7834936 C361.269281,43.8269084 361.597031,42.6037276 362.553617,42.0514428 L368.0129,38.8991992 L361.426734,37.1351591 C360.415956,36.864322 359.794487,35.865795 359.974948,34.854257 L360.012521,34.6856694 L360.14193,34.2027065 C360.414819,33.1842712 361.426465,32.5610659 362.445824,32.7551598 L362.59142,32.7884929 L373.524286,35.7171992 L383.427,29.999 L373.524567,24.2823135 L362.59142,27.2115071 C361.580642,27.4823442 360.543171,26.9283288 360.193685,25.9620811 L360.14193,25.7972935 L360.012521,25.3143306 C359.739632,24.2958953 360.30414,23.2503607 361.283978,22.9087716 L361.426734,22.8648409 L368.013181,21.1003135 L362.553617,17.9485572 C361.597031,17.3962724 361.269281,16.1730916 361.821566,15.2165064 L362.071566,14.7834936 C362.623851,13.8269084 363.847031,13.4991581 364.803617,14.0514428 L370.263181,17.2031992 L368.497802,10.6173922 C368.226965,9.60661429 368.78098,8.56914302 369.747228,8.21965727 L369.912016,8.16790242 L370.394978,8.0384929 C371.413414,7.76560399 372.458948,8.33011267 372.800537,9.30994992 L372.844468,9.45270646 L375.774567,20.3851992 L385.677,26.102 L385.677046,14.667 L377.67428,6.66421356 C376.893231,5.88316498 376.893231,4.61683502 377.67428,3.83578644 L378.027833,3.48223305 C378.808882,2.70118446 380.075211,2.70118446 380.85626,3.48223305 L385.677046,8.303 L385.677328,2 C385.677328,0.8954305 386.572758,2.02906125e-16 387.677328,0 L388.177328,0 Z" id="制冷模式"></path>
                </g>
            </g>
        </g>
    </g>
</svg>