<?xml version="1.0" encoding="utf-8"?>
<!-- Generator: Adobe Illustrator 21.0.0, SVG Export Plug-In . SVG Version: 6.00 Build 0)  -->
<svg version="1.1" id="图层_1" xmlns="http://www.w3.org/2000/svg" xmlns:xlink="http://www.w3.org/1999/xlink" x="0px" y="0px"
	 viewBox="0 0 16 16" style="enable-background:new 0 0 16 16;" xml:space="preserve">
<style type="text/css">
	.st0{fill:#CFCD11;}
</style>
<path class="st0" d="M8,0C3.6,0,0,3.6,0,8s3.6,8,8,8s8-3.6,8-8S12.4,0,8,0z M8,13.5c-0.6,0-1-0.4-1-1s0.4-1,1-1s1,0.4,1,1
	S8.6,13.5,8,13.5z M9,9.5c0,0.6-0.4,1-1,1s-1-0.4-1-1v-6c0-0.5,0.4-1,1-1s1,0.5,1,1V9.5z"/>
</svg>
