<?xml version="1.0" encoding="utf-8"?>
<!-- Generator: Adobe Illustrator 21.0.0, SVG Export Plug-In . SVG Version: 6.00 Build 0)  -->
<svg version="1.1" id="图层_1" xmlns="http://www.w3.org/2000/svg" xmlns:xlink="http://www.w3.org/1999/xlink" x="0px" y="0px"
	 viewBox="0 0 16 16" style="enable-background:new 0 0 16 16;" xml:space="preserve">
<style type="text/css">
	.st0{fill:#FFA63A;}
</style>
<path class="st0" d="M8,0C3.6,0,0,3.6,0,8s3.6,8,8,8s8-3.6,8-8S12.4,0,8,0z M8,13c-0.8,0-1.5-0.6-1.5-1.4h3C9.5,12.4,8.8,13,8,13z
	 M12.1,11H3.9c-0.3,0-0.5-0.4-0.3-0.6l1.1-1.2C4.9,9,5,8.8,5,8.6V6.8c0-1.5,1-2.8,2.5-3V3.5C7.5,3.2,7.7,3,8,3s0.5,0.2,0.5,0.5v0.3
	C10,4.1,11,5.4,11,6.9v1.7c0,0.2,0.1,0.4,0.3,0.6l1.1,1.2C12.6,10.6,12.4,11,12.1,11z"/>
</svg>
