<?xml version="1.0" encoding="utf-8"?>
<!-- Generator: Adobe Illustrator 21.0.0, SVG Export Plug-In . SVG Version: 6.00 Build 0)  -->
<svg version="1.1" id="图层_1" xmlns="http://www.w3.org/2000/svg" xmlns:xlink="http://www.w3.org/1999/xlink" x="0px" y="0px"
	 viewBox="0 0 16 16" style="enable-background:new 0 0 16 16;" xml:space="preserve">
<style type="text/css">
	.st0{fill:#99B1FF;}
</style>
<path class="st0" d="M8,0C3.6,0,0,3.6,0,8s3.6,8,8,8s8-3.6,8-8S12.4,0,8,0z M9.2,11.1c-0.6,0.8-1.1,1.4-2.1,1.4
	c-0.7-0.1-0.9-0.5-0.8-1l1.2-3.9c0-0.1,0-0.2-0.1-0.3C7.3,7.3,7.1,7.4,7,7.6L6.3,8.4c0-0.2,0-0.4,0-0.4c0.6-0.8,1.5-1.4,2.2-1.4
	C9,6.6,9.3,7,9.2,7.5L8,11.4c0,0.1,0,0.2,0.1,0.2c0.1,0,0.3-0.1,0.5-0.3l0.8-0.9C9.2,10.7,9.2,11,9.2,11.1z M8.8,5.5
	c-0.6,0-1-0.4-1-1s0.4-1,1-1c0.6,0,1,0.4,1,1C9.8,5.2,9.3,5.5,8.8,5.5z"/>
</svg>
