<?xml version="1.0" encoding="UTF-8"?>
<svg width="20px" height="20px" viewBox="0 0 20 20" version="1.1" xmlns="http://www.w3.org/2000/svg" xmlns:xlink="http://www.w3.org/1999/xlink">
    <title>声光</title>
    <g id="页面-1" stroke="none" stroke-width="1" fill="none" fill-rule="evenodd">
        <g id="监控管理-机房-布局图备份" transform="translate(-1561.000000, -22.000000)" fill="#8B9ED4" fill-rule="nonzero">
            <g id="Top-Bar" transform="translate(160.000000, 0.000000)">
                <path d="M1411,25 C1406.93582,25.0040228 1403.50457,28.3182973 1403.5,32 L1403.5,38 C1403.5,38.5522847 1403.94772,39 1404.5,39 L1417.5,39 C1418.05228,39 1418.5,38.5522847 1418.5,38 L1418.5,32 L1418.5,32 C1418.49469,28.1808005 1415.21596,25.0047008 1411,25 Z M1409.5,37 L1409.5,33 C1409.5,32.4477153 1409.05228,32 1408.5,32 C1407.94772,32 1407.5,32.4477153 1407.5,33 L1407.5,37 L1407.5,37 L1405.5,37 L1405.5,32.5 C1405.5,29.8244334 1407.59091,27 1411,27 C1414.40909,27 1416.5,29.8244334 1416.5,32.5 L1416.5,37 L1409.5,37 Z M1402,40 L1420,40 C1420.55228,40 1421,40.4477153 1421,41 C1421,41.5522847 1420.55228,42 1420,42 L1402,42 C1401.44772,42 1401,41.5522847 1401,41 C1401,40.4477153 1401.44772,40 1402,40 Z M1410.16667,22 L1411.83333,22 L1411.83333,24.5 L1410.16667,24.5 L1410.16667,22 Z M1417.83178,24.2567881 L1419.10852,25.3281008 L1417.50155,27.2432119 L1416.22481,26.1718992 L1417.83178,24.2567881 Z M1404.16822,24.2567881 L1402.89148,25.3281008 L1404.49845,27.2432119 L1405.77519,26.1718992 L1404.16822,24.2567881 Z" id="声光"></path>
            </g>
        </g>
    </g>
</svg>