<?xml version="1.0" encoding="UTF-8"?>
<svg width="20px" height="18px" viewBox="0 0 20 18" version="1.1" xmlns="http://www.w3.org/2000/svg" xmlns:xlink="http://www.w3.org/1999/xlink">
    <title>换肤</title>
    <g id="页面-1" stroke="none" stroke-width="1" fill="none" fill-rule="evenodd">
        <g id="监控管理-机房-布局图备份" transform="translate(-1387.000000, -23.000000)" fill="#8B9ED4" fill-rule="nonzero">
            <g id="Top-Bar" transform="translate(160.000000, 0.000000)">
                <path d="M1242.5,23 C1242.81557,23 1242.98681,23.1060096 1243.2004,23.3180288 L1246.60656,27.9115385 C1247.09617,28.3961538 1247.12882,29.1823077 1246.70448,29.7352718 L1244.67213,31.8923077 C1244.44262,32.1346154 1244.14754,32.2730769 1243.81967,32.2730769 C1243.70726,32.2730769 1243.43404,32.1820513 1243,32 L1243,39 C1243,39.9545455 1242.08884,40.9090909 1241.13627,40.9938956 L1241,41 L1233,41 C1232.04545,41 1231.09091,40.088843 1231.0061,39.1362697 L1231,39 L1231,32 C1230.65027,32.1820513 1230.37705,32.2730769 1230.18033,32.2730769 C1229.9274,32.2730769 1229.65038,32.1713501 1229.43187,31.989695 L1227.39344,29.85 C1226.90383,29.3653846 1226.87118,28.5792308 1227.29552,28.0262667 L1230.87357,23.2512821 C1230.99825,23.1076923 1231.10713,23.025641 1231.36052,23.0051282 L1232.5,23 C1232.92623,23 1233.32787,23.2423077 1233.52459,23.6576923 C1234.21311,24.6961538 1235.52459,25.5 1237,25.5 C1238.39344,25.5 1239.57863,24.8055556 1240.28968,23.8329594 L1240.40984,23.6576923 C1240.64299,23.2884615 1240.96033,23.0559829 1241.35036,23.0088794 L1242.5,23 Z M1241,28.9923187 C1241,28.3307729 1241.87333,28.697 1243.62,30.091 L1244.803,28.836 L1241.96,25.003 L1241.91,25.004 L1241.90422,25.0133321 C1240.83099,26.481317 1239.13388,27.4161196 1237.25701,27.4946317 L1237,27.5 C1235.08964,27.5 1233.28101,26.5882097 1232.14917,25.163777 L1232.043,25.024 L1229.188,28.835 L1230.368,30.073 C1232.12267,28.691 1233,28.3333333 1233,29 C1233,29.6666667 1233,33 1233,39 L1241,38.998 C1241,32.9890916 1241,29.6538645 1241,28.9923187 Z" id="换肤"></path>
            </g>
        </g>
    </g>
</svg>