<?xml version="1.0" encoding="UTF-8"?>
<svg width="24px" height="52px" viewBox="0 0 24 52" version="1.1" xmlns="http://www.w3.org/2000/svg" xmlns:xlink="http://www.w3.org/1999/xlink">
    <title>温湿度</title>
    <g id="页面-1" stroke="none" stroke-width="1" fill="none" fill-rule="evenodd">
        <g id="监控管理-设备状态" transform="translate(-1366.000000, -175.000000)" fill="#8B9ED4">
            <g id="编组-2" transform="translate(176.000000, 80.000000)">
                <g id="编组-6" transform="translate(88.000000, 90.000000)">
                    <g id="温湿度" transform="translate(1102.000000, 5.000000)">
                        <path d="M8.9998,2 C6.7938,2 4.9998,3.794 4.9998,6 L4.9998,37.194 L4.6178,37.494 C2.9558,38.798 1.9998,40.804 1.9998,43 C1.9998,46.86 5.1398,50 8.9998,50 C12.8598,50 15.9998,46.86 15.9998,43 C15.9998,40.804 15.0458,38.798 13.3818,37.494 L12.9998,37.194 L12.9998,6 C12.9998,3.794 11.2078,2 8.9998,2 M8.9998,52 C4.0378,52 -0.0002,47.962 -0.0002,43 C-0.0002,40.36 1.0878,37.922 2.9998,36.238 L2.9998,6 C2.9998,2.692 5.6918,0 8.9998,0 C12.3078,0 14.9998,2.692 14.9998,6 L14.9998,36.238 C16.9138,37.922 17.9998,40.36 17.9998,43 C17.9998,47.962 13.9618,52 8.9998,52" id="Fill-3"></path>
                        <path d="M8.9998,39 C11.2078,39 12.9998,40.794 12.9998,43 C12.9998,45.206 11.2078,47 8.9998,47 C6.7938,47 4.9998,45.206 4.9998,43 C4.9998,40.794 6.7938,39 8.9998,39 Z M11.4998,43 L10.4998,43 C10.4998,43.828 9.8278,44.5 8.9998,44.5 L8.9998,44.5 L8.9998,45.5 C10.3778,45.5 11.4998,44.378 11.4998,43 L11.4998,43 Z" id="形状结合"></path>
                        <path d="M10.9998,41 L6.9998,41 L6.9998,25 C6.9998,23.894 7.8958,23 8.9998,23 C10.1058,23 10.9998,23.894 10.9998,25 L10.9998,41 Z" id="Fill-7"></path>
                        <polygon id="Fill-9" points="16 10 24 10 24 8 16 8"></polygon>
                        <polygon id="Fill-11" points="16 14 20 14 20 12 16 12"></polygon>
                        <polygon id="Fill-12" points="16 18 20 18 20 16 16 16"></polygon>
                        <polygon id="Fill-13" points="16 22 24 22 24 20 16 20"></polygon>
                        <polygon id="Fill-14" points="16 34 24 34 24 32 16 32"></polygon>
                        <polygon id="Fill-15" points="16 26 20 26 20 24 16 24"></polygon>
                        <polygon id="Fill-16" points="16 30 20 30 20 28 16 28"></polygon>
                    </g>
                </g>
            </g>
        </g>
    </g>
</svg>