<?xml version="1.0" standalone="no"?><!DOCTYPE svg PUBLIC "-//W3C//DTD SVG 1.1//EN" "http://www.w3.org/Graphics/SVG/1.1/DTD/svg11.dtd"><svg t="1603434532534" class="icon" viewBox="0 0 1024 1024" version="1.1" xmlns="http://www.w3.org/2000/svg" p-id="3777" xmlns:xlink="http://www.w3.org/1999/xlink" width="200" height="200"><defs><style type="text/css"></style></defs><path d="M512.9 281.3m-215.5 0a215.5 215.5 0 1 0 431 0 215.5 215.5 0 1 0-431 0Z" fill="#555555" p-id="3778"></path><path d="M878.8 721.3c-8.1-132.6-79.2-237.2-169.2-236.1-5.9 0-10.9 1.9-15.1 4.2-86.4 48.8-259.6 56.5-365.7 0-5.2-2.8-10.4-4.2-15.2-4.2-82.4 0.2-157.2 106.7-169.2 236.1-10.2 131.5-0.5 236.7 169.2 236.1h396c153.1 2 183.7-101.1 169.2-236.1z" fill="#555555" p-id="3779"></path></svg>