<?xml version="1.0" encoding="UTF-8"?>
<svg width="58px" height="60px" viewBox="0 0 58 60" version="1.1" xmlns="http://www.w3.org/2000/svg" xmlns:xlink="http://www.w3.org/1999/xlink">
    <title>空调</title>
    <g id="页面-1" stroke="none" stroke-width="1" fill="none" fill-rule="evenodd">
        <g id="监控管理-设备状态" transform="translate(-1139.000000, -171.000000)" fill="#8B9ED4">
            <g id="编组-2" transform="translate(176.000000, 80.000000)">
                <g id="编组-6" transform="translate(88.000000, 90.000000)">
                    <path d="M903.625575,1 C904.17786,1 904.625575,1.44771525 904.625575,2 L904.625293,10.071 L911.403749,3.29289322 C911.794274,2.90236893 912.427439,2.90236893 912.817963,3.29289322 C913.208487,3.68341751 913.208487,4.31658249 912.817963,4.70710678 L904.625293,12.899 L904.625,29.267 L918.80136,21.0832309 L921.799694,9.89271173 C921.942636,9.35924562 922.490973,9.04266313 923.024439,9.18560495 C923.557905,9.32854676 923.874488,9.87688371 923.731546,10.4103498 L921.25048,19.6692309 L928.240311,15.6339746 C928.718604,15.3578322 929.330195,15.5217074 929.606337,16 C929.882479,16.4782926 929.718604,17.089883 929.240311,17.3660254 L922.25048,21.4012817 L931.50972,23.8825434 C932.043187,24.0254852 932.359769,24.5738222 932.216827,25.1072883 C932.073885,25.6407544 931.525548,25.9573369 930.992082,25.8143951 L919.80136,22.8152817 L905.625,30.999 L919.801641,39.1842309 L930.992082,36.1856049 C931.525548,36.0426631 932.073885,36.3592456 932.216827,36.8927117 C932.359769,37.4261778 932.043187,37.9745148 931.50972,38.1174566 L922.250761,40.5982309 L929.240311,44.6339746 C929.718604,44.910117 929.882479,45.5217074 929.606337,46 C929.330195,46.4782926 928.718604,46.6421678 928.240311,46.3660254 L921.250761,42.3302817 L923.731546,51.5896502 C923.874488,52.1231163 923.557905,52.6714532 923.024439,52.8143951 C922.490973,52.9573369 921.942636,52.6407544 921.799694,52.1072883 L918.801641,40.9162817 L904.625,32.731 L904.625293,49.1 L912.817963,57.2928932 C913.178447,57.6533772 913.206176,58.2206082 912.901152,58.6128994 L912.817963,58.7071068 C912.457479,59.0675907 911.890248,59.0953203 911.497957,58.7902954 L911.403749,58.7071068 L904.625293,51.928 L904.625575,60 C904.625575,60.5522847 904.17786,61 903.625575,61 C903.07329,61 902.625575,60.5522847 902.625575,60 L902.625293,51.928 L895.8474,58.7071068 C895.486916,59.0675907 894.919685,59.0953203 894.527394,58.7902954 L894.433187,58.7071068 C894.072703,58.3466228 894.044973,57.7793918 894.349998,57.3871006 L894.433187,57.2928932 L902.625293,49.1 L902.625,32.731 L888.450374,40.9157817 L885.451455,52.1072883 C885.319509,52.5997185 884.842137,52.9073485 884.349891,52.8393348 L884.226711,52.8143951 C883.731349,52.6816634 883.422995,52.1993818 883.495918,51.7040388 L883.519604,51.5896502 L886.001254,42.3297817 L879.010838,46.3660254 C878.532545,46.6421678 877.920955,46.4782926 877.644813,46 C877.36867,45.5217074 877.532545,44.910117 878.010838,44.6339746 L885.001254,40.5977309 L875.741429,38.1174566 C875.248999,37.9855103 874.941369,37.5081386 875.009383,37.015892 L875.034322,36.8927117 C875.167054,36.3973503 875.649336,36.0889958 876.144679,36.1619197 L876.259067,36.1856049 L887.450374,39.1837309 L901.625,30.999 L887.450656,22.8157817 L876.259067,25.8143951 C875.766637,25.9463413 875.261536,25.6867403 875.074314,25.2264354 L875.034322,25.1072883 C874.901591,24.6119269 875.165081,24.1037432 875.630523,23.9192257 L875.741429,23.8825434 L885.001536,21.4017817 L878.010838,17.3660254 C877.532545,17.089883 877.36867,16.4782926 877.644813,16 C877.920955,15.5217074 878.532545,15.3578322 879.010838,15.6339746 L886.001536,19.6697309 L883.519604,10.4103498 C883.387657,9.91791957 883.647258,9.4128183 884.107563,9.22559659 L884.226711,9.18560495 C884.722072,9.05287326 885.230256,9.31636407 885.414773,9.78180563 L885.451455,9.89271173 L888.450656,21.0837309 L902.625,29.267 L902.625293,12.899 L894.433187,4.70710678 C894.042662,4.31658249 894.042662,3.68341751 894.433187,3.29289322 C894.823711,2.90236893 895.456876,2.90236893 895.8474,3.29289322 L902.625293,10.071 L902.625575,2 C902.625575,1.44771525 903.07329,1 903.625575,1 Z" id="空调"></path>
                </g>
            </g>
        </g>
    </g>
</svg>