<?xml version="1.0" encoding="UTF-8"?>
<svg width="24px" height="30px" viewBox="0 0 24 30" version="1.1" xmlns="http://www.w3.org/2000/svg" xmlns:xlink="http://www.w3.org/1999/xlink">
    <title>告警管理</title>
    <g id="页面-1" stroke="none" stroke-width="1" fill="none" fill-rule="evenodd">
        <g id="监控管理-机房-布局图备份" transform="translate(-68.000000, -110.000000)" fill="#8497CA" fill-rule="nonzero">
            <g id="菜单">
                <g id="Main-menu" transform="translate(52.000000, 24.000000)">
                    <path d="M28,86 C29.1045695,86 30,86.8954305 30,88 C30,88.073199 29.9960676,88.141088 29.9884026,88.2040492 C34.2846272,89.0723465 38,92.6593481 38,97 L38,104 L40,111 L32.9577662,111.001082 C32.6751017,114.215342 30.9779937,116 28,116 C25.0219927,116 23.3248828,114.215326 23.0422299,111.001038 L16,111 L18,104 L18,97 C18,92.6510451 21.6656707,89.0586266 26.012195,88.1968298 C26.0037271,88.1374923 26,88.0712625 26,88 C26,86.8954305 26.8954305,86 28,86 Z M30.9537242,111.00102 L25.0462758,111.00102 C25.2581656,113.1048 26.2034465,114 28,114 C29.7965535,114 30.7418344,113.1048 30.9537242,111.00102 Z M28,90 C23.8396474,90 20.1474987,93.1617647 20.004308,96.7822425 L20,97 L20,104.28011 L18.651,109 L37.348,109 L36,104.28011 L36,97 C36,93.3171537 32.1904184,90 28,90 Z" id="告警管理"></path>
                </g>
            </g>
        </g>
    </g>
</svg>