<?xml version="1.0" encoding="UTF-8"?>
<svg width="26px" height="30px" viewBox="0 0 26 30" version="1.1" xmlns="http://www.w3.org/2000/svg" xmlns:xlink="http://www.w3.org/1999/xlink">
    <title>机架管理</title>
    <g id="页面-1" stroke="none" stroke-width="1" fill="none" fill-rule="evenodd">
        <g id="监控管理-机房-布局图备份" transform="translate(-67.000000, -470.000000)" fill="#8497CA" fill-rule="nonzero">
            <g id="菜单">
                <g id="Main-menu" transform="translate(52.000000, 24.000000)">
                    <path d="M39,448 L29,448 L29,474 L39,474 L39,448 Z M27,448 L18,448 C17.4477153,448 17,448.447715 17,449 L17,473 C17,473.552 17.448,474 18,474 L27,474 L27,448 Z M39,446 C40.1045695,446 41,446.895431 41,448 L41,474 C41,475.104569 40.1045695,476 39,476 L17,476 C15.8954305,476 15,475.104569 15,474 L15,448 C15,446.895431 15.8954305,446 17,446 L39,446 Z M22,452 C21.4477153,452 21,451.552285 21,451 C21,450.447715 21.4477153,450 22,450 C22.5522847,450 23,450.447715 23,451 C23,451.552285 22.5522847,452 22,452 Z M22,455 C21.4477153,455 21,454.552285 21,454 C21,453.447715 21.4477153,453 22,453 C22.5522847,453 23,453.447715 23,454 C23,454.552285 22.5522847,455 22,455 Z M22,458 C21.4477153,458 21,457.552285 21,457 C21,456.447715 21.4477153,456 22,456 C22.5522847,456 23,456.447715 23,457 C23,457.552285 22.5522847,458 22,458 Z M21,462 L23,462 C23.5522847,462 24,462.447715 24,463 C24,463.552285 23.5522847,464 23,464 L21,464 C20.4477153,464 20,463.552285 20,463 C20,462.447715 20.4477153,462 21,462 Z M21,470 L23,470 C23.5522847,470 24,470.447715 24,471 C24,471.552285 23.5522847,472 23,472 L21,472 C20.4477153,472 20,471.552285 20,471 C20,470.447715 20.4477153,470 21,470 Z M21,466 L23,466 C23.5522847,466 24,466.447715 24,467 C24,467.552285 23.5522847,468 23,468 L21,468 C20.4477153,468 20,467.552285 20,467 C20,466.447715 20.4477153,466 21,466 Z M33,462 L35,462 C35.5522847,462 36,462.447715 36,463 C36,463.552285 35.5522847,464 35,464 L33,464 C32.4477153,464 32,463.552285 32,463 C32,462.447715 32.4477153,462 33,462 Z M33,470 L35,470 C35.5522847,470 36,470.447715 36,471 C36,471.552285 35.5522847,472 35,472 L33,472 C32.4477153,472 32,471.552285 32,471 C32,470.447715 32.4477153,470 33,470 Z M33,466 L35,466 C35.5522847,466 36,466.447715 36,467 C36,467.552285 35.5522847,468 35,468 L33,468 C32.4477153,468 32,467.552285 32,467 C32,466.447715 32.4477153,466 33,466 Z M34,452 C33.6427344,452.002382 33.3113367,451.813984 33.1306412,451.505774 C32.9499458,451.197563 32.9474045,450.816365 33.1239746,450.505774 C33.3005447,450.195182 33.6294011,450.002382 33.9866667,450 C34.5389514,449.996318 34.9896514,450.441049 34.9933333,450.993333 C34.9970152,451.545618 34.5522847,451.996318 34,452 Z M34,455 C33.4477153,455 33,454.552285 33,454 C33,453.447715 33.4477153,453 34,453 C34.5522847,453 35,453.447715 35,454 C35,454.552285 34.5522847,455 34,455 Z M34,458 C33.4477153,458 33,457.552285 33,457 C33,456.447715 33.4477153,456 34,456 C34.5522847,456 35,456.447715 35,457 C35,457.552285 34.5522847,458 34,458 Z" id="机架管理"></path>
                </g>
            </g>
        </g>
    </g>
</svg>