<?xml version="1.0" encoding="UTF-8"?>
<svg width="30px" height="30px" viewBox="0 0 30 30" version="1.1" xmlns="http://www.w3.org/2000/svg" xmlns:xlink="http://www.w3.org/1999/xlink">
    <title>维护管理</title>
    <g id="页面-1" stroke="none" stroke-width="1" fill="none" fill-rule="evenodd">
        <g id="监控管理-机房-布局图备份" transform="translate(-65.000000, -740.000000)" fill="#8497CA" fill-rule="nonzero">
            <g id="菜单">
                <g id="Main-menu" transform="translate(52.000000, 24.000000)">
                    <path d="M41.3570696,723.605206 L39.8225099,725.145943 C38.1869498,726.788062 35.5261854,726.788062 33.8906253,725.145943 C32.2550652,723.503825 32.2550409,720.832367 33.8906253,719.190224 C33.8906253,719.190224 34.5783913,718.501898 35.425185,717.649536 C36.2719786,716.799322 35.7067118,715.798087 34.1807614,716.035449 C32.6268674,716.279281 31.1331408,716.99786 29.9381595,718.197609 C28.0339377,720.10949 27.3440315,722.783072 27.8576916,725.249497 L14.9901925,738.170765 C13.3546324,739.810735 13.3546324,742.482144 14.9901925,744.124287 C16.6257526,745.766429 19.2865413,745.766405 20.9199613,744.124287 L33.7896005,731.202994 C36.2461753,731.718738 38.9069396,731.026066 40.8111614,729.116357 C42.0061427,727.916585 42.7239924,726.416868 42.9646862,724.856744 C43.201124,723.324675 42.2038876,722.754992 41.3570696,723.605182 L41.3570696,723.605206 Z M18.9426583,742.139055 C18.3967501,742.687152 17.5112635,742.687152 16.9653554,742.139055 C16.4194472,741.590958 16.4194472,740.704069 16.9653554,740.153824 C17.5112635,739.605726 18.3945857,739.605726 18.9426583,740.153824 C19.490731,740.701921 19.4907067,741.590958 18.9426583,742.139055 Z M17.5456519,723.862004 L22.3900247,728.727974 L24.3673277,726.742743 L19.5229548,721.876772 L18.4375589,719.794457 L14.9773273,717.312918 L13,719.298125 L15.4716531,722.77228 L17.5456519,723.862004 Z M33.7595169,734.185188 C33.4865506,733.911152 33.0438073,733.911152 32.7708653,734.185188 L29.8049109,737.163035 C29.5319689,737.437072 29.5319689,737.88159 29.8049109,738.155651 L36.8006927,745.179484 C37.8925091,746.273505 39.6656224,746.273505 40.7552987,745.179484 C41.8470907,744.085439 41.8470907,742.305215 40.7552987,741.209021 L33.7595169,734.185188 Z" id="维护管理"></path>
                </g>
            </g>
        </g>
    </g>
</svg>