<?xml version="1.0" encoding="UTF-8"?>
<svg width="30px" height="24px" viewBox="0 0 30 24" version="1.1" xmlns="http://www.w3.org/2000/svg" xmlns:xlink="http://www.w3.org/1999/xlink">
    <title>监控管理</title>
    <g id="页面-1" stroke="none" stroke-width="1" fill="none" fill-rule="evenodd">
        <g id="监控管理-机房-布局图备份" transform="translate(-65.000000, -24.000000)" fill="#8497CA" fill-rule="nonzero">
            <g id="菜单">
                <g id="Main-menu" transform="translate(52.000000, 24.000000)">
                    <path d="M29.5012642,6 C29.5012642,5.17079059 28.8275954,4.50090525 28.0018078,4.50090525 C27.1723983,4.50090525 26.5023514,5.17079059 26.5023514,6 C26.5023514,6.82920941 27.1723983,7.49909475 28.0018078,7.49909475 C28.8312173,7.49909475 29.5012642,6.82920941 29.5012642,6 Z M38.5052464,14.9981895 C38.5052464,14.1689801 37.8351994,13.4990947 37.00579,13.4990947 C36.1763805,13.4990947 35.5063336,14.1689801 35.5063336,14.9981895 C35.5063336,15.8273989 36.1763805,16.4972988 37.00579,16.4972988 C37.8315776,16.5009053 38.5052464,15.8273989 38.5052464,14.9981895 Z M19.0014475,13.4990947 C18.172038,13.4990947 17.5019911,14.1689801 17.5019911,14.9981895 C17.5019911,15.8273989 18.172038,16.4972842 19.0014475,16.4972842 C19.830857,16.4972842 20.5009039,15.8237779 20.5009039,14.9981895 C20.5009039,14.1726011 19.8272351,13.4990947 19.0014475,13.4990947 Z M20.5733414,7.57513579 C19.9865976,8.16173808 19.9865976,9.11044056 20.5733414,9.69704285 C21.1600852,10.2836451 22.1090166,10.2836451 22.6957604,9.69704285 C23.2825042,9.11044056 23.2825042,8.16173808 22.6957604,7.57513579 C22.1126384,6.98853349 21.1600852,6.9921545 20.5733414,7.57513579 Z M35.4266523,7.57513579 C34.8399085,6.98853349 33.8909771,6.98853349 33.3042333,7.57513579 C32.7174895,8.16173808 32.7174895,9.11044056 33.3042333,9.69704285 C33.8909771,10.2836451 34.8399085,10.2836451 35.4266523,9.69704285 C36.0133961,9.11044056 36.0133961,8.16173808 35.4266523,7.57513579 Z M38.6102808,4.3958962 C35.7779742,1.56065178 32.0112238,0 28.0018078,0 C23.9923918,0 20.2256414,1.56065178 17.3933348,4.3958962 C14.5610283,7.22751961 13,10.9969825 13,15.0054315 C13,18.2969221 14.0648314,21.4146047 16.0097784,24 L18.1503068,21.8563669 C16.7558848,19.8575739 15.9989128,17.4930597 15.9989128,15.0054315 C15.9989128,11.7972239 17.2484598,8.78455039 19.5121319,6.51780326 C21.7794259,4.25105613 24.7928262,3.0018105 27.9981859,3.0018105 C31.2035456,3.0018105 34.2169459,4.25105613 36.4842399,6.51780326 C38.7515339,8.78455039 40.0010809,11.8008449 40.0010809,15.0054315 C40.0010809,17.4930597 39.2404871,19.8575739 37.8460651,21.8563669 L39.9902153,24 C41.9351624,21.4182257 43,18.2969221 43,15.0054315 C43.0036156,10.9969825 41.4425873,7.22751961 38.6102808,4.3958962 L38.6102808,4.3958962 Z M26.0532388,17.6234158 C25.4338982,18.6988533 25.7997076,20.074834 26.8754046,20.6976463 C27.9511015,21.3204587 29.3274142,20.9511165 29.9503767,19.8756789 C30.5733393,18.8002414 32.1271238,11.6053108 32.1271238,11.6053108 C32.1271238,11.6053108 26.6762014,16.5479783 26.0532388,17.6234158 Z" id="监控管理"></path>
                </g>
            </g>
        </g>
    </g>
</svg>