<?xml version="1.0" encoding="UTF-8"?>
<svg width="30px" height="29px" viewBox="0 0 30 29" version="1.1" xmlns="http://www.w3.org/2000/svg" xmlns:xlink="http://www.w3.org/1999/xlink">
    <title>系统管理</title>
    <g id="页面-1" stroke="none" stroke-width="1" fill="none" fill-rule="evenodd">
        <g id="监控管理-机房-布局图备份" transform="translate(-65.000000, -651.000000)" fill="#8497CA" fill-rule="nonzero">
            <g id="菜单">
                <g id="Main-menu" transform="translate(52.000000, 24.000000)">
                    <path d="M38.579256,635.356537 C37.7524791,633.916045 37.7029814,632.174207 38.4411381,630.676382 C37.8178521,630.068425 37.1497543,629.518215 36.4522419,629.038504 L36.4443544,629.049346 L36.3342733,628.974764 C35.3520062,628.313797 34.2956304,627.7717 33.187049,627.359716 L33.1422726,627.343123 L33.1108259,627.331483 C32.7681837,627.206463 32.4267458,627.095056 32.0949189,627 C31.1738696,628.387732 29.6505423,629.212925 27.9992995,629.212925 C26.3487059,629.212925 24.8253786,628.387698 23.9036464,627 C23.5708203,627.095368 23.2293825,627.206878 22.8872214,627.332003 C22.8644543,627.340109 22.8426516,627.348215 22.8208146,627.356252 L22.8112393,627.35982 C21.7028304,627.772136 20.6465589,628.31431 19.6642582,628.975145 L19.5337177,629.062995 C18.8356893,629.529269 18.1740673,630.075216 17.5580474,630.676728 C18.2956518,632.174898 18.2459153,633.916665 17.4192753,635.356578 C16.5941164,636.793466 15.1229713,637.707827 13.4690137,637.817778 C13.1577491,639.059428 13,640.297719 13,641.500156 C13,642.702766 13.1577851,643.941267 13.4690137,645.182873 C15.1227425,645.292409 16.5938876,646.206664 17.4192753,647.643762 C18.2460522,649.084152 18.296031,650.825885 17.5587021,652.323578 C18.1791994,652.92942 18.8456084,653.478697 19.5423976,653.958513 L19.5501473,653.946874 L19.6649471,654.025232 C20.6471312,654.685966 21.7032781,655.228053 22.8115568,655.640284 L22.8492722,655.654245 L22.8876078,655.668378 C23.2329042,655.794438 23.5743387,655.905845 23.9036527,656 C24.8254253,654.612542 26.3488198,653.787386 27.9993394,653.787386 C29.6498321,653.787386 31.173193,654.612542 32.0949588,656 C32.4243408,655.90581 32.7658453,655.794369 33.1114848,655.66824 L33.1489936,655.654383 L33.1873979,655.640145 C34.2955623,655.228022 35.3516218,654.686091 36.3337611,654.025548 L36.4454266,653.950411 L36.4529352,653.960941 C37.1518269,653.480154 37.8196488,652.930188 38.4405565,652.323929 C37.7029858,650.82583 37.7526886,649.083955 38.5793287,647.643808 C39.4047298,646.20671 40.8761507,645.292454 42.5303304,645.182885 C42.8419737,643.939848 43,642.701385 43,641.500169 C43,640.29877 42.8419051,639.060446 42.5302631,637.817791 C40.8760108,637.708166 39.4045932,636.79377 38.579256,635.356537 Z M40.4068935,643.081473 L40.3261582,643.110862 C39.5165679,643.405446 38.7717309,643.832802 38.1124132,644.381045 C37.4287469,644.949439 36.8556448,645.633199 36.4088805,646.413325 C35.9627016,647.193313 35.6622505,648.035481 35.5159003,648.916422 C35.3746482,649.766305 35.3799522,650.630254 35.5315376,651.48427 L35.5465894,651.569171 L35.4781161,651.620863 C34.6797177,652.222954 33.8267992,652.722843 32.9429455,653.106636 L32.8641048,653.140888 L32.7985935,653.084994 C32.1405541,652.523722 31.4005714,652.085667 30.5993506,651.783057 C29.7684393,651.469298 28.8936818,651.310195 27.9993258,651.310195 C27.1049697,651.310195 26.2301786,651.469298 25.3992639,651.783057 C24.5980095,652.085666 23.8580974,652.523685 23.200021,653.084994 L23.1345097,653.140888 L23.0557033,653.106636 C22.171715,652.722809 21.3187595,652.222954 20.5204991,651.620863 L20.4519912,651.569171 L20.4670774,651.48427 C20.6186626,650.630149 20.623967,649.766166 20.4827147,648.916316 C20.3363648,648.035518 20.0359168,647.193347 19.5897345,646.413258 C19.1429366,645.633131 18.5699017,644.949334 17.8865449,644.381011 C17.2272979,643.832764 16.4825652,643.40541 15.6730757,643.110862 L15.5923751,643.081473 L15.5824209,642.99553 C15.5182529,642.440578 15.4883562,641.970495 15.4883562,641.516043 C15.4883562,641.061591 15.518253,640.591507 15.5824209,640.036594 L15.5923751,639.950615 L15.6731104,639.921261 C16.4824619,639.626886 17.2271609,639.199634 17.8865426,638.651217 C18.5698287,638.082962 19.1428972,637.399236 19.5897657,636.61911 C20.035911,635.839088 20.3363587,634.996917 20.4827089,634.115946 C20.623961,633.265995 20.6186567,632.40194 20.4670717,631.547819 L20.4519855,631.462883 L20.5204934,631.411227 C21.3183737,630.809447 22.1713628,630.309419 23.0556639,629.925141 L23.1345047,629.890888 L23.2000503,629.946818 C23.8580224,630.508161 24.5979345,630.94625 25.3992595,631.248789 C26.2300665,631.562479 27.104861,631.721582 27.9993214,631.721582 C28.8937817,631.721582 29.7685392,631.56248 30.5993462,631.248789 C31.4006376,630.946215 32.1405834,630.508161 32.7985891,629.946784 L32.8641004,629.890888 L32.9429412,629.925142 C33.8262768,630.308725 34.6792323,630.808719 35.4781117,631.411228 L35.546585,631.462884 L35.5315332,631.54782 C35.379948,632.401975 35.3746436,633.265996 35.5158959,634.115909 C35.6622458,634.996813 35.9626938,635.838947 36.4089098,636.618829 C36.8556404,637.399023 37.4287425,638.082889 38.1124088,638.65132 C38.7717232,639.199601 39.5165601,639.626955 40.3261538,639.92154 L40.4068892,639.950929 L40.4168089,640.036873 C40.4796337,640.579664 40.5101847,641.063539 40.5101847,641.51601 C40.5101847,641.968413 40.4796335,642.452322 40.4168089,642.995531 L40.4068935,643.081473 Z M24.2451229,637.663068 C23.2423052,638.665886 22.6900396,639.999121 22.6900396,641.417176 C22.6900396,642.835244 23.2423052,644.168408 24.2451229,645.171149 C25.247907,646.173828 26.5811758,646.726094 27.9992641,646.726094 C28.1689321,646.726094 28.3322624,646.704705 28.5052042,646.682075 C28.5446076,646.676943 28.5839763,646.671777 28.6234827,646.666886 L28.6338501,646.665611 L28.644252,646.665921 C28.6583049,646.6663 28.6700156,646.667988 28.6785919,646.669193 L28.6833795,646.669882 C29.3582288,646.668608 29.9068411,646.119201 29.9068411,645.444042 C29.9068411,644.76816 29.3569538,644.218273 28.6810348,644.218273 C28.6304375,644.218273 28.578876,644.225885 28.5242832,644.233945 L28.5072682,644.236459 L28.3816189,644.254852 L28.379449,644.245414 C28.2417099,644.265633 28.1185749,644.275173 27.9992984,644.275173 C26.4235837,644.275173 25.1416696,642.993088 25.1416696,641.417201 C25.1416696,639.841349 26.4235837,638.559263 27.9992984,638.559263 C29.5749794,638.559263 30.8568902,639.841349 30.8568902,641.417201 C30.8568902,641.535755 30.8476594,641.657341 30.8281989,641.792256 L30.8465916,641.795734 L30.8220679,641.93058 C30.8072228,642.012176 30.8002997,642.079238 30.8002997,642.141649 C30.8002997,642.817565 31.350187,643.367455 32.026069,643.367455 C32.7019846,643.367455 33.2519089,642.817568 33.2519089,642.141649 C33.2514761,642.137156 33.2509133,642.132677 33.2502212,642.128216 C33.2480475,642.114031 33.2466333,642.099739 33.2459846,642.085403 L33.2456057,642.074278 C33.25153,642.028055 33.2562143,641.992888 33.2608641,641.957756 C33.2853878,641.773243 33.3085338,641.59896 33.3085338,641.417271 C33.3085338,639.999203 32.7562682,638.665971 31.7534169,637.663163 C30.7505655,636.660241 29.4173304,636.107976 27.9992757,636.107976 C26.5811623,636.107976 25.2479271,636.66025 24.2451229,637.663068 Z" id="系统管理"></path>
                </g>
            </g>
        </g>
    </g>
</svg>