<?xml version="1.0" encoding="UTF-8"?>
<svg width="30px" height="30px" viewBox="0 0 30 30" version="1.1" xmlns="http://www.w3.org/2000/svg" xmlns:xlink="http://www.w3.org/1999/xlink">
    <title>报表管理</title>
    <g id="页面-1" stroke="none" stroke-width="1" fill="none" fill-rule="evenodd">
        <g id="监控管理-机房-布局图备份" transform="translate(-65.000000, -560.000000)" fill="#8497CA" fill-rule="nonzero">
            <g id="菜单">
                <g id="Main-menu" transform="translate(52.000000, 24.000000)">
                    <path d="M43,557.818032 L43,539.148406 C43,538.516752 42.5178514,538 41.9284945,538 L29,538 L29,536 L27,536 L27,538 L14.0715055,538 C13.4821486,538 13,538.516752 13,539.148406 L13,557.818032 C13,558.449686 13.4106432,559 14,559 L27,559 L27,561 L21.8124452,563.990382 L22.8839122,566 L27.7052831,562.985717 L28.348148,562.985717 L33.1697111,566 L34.2410628,563.990382 L29,561 L29,559 L42,559 C42.5893568,558.999959 43,558.449728 43,557.818032 Z M15,540 L41,540 L41,557 L15,557 L15,540 Z M37.3214247,542.890026 L38.7141704,544.641166 L28.1071698,554.34451 L22.6427803,549.40663 L18.6785753,552.966381 L17.3124683,551.215241 L22.6696111,546.421062 L28.1340006,551.358777 L37.3214247,542.890026 Z" id="报表管理"></path>
                </g>
            </g>
        </g>
    </g>
</svg>