<?xml version="1.0" encoding="UTF-8"?>
<svg width="26px" height="30px" viewBox="0 0 26 30" version="1.1" xmlns="http://www.w3.org/2000/svg" xmlns:xlink="http://www.w3.org/1999/xlink">
    <title>能效管理</title>
    <g id="页面-1" stroke="none" stroke-width="1" fill="none" fill-rule="evenodd">
        <g id="监控管理-机房-布局图备份" transform="translate(-67.000000, -200.000000)" fill="#8497CA" fill-rule="nonzero">
            <g id="菜单">
                <g id="Main-menu" transform="translate(52.000000, 24.000000)">
                    <path d="M28.9214009,176.251821 L40.064258,182.804693 C40.6428973,183.144978 41,183.77826 41,184.464126 L41,197.535874 C41,198.22174 40.6428973,198.855022 40.064258,199.195307 L28.9214009,205.748179 C28.3504545,206.08394 27.6495455,206.08394 27.0785991,205.748179 L15.935742,199.195307 C15.3571027,198.855022 15,198.22174 15,197.535874 L15,184.464126 C15,183.77826 15.3571027,183.144978 15.935742,182.804693 L27.0785991,176.251821 C27.6495455,175.91606 28.3504545,175.91606 28.9214009,176.251821 Z M28,178.029 L17,184.498 L17,197.501 L28,203.97 L39,197.5 L39,184.499 L28,178.029 Z M28,191 L33,194 L23,200 L28,191 Z M33,182 L28,191 L23,188 L33,182 Z" id="能效管理"></path>
                </g>
            </g>
        </g>
    </g>
</svg>