<?xml version="1.0" encoding="UTF-8"?>
<svg width="48px" height="60px" viewBox="0 0 48 60" version="1.1" xmlns="http://www.w3.org/2000/svg" xmlns:xlink="http://www.w3.org/1999/xlink">
    <title>除湿模式</title>
    <g id="中阳" stroke="none" stroke-width="1" fill="none" fill-rule="evenodd">
        <g id="制冷-空调1" transform="translate(-1774.000000, -224.000000)" fill="#838FA3" fill-rule="nonzero">
            <g id="编组-3" transform="translate(176.000000, 94.000000)">
                <g id="分组-2" transform="translate(884.000000, 130.000000)">
                    <g id="除湿模式" transform="translate(714.000000, 0.000000)">
                        <path d="M42.1194215,25.9080617 C42.97543,25.4425293 44.0463581,25.7594726 44.5116169,26.6157134 C44.6851188,26.9350566 44.809724,27.1693405 44.8870555,27.316165 L44.8870555,27.316165 L44.9387039,27.396989 C46.9414197,30.7318107 48,34.5609649 48,38.4705196 L48,38.4705196 L47.9977421,38.6561678 C47.9992238,38.6857445 48,38.7155329 48,38.7454624 C48,38.9089458 47.9945671,39.0712292 47.9851829,39.2324538 C47.7963699,44.6974304 45.5813454,49.8079105 41.6968502,53.694171 C37.6322206,57.7605032 32.2280491,60 26.4797667,60 C22.1856122,60 18.039206,58.7380859 14.488732,56.3506352 C13.6802088,55.8069611 13.46536,54.7104363 14.008797,53.9015605 C14.5522341,53.0926141 15.6482101,52.8777421 16.4568038,53.4213456 C19.4233406,55.4161115 22.8892863,56.4705654 26.4798373,56.4705654 C31.2857483,56.4705654 35.8039947,54.5982003 39.2022753,51.1984372 C40.5970641,49.8031104 41.7340342,48.2187473 42.5906073,46.503442 C41.700872,46.8320324 40.7396616,47.0116807 39.7372453,47.0116807 C37.0797521,47.0116807 34.7116876,45.749696 33.1992082,43.7936833 C32.9634037,44.0835206 32.7065023,44.3612871 32.4282219,44.6246535 C30.8254283,46.141675 28.6598649,47.0116807 26.4866107,47.0116807 C24.7119382,47.0116807 22.9925124,46.4617948 21.514042,45.4215998 C20.717161,44.8609138 20.5255256,43.7601537 21.0859671,42.9629251 C21.6464086,42.1656964 22.7467592,41.974048 23.5435697,42.5346635 C24.412067,43.1457498 25.4572414,43.4823167 26.4866107,43.4823167 C27.7673779,43.4823167 29.0492741,42.9641956 30.0037109,42.0608722 C30.8902005,41.2217138 31.4072489,40.1508833 31.4797118,39.0203348 C31.4766779,38.9289931 31.4746317,38.8375101 31.4746317,38.7454625 C31.4746317,37.7707738 32.2643863,36.9807452 33.2385794,36.9807452 L33.2385794,36.9807452 L33.2533966,36.9807452 C34.2275897,36.9807452 35.0173444,37.7707738 35.0173444,38.7454625 C35.0173444,38.8399808 35.015016,38.934146 35.0116998,39.0281702 C35.1584602,41.5089392 37.221503,43.4823167 39.7373159,43.4823167 C42.2510826,43.4823167 44.3127142,41.5121157 44.4625086,39.0343114 C44.4682944,38.8468278 44.4721751,38.6589914 44.4721751,38.4705195 C44.4721751,35.2584517 43.618001,32.1130196 42.0013076,29.3616841 C41.9435206,29.2841777 41.8906728,29.2015183 41.8450218,29.1127178 C41.8390244,29.101 41.695439,28.8227394 41.4120784,28.3013007 C40.9468196,27.4449893 41.2634835,26.3735236 42.1194215,25.9080617 Z M46.9341716,6.33622946 L47.035889,6.40284675 C47.1971725,6.4849439 47.3484762,6.59346437 47.483375,6.72840816 C47.8594936,7.10472939 48.0302289,7.60872924 47.9955809,8.10097888 C48.0315915,8.65339473 47.8650484,9.21694792 47.4954457,9.67010664 L47.3409903,9.84099026 L3.84099026,53.3409903 C3.52262806,53.6593525 3.13259742,53.862366 2.722832,53.950031 C2.43214086,54.1381469 2.09805313,54.2324805 1.76396539,54.2324805 C1.31253588,54.2324805 0.861035836,54.0602441 0.516642642,53.7156301 C0.0869136554,53.2857136 -0.0747378629,52.689161 0.0316880869,52.1338773 C-0.0749308614,51.5094512 0.082285893,50.8476239 0.504554334,50.3298934 L0.659009742,50.1590097 L44.1590097,6.65900974 C44.9121637,5.90585575 46.0664176,5.79826232 46.9341716,6.33622946 Z M26.5192,0.000326487107 L26.5395295,0.00102355743 C26.5561811,0.00158823596 26.5727622,0.00243532273 26.5893433,0.00342354464 L26.5893433,0.00342354464 L26.6189777,0.00554119258 L26.6189777,0.00554119258 L26.6986375,0.0135883099 L26.6986375,0.0135883099 L26.7666553,0.0234001684 L26.7666553,0.0234001684 L26.779003,0.0255178164 C26.8033455,0.0296825447 26.8276174,0.0343413839 26.8518188,0.0395649707 L26.8518188,0.0395649707 C26.8850515,0.0469061365 26.9098173,0.0529062424 26.9345126,0.0594709579 L26.9345126,0.0594709579 C26.9666164,0.068223958 26.9905356,0.0752122169 27.0144547,0.0828357908 C27.0184765,0.084106421 27.0224278,0.0854475497 27.026379,0.0867181799 C27.048393,0.0938476429 27.070266,0.101471217 27.0920684,0.109518334 L27.0920684,0.109518334 L27.1116835,0.117000704 C27.1303813,0.124200804 27.1490792,0.131612606 27.1676359,0.139518519 C27.1780785,0.143895019 27.1884505,0.148624426 27.1988225,0.153212698 C27.2131458,0.159636209 27.227469,0.16605979 27.2417217,0.172906913 C27.2570327,0.18017758 27.2720616,0.187871722 27.287161,0.1956365 L27.3148197,0.209965994 C27.3354932,0.221048413 27.3558844,0.232695512 27.3761345,0.244625018 C27.3797329,0.246813302 27.3834019,0.248860383 27.387071,0.251048598 C27.5067371,0.322766703 27.6188537,0.409520184 27.7207393,0.510673795 L27.7207393,0.510673795 L27.7405661,0.530156308 L27.7405661,0.530156308 L27.7633563,0.554509432 C27.7771856,0.569121264 27.7909444,0.583733166 27.8042093,0.598768543 L27.8042093,0.598768543 C27.848308,0.649168895 27.8861976,0.697522166 27.9213354,0.747428339 C29.3421601,2.74438242 30.73836,4.74648952 32.0711989,6.69826684 C32.6207745,7.50297795 32.4141104,8.60105563 31.6097502,9.15087096 C31.305434,9.35889581 30.9589946,9.45863766 30.6162948,9.45863766 C30.0532426,9.45863766 29.499857,9.18948294 29.1582156,8.68922088 C28.2792756,7.40203611 27.3719715,6.09247466 26.448439,4.77705438 C15.3684479,19.9193171 11.1926897,28.9463403 11.1501432,29.0395173 C11.0965898,29.1567652 11.0313943,29.2650482 10.9572379,29.3642253 C9.99694471,30.9984947 9.30505387,32.7627885 8.90160373,34.6116475 C8.72146936,35.4370412 7.99112439,36.0003389 7.17992011,36.0003389 C7.05524429,36.0003389 6.92880449,35.9871388 6.80201194,35.9593974 C5.8501857,35.7515137 5.24712724,34.8110605 5.45463871,33.8590311 C5.95263643,31.5773222 6.81598299,29.4031904 8.0208299,27.3970598 C8.0236522,27.3923303 8.02675671,27.3878833 8.02964962,27.3832244 C8.73268864,25.8969795 13.4560469,16.2846349 25.0607065,0.716157662 C25.0971143,0.666957303 25.1360623,0.619309914 25.1779737,0.57356847 C25.1791027,0.572368476 25.180161,0.571027279 25.1812899,0.569827285 C25.194837,0.555144816 25.2088781,0.54088589 25.2229896,0.526556396 L25.2229896,0.526556396 L25.2464149,0.502626816 C25.2529767,0.496273803 25.2598209,0.490061994 25.2665239,0.483779618 C25.3706674,0.384884859 25.484689,0.300601933 25.6059074,0.231566223 L25.6059074,0.231566223 L25.6174789,0.225142643 C25.6379407,0.213707248 25.6584731,0.202624828 25.6792171,0.192036519 C25.6885307,0.187236476 25.6979855,0.182718841 25.7074402,0.178130569 C25.7225396,0.170789403 25.737639,0.163518736 25.7528795,0.156601045 C25.767485,0.149965693 25.7822316,0.143753884 25.7969782,0.137542075 C25.8072091,0.133236143 25.8173694,0.12893028 25.8276709,0.124836119 C25.8466509,0.117283181 25.8657721,0.110153718 25.8848933,0.103306595 C25.8912435,0.101047811 25.8975231,0.0987183229 25.9038734,0.0965301073 C25.9261697,0.0887653982 25.9486776,0.0815652986 25.9711856,0.0747888114 C25.9747135,0.0736593854 25.9783119,0.0726005959 25.9818398,0.0715417375 L25.9818398,0.0715417375 L26.0556434,0.0515651137 L26.0556434,0.0515651137 C26.0876061,0.0438003356 26.1130069,0.038223842 26.1385489,0.0332120269 L26.1385489,0.0332120269 C26.1701588,0.0271414223 26.1951363,0.0229060575 26.2201844,0.0191648725 C26.2237123,0.018600125 26.2271696,0.0181060141 26.2306975,0.0176119031 C26.2540522,0.0142942616 26.2774774,0.011470662 26.3009027,0.0090706748 L26.3009027,0.0090706748 L26.3184716,0.00737657024 C26.3392861,0.00547069399 26.3600301,0.00391772457 26.3807742,0.00278829854 C26.3899467,0.00222355103 26.3990486,0.00180007663 26.4082212,0.00144710082 C26.4255079,0.000741218168 26.4428652,0 26.4602224,0 L26.5192,0.000326487107 L26.5192,0.000326487107 Z" id="形状结合"></path>
                    </g>
                </g>
            </g>
        </g>
    </g>
</svg>