<?xml version="1.0" encoding="utf-8"?>
<!-- Generator: Adobe Illustrator 24.0.1, SVG Export Plug-In . SVG Version: 6.00 Build 0)  -->
<svg version="1.1" id="图层_1" xmlns="http://www.w3.org/2000/svg" xmlns:xlink="http://www.w3.org/1999/xlink" x="0px" y="0px"
	 viewBox="0 0 42 60" style="enable-background:new 0 0 42 60;" xml:space="preserve">
<style type="text/css">
	.st0{fill:#8B9ED4;}
	.st1{enable-background:new    ;}
</style>
<g>
	<g>
		<path class="st0" d="M8,3c0-0.6,0.5-1,1-1h24c0.6,0,1,0.4,1,1v54c0,0.5-0.4,1-1,1H9c-0.5,0-1-0.5-1-1V3 M6,3v54c0,1.6,1.4,3,3,3
			h24c1.7,0,3-1.4,3-3V3c0-1.7-1.3-3-3-3H9C7.4,0,6,1.3,6,3L6,3z"/>
	</g>
</g>
<g>
	<g>
		<g>
			<rect x="18.5" y="38.5" class="st0" width="5" height="1"/>
		</g>
		<g>
			<polygon class="st0" points="12.5,43.5 17.5,43.5 16.5,42.5 13.5,42.5 			"/>
		</g>
		<g>
			<rect x="25.5" y="38.5" class="st0" width="4" height="1"/>
		</g>
		<g>
			<rect x="25.5" y="41.5" class="st0" width="3" height="1"/>
		</g>
		<g>
			<rect x="24.5" y="44.5" class="st0" width="4" height="1"/>
		</g>
		<g>
			<rect x="20.5" y="38.5" class="st0" width="1" height="7"/>
		</g>
		<g>
			<polygon class="st0" points="17.5,45.5 18.5,45.5 15.5,38.5 14.5,38.5 			"/>
		</g>
		<g>
			<polygon class="st0" points="11.5,45.5 12.5,45.5 15.5,38.5 14.5,38.5 			"/>
		</g>
		<g>
			<rect x="24.5" y="39.5" class="st0" width="1" height="2"/>
		</g>
		<g>
			<rect x="28.5" y="42.5" class="st0" width="1" height="2"/>
		</g>
	</g>
</g>
<g>
	<polygon class="st0" points="2,49 0,49 0,50 2,50 2,51 0,51 0,52 2,52 2,53 0,53 0,54 2,54 2,55 6,55 6,48 2,48 	"/>
</g>
<g>
	<polygon class="st0" points="2,40 0,40 0,41 2,41 2,42 0,42 0,43 2,43 2,44 0,44 0,45 2,45 2,46 6,46 6,39 2,39 	"/>
</g>
<g>
	<polygon class="st0" points="2,31 0,31 0,32 2,32 2,33 0,33 0,34 2,34 2,35 0,35 0,36 2,36 2,37 6,37 6,30 2,30 	"/>
</g>
<g>
	<polygon class="st0" points="40,31 42,31 42,32 40,32 40,33 42,33 42,34 40,34 40,35 42,35 42,36 40,36 40,37 36,37 36,30 40,30 	
		"/>
</g>
<g>
	<polygon class="st0" points="40,22 42,22 42,23 40,23 40,24 42,24 42,25 40,25 40,26 42,26 42,27 40,27 40,28 36,28 36,21 40,21 	
		"/>
</g>
<g>
	<polygon class="st0" points="40,13 42,13 42,14 40,14 40,15 42,15 42,16 40,16 40,17 42,17 42,18 40,18 40,19 36,19 36,12 40,12 	
		"/>
</g>
<g>
	<g>
		<path class="st0" d="M18.7,15.4c-1.1,0.7-1.8,2.3-1.8,3.7c0,1.3,0.9,3,1.8,3.7"/>
	</g>
	<g>
		<path class="st0" d="M23.3,22.9c1-0.8,1.8-2.3,1.8-3.7s-0.8-3-1.8-3.7"/>
	</g>
	<g>
		<path class="st0" d="M18.8,26.2v-1.8c0,0,3.4-6.2,0-10.5v-1.7h4.4V14c0,0-3,5.2,0,10.5v1.8L18.8,26.2z"/>
	</g>
</g>
<g class="st1">
	<path class="st0" d="M11.1,22.1c-0.5,0-0.9-0.1-1.2-0.4s-0.4-0.6-0.4-1.1c0-0.4,0.1-0.8,0.4-1s0.7-0.4,1.1-0.4
		c0.5,0,0.9,0.1,1.2,0.4s0.4,0.6,0.4,1.1c0,0.4-0.1,0.8-0.4,1S11.5,22.1,11.1,22.1z M11,21.7c0.4,0,0.7-0.1,0.9-0.3s0.3-0.4,0.3-0.7
		s-0.1-0.6-0.3-0.8s-0.5-0.3-0.9-0.3s-0.7,0.1-0.9,0.3s-0.3,0.4-0.3,0.7s0.1,0.6,0.3,0.8S10.7,21.7,11,21.7z"/>
	<path class="st0" d="M12.5,16.2v0.5l-2.4,1.5c-0.1,0-0.1,0.1-0.2,0.1l0,0c0.1,0,0.2,0,0.4,0h2.1v0.4h-3v-0.5l2.3-1.5
		c0.1-0.1,0.2-0.1,0.2-0.1l0,0c-0.1,0-0.2,0-0.4,0H9.4v-0.4H12.5z"/>
</g>
<g class="st1">
	<path class="st0" d="M21,10.5c-0.5,0-0.9-0.1-1.2-0.4S19.4,9.5,19.4,9c0-0.4,0.1-0.8,0.4-1s0.7-0.4,1.1-0.4c0.5,0,0.9,0.1,1.2,0.4
		s0.4,0.6,0.4,1.1c0,0.4-0.1,0.8-0.4,1S21.5,10.5,21,10.5z M21,10.1c0.4,0,0.7-0.1,0.9-0.3s0.3-0.4,0.3-0.7s-0.1-0.6-0.3-0.8
		S21.4,8,21,8s-0.7,0.1-0.9,0.3S19.8,8.7,19.8,9s0.1,0.6,0.3,0.8S20.6,10.1,21,10.1z"/>
	<path class="st0" d="M19.8,5.5v1.2h1V5.6h0.3v1.1h1.3V7h-3V5.4L19.8,5.5L19.8,5.5z"/>
	<path class="st0" d="M19.8,3.4v1.2h1V3.5h0.3v1.1h1.3V5h-3V3.4C19.4,3.4,19.8,3.4,19.8,3.4z"/>
</g>
</svg>
