<?xml version="1.0" encoding="utf-8"?>
<!-- Generator: Adobe Illustrator 24.0.1, SVG Export Plug-In . SVG Version: 6.00 Build 0)  -->
<svg version="1.1" id="图层_1" xmlns="http://www.w3.org/2000/svg" xmlns:xlink="http://www.w3.org/1999/xlink" x="0px" y="0px"
	 viewBox="0 0 40 60" style="enable-background:new 0 0 40 60;" xml:space="preserve">
<style type="text/css">
	.st0{fill:#8B9ED4;}
</style>
<g>
	<g>
		<path class="st0" d="M38,2v56H2V2H38 M39,0H1C0.4,0,0,0.4,0,1v58c0,0.6,0.4,1,1,1h38c0.6,0,1-0.4,1-1V1C40,0.4,39.6,0,39,0L39,0z"
			/>
	</g>
	<g>
		<g>
			<path class="st0" d="M11,32c1.2,0,2,0.8,2,2s-0.8,2-2,2s-2-0.8-2-2S9.8,32,11,32"/>
		</g>
		<g>
			<path class="st0" d="M17,32c1.2,0,2,0.8,2,2s-0.8,2-2,2s-2-0.8-2-2S15.8,32,17,32"/>
		</g>
		<g>
			<path class="st0" d="M23,32c1.2,0,2,0.8,2,2s-0.8,2-2,2s-2-0.8-2-2S21.8,32,23,32"/>
		</g>
		<g>
			<path class="st0" d="M29,32c1.2,0,2,0.8,2,2s-0.8,2-2,2s-2-0.8-2-2S27.8,32,29,32"/>
		</g>
	</g>
	<g>
		<g>
			<rect x="8" y="41" class="st0" width="24" height="2"/>
		</g>
		<g>
			<rect x="8" y="45" class="st0" width="24" height="2"/>
		</g>
		<g>
			<rect x="8" y="49" class="st0" width="24" height="2"/>
		</g>
	</g>
	<g>
		<path class="st0" d="M31,27.5H9c-0.9,0-1.5-0.6-1.5-1.5V10c0-0.9,0.6-1.5,1.5-1.5h22c0.9,0,1.5,0.6,1.5,1.5v16
			C32.5,26.9,31.9,27.5,31,27.5z M9,9.5c-0.3,0-0.5,0.2-0.5,0.5v16c0,0.3,0.2,0.5,0.5,0.5h22c0.3,0,0.5-0.2,0.5-0.5V10
			c0-0.3-0.2-0.5-0.5-0.5H9z"/>
	</g>
	<g>
		<path class="st0" d="M12,16v-1.3c0.4-0.5,1-0.8,1.7-0.8c0.8,0,1.9,0.8,2.7,0.8c0.6,0,1.2-0.3,1.5-0.8v1.2c-0.4,0.5-1,0.8-1.7,0.8
			c-1,0-1.9-0.8-2.7-0.8C13,15,12.4,15.5,12,16"/>
	</g>
	<g>
		<g>
			<path class="st0" d="M9,26h22V10L9,26z M27.6,23.3c-0.2,0.2-0.6,0.4-0.8,0.4c-0.2,0-0.6,0.2-0.8,0c-0.2,0-0.4,0-0.8,0
				c-0.4,0-0.6-0.2-1-0.4c-0.4-0.2-0.8-0.2-1.2-0.2c-0.2,0-0.4,0-0.6,0c-0.4,0.6-0.6,0.6-0.8,1v-1c0.4-0.4,1-0.6,1.6-0.6
				c0.2,0,0.6,0,0.8,0c0.4,0.2,0.8,0.2,1,0.4c0.4,0,0.6,0,0.6,0.2c0,0.2,0.4,0,0.4,0c0.2,0,0.6,0,0.8-0.2c0.2-0.2,0.6-0.2,0.8-0.6
				V23.3z"/>
		</g>
	</g>
</g>
</svg>
