<?xml version="1.0" encoding="utf-8"?>
<!-- Generator: Adobe Illustrator 24.0.1, SVG Export Plug-In . SVG Version: 6.00 Build 0)  -->
<svg version="1.1" id="图层_1" xmlns="http://www.w3.org/2000/svg" xmlns:xlink="http://www.w3.org/1999/xlink" x="0px" y="0px"
	 viewBox="0 0 40 60" style="enable-background:new 0 0 40 60;" xml:space="preserve">
<style type="text/css">
	.st0{fill:#8B9ED4;}
</style>
<g>
	<g>
		<path class="st0" d="M38,2v56H2V2H38 M39,0H1C0.4,0,0,0.4,0,1v58c0,0.6,0.4,1,1,1h38c0.6,0,1-0.4,1-1V1C40,0.4,39.6,0,39,0L39,0z"
			/>
	</g>
	<g>
		<g>
			<path class="st0" d="M30,7.5v10H10v-10H30 M30.1,6.5H9.9C9.4,6.5,9,6.8,9,7.2v10.7c0,0.4,0.4,0.7,0.9,0.7h20.2
				c0.5,0,0.9-0.3,0.9-0.7V7.2C31,6.8,30.6,6.5,30.1,6.5L30.1,6.5z"/>
		</g>
	</g>
	<g>
		<g>
			<g>
				<path class="st0" d="M33,24.5v2H7v-2H33 M33.8,22.5H6.3c-0.8,0-1.3,0.1-1.3,0.3v5.3c0,0.2,0.5,0.3,1.3,0.3h27.5
					c0.8,0,1.3-0.1,1.3-0.3v-5.3C35,22.6,34.5,22.5,33.8,22.5L33.8,22.5z"/>
			</g>
		</g>
		<g>
			<g>
				<path class="st0" d="M33,24.5v2H7v-2H33 M33.8,22.5H6.3c-0.8,0-1.3,0.1-1.3,0.3v5.3c0,0.2,0.5,0.3,1.3,0.3h27.5
					c0.8,0,1.3-0.1,1.3-0.3v-5.3C35,22.6,34.5,22.5,33.8,22.5L33.8,22.5z"/>
			</g>
		</g>
		<g>
			<g>
				<path class="st0" d="M33,32.5v2H7v-2H33 M33.8,30.5H6.3c-0.8,0-1.3,0.1-1.3,0.3v5.3c0,0.2,0.5,0.3,1.3,0.3h27.5
					c0.8,0,1.3-0.1,1.3-0.3v-5.3C35,30.6,34.5,30.5,33.8,30.5L33.8,30.5z"/>
			</g>
		</g>
	</g>
	<g>
		<g>
			<g>
				<path class="st0" d="M33,40.5v2H7v-2H33 M33.8,38.5H6.3c-0.8,0-1.3,0.1-1.3,0.3v5.3c0,0.2,0.5,0.3,1.3,0.3h27.5
					c0.8,0,1.3-0.1,1.3-0.3v-5.3C35,38.6,34.5,38.5,33.8,38.5L33.8,38.5z"/>
			</g>
		</g>
		<g>
			<g>
				<path class="st0" d="M33,40.5v2H7v-2H33 M33.8,38.5H6.3c-0.8,0-1.3,0.1-1.3,0.3v5.3c0,0.2,0.5,0.3,1.3,0.3h27.5
					c0.8,0,1.3-0.1,1.3-0.3v-5.3C35,38.6,34.5,38.5,33.8,38.5L33.8,38.5z"/>
			</g>
		</g>
		<g>
			<g>
				<path class="st0" d="M33,48.5v2H7v-2H33 M33.8,46.5H6.3c-0.8,0-1.3,0.1-1.3,0.3v5.3c0,0.2,0.5,0.3,1.3,0.3h27.5
					c0.8,0,1.3-0.1,1.3-0.3v-5.3C35,46.6,34.5,46.5,33.8,46.5L33.8,46.5z"/>
			</g>
		</g>
	</g>
	<g>
		<rect x="17" y="9" class="st0" width="6" height="4"/>
	</g>
	<g>
		<g>
			<rect x="12" y="9" class="st0" width="3" height="2"/>
		</g>
		<g>
			<rect x="12" y="12" class="st0" width="3" height="1"/>
		</g>
		<g>
			<rect x="12" y="14" class="st0" width="3" height="1"/>
		</g>
	</g>
	<g>
		<g>
			<rect x="25" y="9" class="st0" width="3" height="2"/>
		</g>
		<g>
			<rect x="25" y="12" class="st0" width="3" height="1"/>
		</g>
		<g>
			<rect x="25" y="14" class="st0" width="3" height="1"/>
		</g>
	</g>
</g>
</svg>
