<?xml version="1.0" encoding="utf-8"?>
<!-- Generator: Adobe Illustrator 24.0.1, SVG Export Plug-In . SVG Version: 6.00 Build 0)  -->
<svg version="1.1" id="图层_1" xmlns="http://www.w3.org/2000/svg" xmlns:xlink="http://www.w3.org/1999/xlink" x="0px" y="0px"
	 viewBox="0 0 60 50" style="enable-background:new 0 0 60 50;" xml:space="preserve">
<style type="text/css">
	.st0{fill:#8B9ED4;}
</style>
<g>
	<g id="矩形_5_">
		<path class="st0" d="M58,0c1.1,0,2,0.9,2,2v46c0,1.1-0.9,2-2,2H2c-1.1,0-2-0.9-2-2V2c0-1.1,0.9-2,2-2H58z M58,2H2v46h56V2z"/>
	</g>
	<g>
		<path class="st0" d="M48,10v20H12V10H48 M49,8H11c-0.5,0-1,0.5-1,1v22c0,0.5,0.5,1,1,1h38c0.5,0,1-0.5,1-1V9C50,8.5,49.5,8,49,8
			L49,8z"/>
	</g>
	<g>
		<path class="st0" d="M16,41h-6c-0.6,0-1-0.4-1-1s0.4-1,1-1h6c0.6,0,1,0.4,1,1S16.6,41,16,41z"/>
	</g>
	<g>
		<path class="st0" d="M27.3,41h-6c-0.6,0-1-0.4-1-1s0.4-1,1-1h6c0.6,0,1,0.4,1,1S27.9,41,27.3,41z"/>
	</g>
	<g>
		<path class="st0" d="M38.7,41h-6c-0.6,0-1-0.4-1-1s0.4-1,1-1h6c0.6,0,1,0.4,1,1S39.2,41,38.7,41z"/>
	</g>
	<g>
		<path class="st0" d="M50,41h-6c-0.6,0-1-0.4-1-1s0.4-1,1-1h6c0.6,0,1,0.4,1,1S50.6,41,50,41z"/>
	</g>
	<g>
		<g>
			<path class="st0" d="M33.6,17.9c0.3,0.1,0.4,0.4,0.3,0.7l0,0L31.3,24c0.2,0.3,0.3,0.7,0.3,1c0,0.9-0.8,1.7-1.7,1.7
				c-0.9,0-1.7-0.8-1.7-1.7c0-0.9,0.8-1.7,1.7-1.7c0.1,0,0.3,0,0.4,0l2.5-5.3c0.1-0.1,0.2-0.2,0.3-0.3
				C33.3,17.8,33.5,17.8,33.6,17.9L33.6,17.9z"/>
		</g>
		<g>
			<path class="st0" d="M29.9,24.5c-0.3,0-0.6,0.3-0.6,0.6c0,0.3,0.3,0.6,0.6,0.6c0.3,0,0.6-0.3,0.6-0.6
				C30.5,24.7,30.3,24.5,29.9,24.5L29.9,24.5z"/>
		</g>
		<g>
			<path class="st0" d="M30,13.3c4.4,0,8,3.5,8,7.9c0,0.3-0.2,0.6-0.5,0.6c-0.3,0-0.6-0.2-0.6-0.5l0,0h0l0-0.1
				c-0.1-3.7-3.1-6.8-6.9-6.8c-3.8,0-6.9,3.1-6.9,6.8l0,0c0,0.3-0.2,0.5-0.5,0.6l0,0c-0.2,0-0.3-0.1-0.4-0.2
				C22,21.5,22,21.4,22,21.2l0-0.1C22.1,16.8,25.6,13.3,30,13.3L30,13.3z"/>
		</g>
		<g>
			<path class="st0" d="M30,13.3"/>
		</g>
	</g>
</g>
</svg>
