<?xml version="1.0" encoding="utf-8"?>
<!-- Generator: Adobe Illustrator 24.0.1, SVG Export Plug-In . SVG Version: 6.00 Build 0)  -->
<svg version="1.1" id="图层_1" xmlns="http://www.w3.org/2000/svg" xmlns:xlink="http://www.w3.org/1999/xlink" x="0px" y="0px"
	 viewBox="0 0 36 60" style="enable-background:new 0 0 36 60;" xml:space="preserve">
<style type="text/css">
	.st0{fill:#8B9ED4;}
</style>
<g>
	<g>
		<path class="st0" d="M34,2v56H2V2H34 M34.5,0h-33C0.7,0,0,0.7,0,1.5v57C0,59.3,0.7,60,1.5,60h33c0.8,0,1.5-0.7,1.5-1.5v-57
			C36,0.7,35.3,0,34.5,0L34.5,0z"/>
	</g>
	<g>
		<rect x="1.3" y="20" class="st0" width="34" height="2"/>
	</g>
	<g>
		<rect x="6" y="5" class="st0" width="5" height="5"/>
	</g>
	<g>
		<rect x="16" y="5" class="st0" width="5" height="5"/>
	</g>
	<g>
		<rect x="26" y="5" class="st0" width="5" height="5"/>
	</g>
	<g>
		<circle class="st0" cx="8.5" cy="15.5" r="1.5"/>
	</g>
	<g>
		<circle class="st0" cx="13.5" cy="15.5" r="1.5"/>
	</g>
	<g>
		<circle class="st0" cx="18.5" cy="15.5" r="1.5"/>
	</g>
	<g>
		<circle class="st0" cx="23.5" cy="15.5" r="1.5"/>
	</g>
	<g>
		<circle class="st0" cx="28.5" cy="15.5" r="1.5"/>
	</g>
	<g>
		<polygon class="st0" points="9.8,40 18,40 13.9,50 26.2,36 18,36 22.1,26 		"/>
	</g>
</g>
</svg>
