<?xml version="1.0" encoding="utf-8"?>
<!-- Generator: Adobe Illustrator 24.0.1, SVG Export Plug-In . SVG Version: 6.00 Build 0)  -->
<svg version="1.1" id="图层_1" xmlns="http://www.w3.org/2000/svg" xmlns:xlink="http://www.w3.org/1999/xlink" x="0px" y="0px"
	 viewBox="0 0 30 60" style="enable-background:new 0 0 30 60;" xml:space="preserve">
<style type="text/css">
	.st0{fill:#8B9ED4;}
</style>
<g id="页面-1_7_">
	<g id="监控管理-设备状态_1_" transform="translate(-943.000000, -171.000000)">
		<g id="编组-2_1_" transform="translate(176.000000, 80.000000)">
			<g id="编组-6_1_" transform="translate(88.000000, 90.000000)">
				<g id="列头柜_1_" transform="translate(679.000000, 1.000000)">
					<g id="形状结合_9_">
						<path class="st0" d="M29.1,0c0.2,0,0.5,0.1,0.7,0.3C29.9,0.4,30,0.7,30,0.9V59c0,0.3-0.1,0.5-0.2,0.7
							c-0.2,0.2-0.4,0.3-0.7,0.3H0.9C0.4,60,0,59.6,0,59.1V0.9C0,0.4,0.4,0,0.9,0H29.1z M28,2H2v56h26V2z M1.5,28h-1v4h1V28z"/>
					</g>
					<g id="路径_31_">
						<path class="st0" d="M25.5,4C25.8,4,26,4.2,26,4.4v51.1c0,0.2-0.2,0.4-0.5,0.4H4.5C4.2,56,4,55.8,4,55.6V4.4
							c0-0.1,0.1-0.2,0.1-0.3C4.2,4,4.3,4,4.5,4H25.5z M25,5H5v50h20V5z"/>
					</g>
					<g id="形状_5_">
						<path class="st0" d="M14,53H8V37h6V53z M8.5,52.5h5v-15h-5V52.5z M22,53h-6V37h6V53z M16.5,52.5h5v-15h-5V52.5z"/>
					</g>
					<g id="形状备份_1_">
						<path class="st0" d="M14,28H8V12h6V28z M8.5,27.5h5v-15h-5V27.5z M22,28h-6V12h6V28z M16.5,27.5h5v-15h-5V27.5z"/>
					</g>
					<g id="路径_30_">
						<path class="st0" d="M9.5,7.9c0.3,0.2,0.7,0.2,1,0C10.8,7.7,11,7.4,11,7s-0.2-0.7-0.5-0.9s-0.7-0.2-1,0S9,6.6,9,7
							S9.2,7.7,9.5,7.9z"/>
					</g>
					<g id="路径_29_">
						<path class="st0" d="M14.5,7.9c0.3,0.2,0.7,0.2,1,0C15.8,7.7,16,7.4,16,7s-0.2-0.7-0.5-0.9s-0.7-0.2-1,0S14,6.6,14,7
							S14.2,7.7,14.5,7.9z"/>
					</g>
					<g id="路径_28_">
						<path class="st0" d="M19.5,7.9c0.3,0.2,0.7,0.2,1,0C20.8,7.7,21,7.4,21,7s-0.2-0.7-0.5-0.9s-0.7-0.2-1,0S19,6.6,19,7
							S19.2,7.7,19.5,7.9z"/>
					</g>
					<g id="路径_27_">
						<path class="st0" d="M9.5,10.9c0.3,0.2,0.7,0.2,1,0c0.3-0.2,0.5-0.5,0.5-0.9s-0.2-0.7-0.5-0.9c-0.3-0.2-0.7-0.2-1,0
							C9.2,9.3,9,9.6,9,10S9.2,10.7,9.5,10.9z"/>
					</g>
					<g id="形状_4_">
						<path class="st0" d="M15,11c-0.6,0-1-0.4-1-1s0.5-1,1-1c0.6,0,1,0.5,1,1C16,10.6,15.6,11,15,11L15,11z M15,9.3
							c-0.4,0-0.7,0.3-0.7,0.7c0,0.4,0.3,0.7,0.7,0.7s0.7-0.3,0.7-0.7C15.7,9.6,15.4,9.3,15,9.3L15,9.3z M19,10c0-0.6,0.5-1,1-1
							c0.6,0,1,0.5,1,1c0,0.6-0.4,1-1,1S19,10.6,19,10z M19.3,10c0,0.4,0.3,0.7,0.7,0.7c0.4,0,0.7-0.3,0.7-0.7
							c0-0.4-0.3-0.7-0.7-0.7C19.6,9.3,19.3,9.6,19.3,10z"/>
					</g>
					<g id="形状结合_8_">
						<path class="st0" d="M20,33v2h-4v-2H20z M19.5,33.5h-3v1h3V33.5z"/>
					</g>
					<g id="形状结合备份-4_1_">
						<path class="st0" d="M20,30v2h-4v-2H20z M19.5,30.5h-3v1h3V30.5z"/>
					</g>
					<g id="形状结合备份-6_1_">
						<path class="st0" d="M14,33v2h-4v-2H14z M13.5,33.5h-3v1h3V33.5z"/>
					</g>
					<g id="形状结合备份-5_1_">
						<path class="st0" d="M14,30v2h-4v-2H14z M13.5,30.5h-3v1h3V30.5z"/>
					</g>
				</g>
			</g>
		</g>
	</g>
</g>
</svg>
