<?xml version="1.0" encoding="utf-8"?>
<!-- Generator: Adobe Illustrator 24.0.1, SVG Export Plug-In . SVG Version: 6.00 Build 0)  -->
<svg version="1.1" id="图层_1" xmlns="http://www.w3.org/2000/svg" xmlns:xlink="http://www.w3.org/1999/xlink" x="0px" y="0px"
	 viewBox="0 0 30 60" style="enable-background:new 0 0 30 60;" xml:space="preserve">
<style type="text/css">
	.st0{fill:#8B9ED4;}
</style>
<g>
	<g id="形状结合_7_">
		<path class="st0" d="M29.1,0c0.2,0,0.5,0.1,0.7,0.3C29.9,0.4,30,0.7,30,0.9V59c0,0.3-0.1,0.5-0.2,0.7c-0.2,0.2-0.4,0.3-0.7,0.3
			H0.9C0.4,60,0,59.6,0,59.1V0.9C0,0.4,0.4,0,0.9,0H29.1z M28,2H2v56h26V2z M1.5,28h-1v4h1V28z"/>
	</g>
	<g id="路径_26_">
		<path class="st0" d="M25.5,4C25.8,4,26,4.2,26,4.4v51.1c0,0.2-0.2,0.4-0.5,0.4H4.5C4.2,56,4,55.8,4,55.6V4.4
			c0-0.1,0.1-0.2,0.1-0.3C4.2,4,4.3,4,4.5,4H25.5z M25,5H5v50h20V5z"/>
	</g>
	<g>
		<g id="路径_25_">
			<path class="st0" d="M9.5,7.9c0.3,0.2,0.7,0.2,1,0C10.8,7.7,11,7.4,11,7s-0.2-0.7-0.5-0.9s-0.7-0.2-1,0S9,6.6,9,7
				S9.2,7.7,9.5,7.9z"/>
		</g>
		<g id="路径_24_">
			<path class="st0" d="M14.5,7.9c0.3,0.2,0.7,0.2,1,0C15.8,7.7,16,7.4,16,7s-0.2-0.7-0.5-0.9s-0.7-0.2-1,0S14,6.6,14,7
				S14.2,7.7,14.5,7.9z"/>
		</g>
		<g id="路径_23_">
			<path class="st0" d="M19.5,7.9c0.3,0.2,0.7,0.2,1,0C20.8,7.7,21,7.4,21,7s-0.2-0.7-0.5-0.9s-0.7-0.2-1,0S19,6.6,19,7
				S19.2,7.7,19.5,7.9z"/>
		</g>
	</g>
	<g>
		<g id="路径_22_">
			<path class="st0" d="M9.5,37.9c0.3,0.2,0.7,0.2,1,0c0.3-0.2,0.5-0.5,0.5-0.9s-0.2-0.7-0.5-0.9c-0.3-0.2-0.7-0.2-1,0
				C9.2,36.3,9,36.6,9,37S9.2,37.7,9.5,37.9z"/>
		</g>
		<g id="路径_21_">
			<path class="st0" d="M14.5,37.9c0.3,0.2,0.7,0.2,1,0c0.3-0.2,0.5-0.5,0.5-0.9s-0.2-0.7-0.5-0.9c-0.3-0.2-0.7-0.2-1,0
				C14.2,36.3,14,36.6,14,37S14.2,37.7,14.5,37.9z"/>
		</g>
		<g id="路径_20_">
			<path class="st0" d="M19.5,37.9c0.3,0.2,0.7,0.2,1,0c0.3-0.2,0.5-0.5,0.5-0.9s-0.2-0.7-0.5-0.9c-0.3-0.2-0.7-0.2-1,0
				C19.2,36.3,19,36.6,19,37S19.2,37.7,19.5,37.9z"/>
		</g>
	</g>
	<g>
		<path class="st0" d="M25.5,19.5h-21v-9h21V19.5z M5.5,18.5h19v-7h-19V18.5z"/>
	</g>
	<g>
		<path class="st0" d="M19.5,17.5h-9v-5h9V17.5z M11.5,16.5h7v-3h-7V16.5z"/>
	</g>
	<g>
		<path class="st0" d="M17.5,33.5h-5v-13h5V33.5z M13.5,32.5h3v-11h-3V32.5z"/>
	</g>
	<g>
		<path class="st0" d="M17.5,53.5h-5v-13h5V53.5z M13.5,52.5h3v-11h-3V52.5z"/>
	</g>
</g>
</svg>
