<?xml version="1.0" encoding="utf-8"?>
<!-- Generator: Adobe Illustrator 24.0.1, SVG Export Plug-In . SVG Version: 6.00 Build 0)  -->
<svg version="1.1" id="图层_1" xmlns="http://www.w3.org/2000/svg" xmlns:xlink="http://www.w3.org/1999/xlink" x="0px" y="0px"
	 viewBox="0 0 58 58" style="enable-background:new 0 0 58 58;" xml:space="preserve">
<style type="text/css">
	.st0{fill:#8B9ED4;}
</style>
<g>
	<g>
		<path class="st0" d="M53.5,58h-49c-0.6,0-1-0.4-1-1V23H1c-0.4,0-0.8-0.3-0.9-0.7s0-0.9,0.3-1.1l28-21c0.4-0.3,0.8-0.3,1.2,0l28,21
			c0.3,0.3,0.5,0.7,0.3,1.1S57.4,23,57,23h-2.5v34C54.5,57.6,54.1,58,53.5,58z M5.5,56h47V22c0-0.6,0.4-1,1-1H54L29,2.3L4,21h0.5
			c0.6,0,1,0.4,1,1V56z"/>
	</g>
	<g>
		<polygon class="st0" points="23.1,46.5 27.2,33.5 21.1,33.5 27.5,18.5 33.8,18.5 29.7,28.2 37.1,28.2 		"/>
	</g>
</g>
</svg>
