<?xml version="1.0" encoding="utf-8"?>
<!-- Generator: Adobe Illustrator 24.0.1, SVG Export Plug-In . SVG Version: 6.00 Build 0)  -->
<svg version="1.1" id="图层_1" xmlns="http://www.w3.org/2000/svg" xmlns:xlink="http://www.w3.org/1999/xlink" x="0px" y="0px"
	 viewBox="0 0 60 48" style="enable-background:new 0 0 60 48;" xml:space="preserve">
<style type="text/css">
	.st0{fill:#8B9ED4;}
</style>
<title>冷源</title>
<g>
	<g>
		<path class="st0" d="M58,2v32H2V2H58 M58,0H2C0.9,0,0,0.9,0,2v32c0,1.1,0.9,2,2,2h56c1.1,0,2-0.9,2-2V2C60,0.9,59.1,0,58,0L58,0z"
			/>
	</g>
</g>
<g>
	<rect x="0" y="26" class="st0" width="58" height="2"/>
</g>
<g>
	<polygon class="st0" points="26.1,22.9 28.8,14.5 24.9,14.5 28.9,4.9 33,4.9 30.4,11.1 35.1,11.1 	"/>
</g>
<g>
	<g>
		<g>
			<path class="st0" d="M13,44H5c-0.6,0-1-0.4-1-1s0.4-1,1-1h8c0.6,0,1,0.4,1,1S13.6,44,13,44z"/>
		</g>
		<g>
			<path class="st0" d="M9,48c-0.6,0-1-0.4-1-1v-8c0-0.6,0.4-1,1-1s1,0.4,1,1v8C10,47.6,9.6,48,9,48z"/>
		</g>
		<g>
			<path class="st0" d="M6.2,46.8c-0.3,0-0.5-0.1-0.7-0.3c-0.4-0.4-0.4-1,0-1.4l5.7-5.7c0.4-0.4,1-0.4,1.4,0s0.4,1,0,1.4l-5.7,5.7
				C6.7,46.7,6.4,46.8,6.2,46.8z"/>
		</g>
		<g>
			<path class="st0" d="M11.8,46.8c-0.3,0-0.5-0.1-0.7-0.3l-5.7-5.7c-0.4-0.4-0.4-1,0-1.4s1-0.4,1.4,0l5.7,5.7c0.4,0.4,0.4,1,0,1.4
				C12.3,46.7,12.1,46.8,11.8,46.8z"/>
		</g>
	</g>
	<g>
		<g>
			<path class="st0" d="M27,44h-8c-0.6,0-1-0.4-1-1s0.4-1,1-1h8c0.6,0,1,0.4,1,1S27.6,44,27,44z"/>
		</g>
		<g>
			<path class="st0" d="M23,48c-0.6,0-1-0.4-1-1v-8c0-0.6,0.4-1,1-1s1,0.4,1,1v8C24,47.6,23.6,48,23,48z"/>
		</g>
		<g>
			<path class="st0" d="M20.2,46.8c-0.3,0-0.5-0.1-0.7-0.3c-0.4-0.4-0.4-1,0-1.4l5.7-5.7c0.4-0.4,1-0.4,1.4,0s0.4,1,0,1.4l-5.7,5.7
				C20.7,46.7,20.4,46.8,20.2,46.8z"/>
		</g>
		<g>
			<path class="st0" d="M25.8,46.8c-0.3,0-0.5-0.1-0.7-0.3l-5.7-5.7c-0.4-0.4-0.4-1,0-1.4s1-0.4,1.4,0l5.7,5.7c0.4,0.4,0.4,1,0,1.4
				C26.3,46.7,26.1,46.8,25.8,46.8z"/>
		</g>
	</g>
	<g>
		<g>
			<path class="st0" d="M41,44h-8c-0.6,0-1-0.4-1-1s0.4-1,1-1h8c0.6,0,1,0.4,1,1S41.6,44,41,44z"/>
		</g>
		<g>
			<path class="st0" d="M37,48c-0.6,0-1-0.4-1-1v-8c0-0.6,0.4-1,1-1s1,0.4,1,1v8C38,47.6,37.6,48,37,48z"/>
		</g>
		<g>
			<path class="st0" d="M34.2,46.8c-0.3,0-0.5-0.1-0.7-0.3c-0.4-0.4-0.4-1,0-1.4l5.7-5.7c0.4-0.4,1-0.4,1.4,0s0.4,1,0,1.4l-5.7,5.7
				C34.7,46.7,34.4,46.8,34.2,46.8z"/>
		</g>
		<g>
			<path class="st0" d="M39.8,46.8c-0.3,0-0.5-0.1-0.7-0.3l-5.7-5.7c-0.4-0.4-0.4-1,0-1.4s1-0.4,1.4,0l5.7,5.7c0.4,0.4,0.4,1,0,1.4
				C40.3,46.7,40.1,46.8,39.8,46.8z"/>
		</g>
	</g>
	<g>
		<g>
			<path class="st0" d="M55,44h-8c-0.6,0-1-0.4-1-1s0.4-1,1-1h8c0.6,0,1,0.4,1,1S55.6,44,55,44z"/>
		</g>
		<g>
			<path class="st0" d="M51,48c-0.6,0-1-0.4-1-1v-8c0-0.6,0.4-1,1-1s1,0.4,1,1v8C52,47.6,51.6,48,51,48z"/>
		</g>
		<g>
			<path class="st0" d="M48.2,46.8c-0.3,0-0.5-0.1-0.7-0.3c-0.4-0.4-0.4-1,0-1.4l5.7-5.7c0.4-0.4,1-0.4,1.4,0s0.4,1,0,1.4l-5.7,5.7
				C48.7,46.7,48.4,46.8,48.2,46.8z"/>
		</g>
		<g>
			<path class="st0" d="M53.8,46.8c-0.3,0-0.5-0.1-0.7-0.3l-5.7-5.7c-0.4-0.4-0.4-1,0-1.4s1-0.4,1.4,0l5.7,5.7c0.4,0.4,0.4,1,0,1.4
				C54.3,46.7,54.1,46.8,53.8,46.8z"/>
		</g>
	</g>
</g>
</svg>
