<?xml version="1.0" encoding="utf-8"?>
<!-- Generator: Adobe Illustrator 24.0.1, SVG Export Plug-In . SVG Version: 6.00 Build 0)  -->
<svg version="1.1" id="图层_1" xmlns="http://www.w3.org/2000/svg" xmlns:xlink="http://www.w3.org/1999/xlink" x="0px" y="0px"
	 viewBox="0 0 36 60" style="enable-background:new 0 0 36 60;" xml:space="preserve">
<style type="text/css">
	.st0{fill:#8B9ED4;}
</style>
<g>
	<g>
		<path class="st0" d="M34,2v56H2V2H34 M34.5,0h-33C0.7,0,0,0.7,0,1.5v57C0,59.3,0.7,60,1.5,60h33c0.8,0,1.5-0.7,1.5-1.5v-57
			C36,0.7,35.3,0,34.5,0L34.5,0z"/>
	</g>
	<g>
		<path class="st0" d="M29,6.5v14H7v-14H29 M29,5.5H7c-0.6,0-1,0.5-1,1v14c0,0.6,0.4,1,1,1h22c0.5,0,1-0.4,1-1v-14
			C30,6,29.5,5.5,29,5.5L29,5.5z"/>
	</g>
	<g>
		<path class="st0" d="M7.1,59.5c-0.6,0-1-0.4-1-1v-32c0-0.6,0.4-1,1-1s1,0.4,1,1v32C8.1,59.1,7.7,59.5,7.1,59.5z"/>
	</g>
	<g>
		<path class="st0" d="M30,59.5c-0.6,0-1-0.4-1-1v-32c0-0.6,0.4-1,1-1s1,0.4,1,1v32C31,59.1,30.6,59.5,30,59.5z"/>
	</g>
	<g>
		<path class="st0" d="M24,30.5H12c-0.6,0-1-0.4-1-1s0.4-1,1-1h12c0.6,0,1,0.4,1,1S24.6,30.5,24,30.5z"/>
	</g>
	<g>
		<path class="st0" d="M24,35.5H12c-0.6,0-1-0.4-1-1s0.4-1,1-1h12c0.6,0,1,0.4,1,1S24.6,35.5,24,35.5z"/>
	</g>
	<g>
		<path class="st0" d="M24,40.5H12c-0.6,0-1-0.4-1-1s0.4-1,1-1h12c0.6,0,1,0.4,1,1S24.6,40.5,24,40.5z"/>
	</g>
	<g>
		<g>
			<path class="st0" d="M18.1,55.5c-2.8,0-5-2.2-5-5c0-1.1,0.4-2.2,1.1-3.1c0.3-0.4,1-0.5,1.4-0.2c0.4,0.3,0.5,1,0.2,1.4
				c-0.4,0.5-0.6,1.2-0.6,1.9c0,1.7,1.3,3,3,3s3-1.3,3-3c0-0.7-0.2-1.3-0.6-1.8c-0.3-0.4-0.2-1.1,0.2-1.4c0.4-0.3,1.1-0.2,1.4,0.2
				c0.7,0.9,1,1.9,1,3C23.1,53.3,20.9,55.5,18.1,55.5z"/>
		</g>
		<g>
			<path class="st0" d="M18.1,50.5c-0.6,0-1-0.4-1-1v-4c0-0.6,0.4-1,1-1s1,0.4,1,1v4C19.1,50.1,18.7,50.5,18.1,50.5z"/>
		</g>
	</g>
</g>
</svg>
