<?xml version="1.0" encoding="utf-8"?>
<!-- Generator: Adobe Illustrator 24.0.1, SVG Export Plug-In . SVG Version: 6.00 Build 0)  -->
<svg version="1.1" id="图层_1" xmlns="http://www.w3.org/2000/svg" xmlns:xlink="http://www.w3.org/1999/xlink" x="0px" y="0px"
	 viewBox="0 0 60 36" style="enable-background:new 0 0 60 36;" xml:space="preserve">
<style type="text/css">
	.st0{fill:#8B9ED4;}
</style>
<g>
	<g>
		<g>
			<path class="st0" d="M58,2v32H2V2H58 M58,0H2C0.9,0,0,0.9,0,2v32c0,1.1,0.9,2,2,2h56c1.1,0,2-0.9,2-2V2C60,0.9,59.1,0,58,0L58,0z
				"/>
		</g>
	</g>
	<g>
		<polygon class="st0" points="24,6.8 34.9,6.8 33.5,5.5 25.4,5.5 		"/>
	</g>
	<g>
		<polygon class="st0" points="24,10.9 34.9,10.9 33.5,9.5 25.4,9.5 		"/>
	</g>
	<g>
		<polygon class="st0" points="24,15 34.9,15 33.5,13.6 25.4,13.6 		"/>
	</g>
	<g>
		<rect x="18.9" y="1.4" class="st0" width="1.4" height="32.7"/>
	</g>
	<g>
		<rect x="39.9" y="1.4" class="st0" width="1.4" height="32.7"/>
	</g>
	<g>
		<g>
			<path class="st0" d="M47.6,19.7c0.2-0.2,0.5-0.3,0.8-0.3c1.5,0,2,1.7,3.7,0.5c-0.2-0.9-0.9-2.8-2.3-5.2
				C48.6,16.9,47.8,18.8,47.6,19.7z"/>
		</g>
		<g>
			<path class="st0" d="M50,15.8c1.8,3.2,1.9,4.3,1.9,4.3c0,0.5-0.2,1-0.5,1.3C50.9,21.8,50.5,22,50,22c-1.1,0-1.9-0.8-1.9-1.8
				C48.1,20.1,48.1,19,50,15.8 M50,12c-2.6,4-3.9,6.8-3.9,8.2c0,2.2,1.7,3.8,3.9,3.8c2.2,0,3.9-1.7,3.9-3.8C53.8,18.8,52.6,16,50,12
				L50,12z"/>
		</g>
	</g>
	<g>
		<path class="st0" d="M14.3,24c-0.5,0-1-0.2-1.4-0.7c-0.1-0.1-0.1-0.2-0.2-0.3l0-0.1c0,0,0-0.1,0-0.1c-0.3-0.5-0.9-1.6-1.4-2
			c0,0,0-0.1-0.1-0.1c-0.2,0.1-0.4,0.1-0.7,0.1l0,0c-0.2,0-0.5,0-0.7-0.1l0,0c-0.5,0.7-1.5,2-3.1,2.3c-0.6,0.2-1.4,0-1.9-0.6
			c-0.5-0.5-0.7-1.3-0.5-2c0.2-0.7,0.7-1.2,1.4-1.4C5.9,19.1,6,19,6.2,19c0,0,0,0,0.1,0C6.8,19,8,19,8.6,18.8c0,0,0.1,0,0.1,0
			c0-0.4,0.2-0.8,0.5-1.1c0-0.1,0.1-0.1,0.2-0.1c0,0,0,0,0,0c-0.4-0.8-0.9-2.3-0.3-4c0.2-0.7,0.7-1.2,1.4-1.4
			c0.7-0.2,1.4,0.1,1.9,0.6c0.5,0.5,0.6,1.3,0.4,2c0,0.1-0.1,0.2-0.1,0.4l0,0.1c0,0,0,0,0,0.1c-0.3,0.5-0.8,1.6-1,2.3
			c0,0,0,0.1,0,0.1c0.1,0.1,0.1,0.1,0.2,0.2c0.3,0.3,0.5,0.7,0.5,1.1c0,0,0,0,0,0c0.8,0.1,2.3,0.4,3.4,1.8c0.1,0.1,0.2,0.2,0.3,0.4
			c0,0,0,0,0,0c0.5,0.9,0.3,2.1-0.5,2.7C15.1,23.9,14.7,24,14.3,24z M13.6,22.6C13.6,22.6,13.6,22.6,13.6,22.6
			c0.4,0.5,1,0.5,1.4,0.2c0.4-0.3,0.5-0.9,0.3-1.4c0,0,0,0,0,0c0-0.1-0.1-0.2-0.2-0.2c-0.7-0.9-1.7-1.3-2.4-1.4
			c-0.1,0.3-0.2,0.5-0.4,0.8c0.6,0.7,1.1,1.7,1.2,1.9c0,0,0,0,0,0.1L13.6,22.6C13.5,22.5,13.5,22.6,13.6,22.6z M13.4,22.5L13.4,22.5
			L13.4,22.5z M6.1,20C6.1,20.1,6,20.1,6.1,20c-0.4,0.1-0.7,0.4-0.8,0.7c-0.1,0.4,0,0.8,0.2,1c0.2,0.3,0.6,0.4,1,0.3
			c1.1-0.2,1.9-0.9,2.3-1.5c-0.2-0.2-0.3-0.5-0.4-0.7C7.5,20,6.4,20,6.3,20h0C6.2,20,6.2,20,6.1,20C6.1,20,6.1,20,6.1,20z M6.2,20
			L6.2,20L6.2,20z M6.2,20L6.2,20L6.2,20z M6.2,20L6.2,20L6.2,20z M9.6,19c0,0.2,0.1,0.5,0.3,0.7c0.2,0.2,0.4,0.3,0.6,0.3l0,0
			c0.5,0,0.9-0.4,0.9-0.9c0-0.2-0.1-0.5-0.3-0.7c-0.2-0.2-0.4-0.3-0.6-0.3l0,0c-0.2,0-0.5,0.1-0.6,0.3C9.7,18.5,9.6,18.8,9.6,19
			L9.6,19z M11,13c-0.1,0-0.2,0-0.2,0c-0.4,0.1-0.6,0.4-0.7,0.8c-0.4,1.2-0.2,2.2,0.1,2.9c0.3-0.1,0.5-0.1,0.8,0
			c0.3-0.9,0.9-1.9,0.9-2.1c0,0,0,0,0-0.1l0-0.1c0,0,0-0.1,0-0.1c0,0,0,0,0-0.1c0.1-0.4,0-0.8-0.2-1C11.5,13.1,11.2,13,11,13z
			 M11.9,14.6L11.9,14.6L11.9,14.6z M11.9,14.6L11.9,14.6L11.9,14.6z"/>
	</g>
</g>
</svg>
