<?xml version="1.0" encoding="utf-8"?>
<!-- Generator: Adobe Illustrator 24.0.1, SVG Export Plug-In . SVG Version: 6.00 Build 0)  -->
<svg version="1.1" id="图层_1" xmlns="http://www.w3.org/2000/svg" xmlns:xlink="http://www.w3.org/1999/xlink" x="0px" y="0px"
	 viewBox="0 0 60 48" style="enable-background:new 0 0 60 48;" xml:space="preserve">
<style type="text/css">
	.st0{fill:#8B9ED4;}
</style>
<g>
	<g>
		<path class="st0" d="M28.8,38.8c1.6,1.6,2.5,3.1,2.5,4.3c0,0.9-0.5,1.7-1.2,2.1c-0.4,0.2-0.8,0.3-1.2,0.3c-0.4,0-0.9-0.1-1.2-0.3
			c-0.8-0.4-1.2-1.2-1.2-2.1C26.3,41.6,27.6,40,28.8,38.8 M28.8,36.3c-0.1,0-0.3,0-0.4,0.1c-1,0.8-4.1,3.6-4.1,6.6
			c0,1.6,0.8,3.1,2.2,3.9c0.7,0.4,1.5,0.6,2.2,0.6s1.5-0.2,2.2-0.6c1.4-0.8,2.2-2.3,2.2-3.9c0-3-3.1-5.8-4.1-6.6
			C29.1,36.4,28.9,36.3,28.8,36.3L28.8,36.3z"/>
	</g>
	<g>
		<path d="M30.5,44.8"/>
	</g>
	<g>
		<path class="st0" d="M19.6,2v5.8h-0.5c-1.1,0-2,0.9-2,2v5c0,1.1,0.9,2,2,2H24c1.1,0,2-0.9,2-2v-0.7h5.8v0.7c0,1.1,0.9,2,2,2
			l14.5,0l0.1,0c0.9,0,1.9,0.2,2.7,0.5c0.9,0.4,1.7,0.9,2.3,1.6c0.7,0.7,1.2,1.4,1.6,2.3c0.3,0.9,0.5,1.8,0.5,2.7v12.5
			c0,1.1,0.9,2,2,2H58v5.7H40.4l0-5.8H41c1.1,0,2-0.9,2-2v-5c0-1.1-0.9-2-2-2h-7.1c-1.1,0-2,0.9-2,2v0.6H26v-0.7c0-1.1-0.9-2-2-2
			l-12.2,0l-0.1,0c-0.9,0-1.9-0.2-2.8-0.5C8,28.5,7.2,28,6.6,27.3C5.9,26.6,5.4,25.8,5,25c-0.3-0.9-0.5-1.8-0.5-2.7V9.7
			c0-1.1-0.9-2-2-2H2V2H19.6 M20.3,0H1.3C0.6,0,0,0.6,0,1.3v7.1c0,0.7,0.6,1.3,1.3,1.3h1.2v12.5c0,1.2,0.2,2.4,0.7,3.5
			c0.5,1.1,1.1,2.1,2,2.9c0.9,0.9,1.9,1.5,3,2c1.1,0.5,2.3,0.7,3.5,0.7c0,0,0.1,0,0.1,0H24v1.3c0,0.7,0.6,1.3,1.3,1.3h7.2
			c0.7,0,1.3-0.6,1.3-1.3v-1.3H41v5h-1.2c0,0,0,0,0,0c-0.4,0-0.7,0.1-0.9,0.4c-0.3,0.3-0.4,0.6-0.4,1v7.1c0,0.7,0.6,1.3,1.3,1.3
			h18.9c0.7,0,1.3-0.6,1.3-1.3v-7.1c0-0.7-0.6-1.3-1.3-1.3h-1.2V23.9c0-1.2-0.2-2.4-0.7-3.5c-0.5-1.1-1.1-2.1-2-2.9
			c-0.9-0.9-1.9-1.5-3-2c-1.1-0.5-2.3-0.7-3.5-0.7c0,0,0,0-0.1,0H33.8v-1.4c0-0.7-0.6-1.3-1.3-1.4h-7.2c-0.7,0-1.3,0.6-1.3,1.3v1.3
			h-4.9v-5h1.2c0.7,0,1.3-0.6,1.3-1.3V1.3C21.6,0.6,21,0,20.3,0L20.3,0z"/>
	</g>
	<g>
		<path d="M56,42.2"/>
	</g>
</g>
</svg>
