<?xml version="1.0" encoding="utf-8"?>
<!-- Generator: Adobe Illustrator 24.0.1, SVG Export Plug-In . SVG Version: 6.00 Build 0)  -->
<svg version="1.1" id="图层_1" xmlns="http://www.w3.org/2000/svg" xmlns:xlink="http://www.w3.org/1999/xlink" x="0px" y="0px"
	 viewBox="0 0 56 56" style="enable-background:new 0 0 56 56;" xml:space="preserve">
<style type="text/css">
	.st0{fill:#8B9ED4;}
</style>
<g>
	<g>
		<path class="st0" d="M54,2v52H2V2H54 M54,0H2C0.9,0,0,0.9,0,2v52c0,1.1,0.9,2,2,2h52c1.1,0,2-0.9,2-2V2C56,0.9,55.1,0,54,0L54,0z"
			/>
	</g>
	<g>
		<g>
			<path class="st0" d="M25,13v32H13V13H25 M27,11H11v36h16V11L27,11z"/>
		</g>
		<g>
			<rect x="11" y="22" class="st0" width="16" height="2"/>
		</g>
		<g>
			<path class="st0" d="M43,13v32H31V13H43 M45,11H29v36h16V11L45,11z"/>
		</g>
		<g>
			<rect x="29" y="22" class="st0" width="16" height="2"/>
		</g>
		<g>
			<polygon class="st0" points="14,35.7 19,35.7 16.5,42.3 24,33 19,33 21.5,26.3 			"/>
		</g>
		<g>
			<polygon class="st0" points="32,35.7 37,35.7 34.5,42.3 42,33 37,33 39.5,26.3 			"/>
		</g>
	</g>
</g>
</svg>
