<?xml version="1.0" encoding="utf-8"?>
<!-- Generator: Adobe Illustrator 24.0.1, SVG Export Plug-In . SVG Version: 6.00 Build 0)  -->
<svg version="1.1" id="图层_1" xmlns="http://www.w3.org/2000/svg" xmlns:xlink="http://www.w3.org/1999/xlink" x="0px" y="0px"
	 viewBox="0 0 56 56" style="enable-background:new 0 0 56 56;" xml:space="preserve">
<style type="text/css">
	.st0{fill:#8B9ED4;}
</style>
<g>
	<path class="st0" d="M21.6,14L21.6,14L21.6,14 M19.3,16l0,6.1l-3.1,0c-1.7,0-3-1.3-3-3c0-0.8,0.3-1.6,0.9-2.1
		c0.6-0.6,1.3-0.9,2.1-0.9H19.3 M19.6,14C19.6,14,19.6,14,19.6,14L19.6,14l-3.4,0c-2.8,0-5,2.3-5,5.1c0,2.8,2.3,5,5,5c0,0,0,0,0,0
		h3.3c0.5,0,0.9-0.2,1.2-0.5c0.3-0.3,0.5-0.8,0.5-1.2v-6.6c0-0.5-0.2-0.9-0.5-1.2C20.5,14.2,20.1,14,19.6,14L19.6,14z"/>
	<path class="st0" d="M36.7,15.7L36.7,15.7L36.7,15.7 M39.4,16c0.1,0,0.2,0,0.2,0h0.1c1.7,0,3,1.4,3,3c0,1.7-1.4,3-3,3l-3.1,0
		c0,0,0,0,0-0.1v-6c0,0,0,0,0-0.1H39.4 M39.7,14h-3.3c-0.9,0-1.7,0.8-1.7,1.7l0,0v6.6l0,0c0,0.9,0.8,1.7,1.7,1.7h3.4
		c2.8,0,5-2.3,5-5C44.8,16.3,42.5,14,39.7,14L39.7,14L39.7,14L39.7,14z"/>
	<g>
		<path class="st0" d="M27.3,14h1.3c0.2,0,0.3,0,0.4,0.1c0.1,0.1,0.2,0.3,0.1,0.4v8.9c0,0.2,0,0.3-0.1,0.4c-0.1,0.1-0.3,0.2-0.4,0.1
			h-1.3c-0.2,0-0.3,0-0.4-0.1c-0.1-0.1-0.2-0.3-0.1-0.4v-8.9c0-0.2,0-0.3,0.1-0.4C27,14,27.2,14,27.3,14L27.3,14z"/>
		<path class="st0" d="M14.3,32.6l1.2-0.6C15.7,32,15.8,32,16,32c0.2,0.1,0.3,0.2,0.3,0.3l3.8,8.1c0.1,0.1,0.1,0.3,0,0.5
			c-0.1,0.2-0.2,0.3-0.3,0.3l-1.2,0.6c-0.1,0.1-0.3,0.1-0.5,0.1c-0.2-0.1-0.3-0.2-0.3-0.3L14,33.4C14,33.3,13.9,33.1,14,33
			C14,32.8,14.2,32.7,14.3,32.6L14.3,32.6z"/>
		<path class="st0" d="M40.5,32.1l1.2,0.6c0.2,0,0.3,0.2,0.3,0.3c0.1,0.2,0,0.3,0,0.5l-3.8,8.1c0,0.2-0.2,0.3-0.3,0.3
			c-0.2,0.1-0.3,0-0.5-0.1l-1.2-0.6c-0.2,0-0.3-0.2-0.3-0.3c-0.1-0.2,0-0.3,0-0.5l3.8-8.1c0-0.2,0.2-0.3,0.3-0.3
			C40.2,32,40.3,32,40.5,32.1L40.5,32.1z"/>
	</g>
	<path class="st0" d="M40.5,32.1"/>
	<path class="st0" d="M54,2v52H2V2H54 M54,0H2C0.9,0,0,0.9,0,2v52c0,1.1,0.9,2,2,2h52c1.1,0,2-0.9,2-2V2C56,0.9,55.1,0,54,0L54,0z"
		/>
</g>
</svg>
