<?xml version="1.0" encoding="utf-8"?>
<!-- Generator: Adobe Illustrator 24.0.1, SVG Export Plug-In . SVG Version: 6.00 Build 0)  -->
<svg version="1.1" id="图层_1" xmlns="http://www.w3.org/2000/svg" xmlns:xlink="http://www.w3.org/1999/xlink" x="0px" y="0px"
	 viewBox="0 0 55 56" style="enable-background:new 0 0 55 56;" xml:space="preserve">
<style type="text/css">
	.st0{fill:#8B9ED4;}
</style>
<g>
	<g>
		<path class="st0" d="M26,2v52H2V2H26 M28,0H2C0.9,0,0,0.9,0,2v52c0,1.1,0.9,2,2,2h26V0L28,0z"/>
		<g>
			<path class="st0" d="M13.4,16.6h1.3c0.2,0,0.3,0,0.4,0.1c0.1,0.1,0.2,0.3,0.1,0.4v8.9c0,0.2,0,0.3-0.1,0.4
				c-0.1,0.1-0.3,0.2-0.4,0.1h-1.3c-0.2,0-0.3,0-0.4-0.1c-0.1-0.1-0.2-0.3-0.1-0.4v-8.9c0-0.2,0-0.3,0.1-0.4
				C13,16.6,13.2,16.6,13.4,16.6L13.4,16.6z"/>
			<path class="st0" d="M5.3,30.2l1.2-0.6c0.1-0.1,0.3-0.1,0.5-0.1c0.2,0.1,0.3,0.2,0.3,0.3L11,38c0.1,0.1,0.1,0.3,0,0.5
				c-0.1,0.2-0.2,0.3-0.3,0.3l-1.2,0.6c-0.1,0.1-0.3,0.1-0.5,0.1c-0.2-0.1-0.3-0.2-0.3-0.3L5,31c-0.1-0.1-0.1-0.3-0.1-0.5
				C5,30.4,5.1,30.2,5.3,30.2L5.3,30.2z"/>
			<path class="st0" d="M21.5,29.7l1.2,0.6c0.2,0,0.3,0.2,0.3,0.3c0.1,0.2,0,0.3,0,0.5L19.2,39c0,0.2-0.2,0.3-0.3,0.3
				c-0.2,0.1-0.3,0-0.5-0.1l-1.2-0.6c-0.2,0-0.3-0.2-0.3-0.3c-0.1-0.2,0-0.3,0-0.5l3.8-8.1c0-0.2,0.2-0.3,0.3-0.3
				C21.2,29.5,21.4,29.6,21.5,29.7L21.5,29.7z"/>
		</g>
	</g>
	<path class="st0" d="M53,2v52H29V2H53 M53,0H27v56h26c1.1,0,2-0.9,2-2V2C55,0.9,54.1,0,53,0L53,0z"/>
	<g>
		<path class="st0" d="M40.4,16.6h1.3c0.2,0,0.3,0,0.4,0.1c0.1,0.1,0.2,0.3,0.1,0.4v8.9c0,0.2,0,0.3-0.1,0.4
			c-0.1,0.1-0.3,0.2-0.4,0.1h-1.3c-0.2,0-0.3,0-0.4-0.1c-0.1-0.1-0.2-0.3-0.1-0.4v-8.9c0-0.2,0-0.3,0.1-0.4
			C40,16.6,40.2,16.6,40.4,16.6L40.4,16.6z"/>
		<path class="st0" d="M32.3,30.2l1.2-0.6c0.1-0.1,0.3-0.1,0.5-0.1c0.2,0.1,0.3,0.2,0.3,0.3L38,38c0.1,0.1,0.1,0.3,0,0.5
			c-0.1,0.2-0.2,0.3-0.3,0.3l-1.2,0.6c-0.1,0.1-0.3,0.1-0.5,0.1c-0.2-0.1-0.3-0.2-0.3-0.3L32,31c-0.1-0.1-0.1-0.3-0.1-0.5
			C32,30.4,32.1,30.2,32.3,30.2L32.3,30.2z"/>
		<path class="st0" d="M48.5,29.7l1.2,0.6c0.2,0,0.3,0.2,0.3,0.3c0.1,0.2,0,0.3,0,0.5L46.2,39c0,0.2-0.2,0.3-0.3,0.3
			c-0.2,0.1-0.3,0-0.5-0.1l-1.2-0.6c-0.2,0-0.3-0.2-0.3-0.3c-0.1-0.2,0-0.3,0-0.5l3.8-8.1c0-0.2,0.2-0.3,0.3-0.3
			C48.2,29.5,48.4,29.6,48.5,29.7L48.5,29.7z"/>
	</g>
</g>
</svg>
