<?xml version="1.0" encoding="utf-8"?>
<!-- Generator: Adobe Illustrator 24.0.1, SVG Export Plug-In . SVG Version: 6.00 Build 0)  -->
<svg version="1.1" id="图层_1" xmlns="http://www.w3.org/2000/svg" xmlns:xlink="http://www.w3.org/1999/xlink" x="0px" y="0px"
	 viewBox="0 0 60 31" style="enable-background:new 0 0 60 31;" xml:space="preserve">
<style type="text/css">
	.st0{fill:#8B9ED4;}
</style>
<g>
	<g>
		<path class="st0" d="M54.1,2v27H2V2H54.1 M56.1,0H0v31h56.1V0z"/>
	</g>
	<g>
		<polygon class="st0" points="60,28.1 56.1,31 56.1,0 60,2.9 		"/>
	</g>
	<g>
		<polygon class="st0" points="3.8,28.1 0.7,31 0.7,0 3.8,2.9 		"/>
	</g>
	<g>
		<rect x="5.8" y="4.8" class="st0" width="1.9" height="1.9"/>
	</g>
	<g>
		<rect x="5.8" y="14.5" class="st0" width="1.9" height="1.9"/>
	</g>
	<g>
		<rect x="5.8" y="24.2" class="st0" width="1.9" height="1.9"/>
	</g>
	<g>
		<rect x="5.8" y="4.8" class="st0" width="1.9" height="1.9"/>
	</g>
	<g>
		<rect x="5.8" y="14.5" class="st0" width="1.9" height="1.9"/>
	</g>
	<g>
		<rect x="5.8" y="24.2" class="st0" width="1.9" height="1.9"/>
	</g>
	<g>
		<rect x="5.8" y="9.7" class="st0" width="1.9" height="1.9"/>
	</g>
	<g>
		<rect x="5.8" y="19.4" class="st0" width="1.9" height="1.9"/>
	</g>
	<g>
		<path class="st0" d="M10.6,4.8v5.8H30V4.8H10.6z M23.2,8.7c-0.6,0-1-0.4-1-1c0-0.6,0.4-1,1-1s1,0.4,1,1
			C24.2,8.3,23.8,8.7,23.2,8.7z M27.1,8.7c-0.6,0-1-0.4-1-1c0-0.6,0.4-1,1-1s1,0.4,1,1C28.1,8.3,27.7,8.7,27.1,8.7z"/>
	</g>
	<g>
		<path class="st0" d="M10.6,12.6v5.8H30v-5.8H10.6z M23.2,16.5c-0.6,0-1-0.4-1-1c0-0.6,0.4-1,1-1s1,0.4,1,1
			C24.2,16.1,23.8,16.5,23.2,16.5z M27.1,16.5c-0.6,0-1-0.4-1-1c0-0.6,0.4-1,1-1s1,0.4,1,1C28.1,16.1,27.7,16.5,27.1,16.5z"/>
	</g>
	<g>
		<path class="st0" d="M10.6,12.6v5.8H30v-5.8H10.6z M23.2,16.5c-0.6,0-1-0.4-1-1c0-0.6,0.4-1,1-1s1,0.4,1,1
			C24.2,16.1,23.8,16.5,23.2,16.5z M27.1,16.5c-0.6,0-1-0.4-1-1c0-0.6,0.4-1,1-1s1,0.4,1,1C28.1,16.1,27.7,16.5,27.1,16.5z"/>
	</g>
	<g>
		<path class="st0" d="M10.6,20.3v5.8H30v-5.8H10.6z M23.2,24.2c-0.6,0-1-0.4-1-1c0-0.6,0.4-1,1-1s1,0.4,1,1
			C24.2,23.8,23.8,24.2,23.2,24.2z M27.1,24.2c-0.6,0-1-0.4-1-1c0-0.6,0.4-1,1-1s1,0.4,1,1C28.1,23.8,27.7,24.2,27.1,24.2z"/>
	</g>
</g>
</svg>
