<?xml version="1.0" encoding="utf-8"?>
<!-- Generator: Adobe Illustrator 24.0.1, SVG Export Plug-In . SVG Version: 6.00 Build 0)  -->
<svg version="1.1" id="图层_1" xmlns="http://www.w3.org/2000/svg" xmlns:xlink="http://www.w3.org/1999/xlink" x="0px" y="0px"
	 viewBox="0 0 60 36" style="enable-background:new 0 0 60 36;" xml:space="preserve">
<style type="text/css">
	.st0{fill:#8B9ED4;}
</style>
<g>
	<g>
		<g>
			<path class="st0" d="M58,2v32H2V2H58 M58,0H2C0.9,0,0,0.9,0,2v32c0,1.1,0.9,2,2,2h56c1.1,0,2-0.9,2-2V2C60,0.9,59.1,0,58,0L58,0z
				"/>
		</g>
	</g>
	<g>
		<path class="st0" d="M21.8,5.1c7,0,12.6,5.7,12.6,12.6s-5.7,12.6-12.6,12.6S9.2,24.7,9.2,17.7S14.9,5.1,21.8,5.1 M21.8,4.1
			c-7.5,0-13.6,6.1-13.6,13.6c0,7.5,6.1,13.6,13.6,13.6s13.6-6.1,13.6-13.6C35.5,10.2,29.3,4.1,21.8,4.1L21.8,4.1z"/>
	</g>
	<g>
		<polygon class="st0" points="45,6.8 55.9,6.8 54.5,5.5 46.4,5.5 		"/>
	</g>
	<g>
		<polygon class="st0" points="45,10.9 55.9,10.9 54.5,9.5 46.4,9.5 		"/>
	</g>
	<g>
		<polygon class="st0" points="45,15 55.9,15 54.5,13.6 46.4,13.6 		"/>
	</g>
	<g>
		<rect x="40.9" y="1.4" class="st0" width="1.4" height="32.7"/>
	</g>
	<g>
		<g>
			<path class="st0" d="M17.2,21.1c0.3-0.3,0.9-0.6,1.5-0.6c3.1,0,4,3.4,7.4,0.9c-0.3-1.8-1.9-5.5-4.6-10.5
				C19,15.6,17.5,19.3,17.2,21.1z"/>
		</g>
		<g>
			<path class="st0" d="M21.8,9.4c5.3,8.5,5.7,11.8,5.7,12.6c0,1.5-0.6,3-1.6,4c-1.1,1.1-2.5,1.7-4.1,1.7c-3.2,0-5.7-2.5-5.7-5.7
				C16.1,21.2,16.5,17.9,21.8,9.4 M21.8,5.7c-5.2,8-7.7,13.5-7.7,16.3c0,4.3,3.4,7.7,7.7,7.7s7.7-3.4,7.7-7.7
				C29.5,19.3,27.1,13.7,21.8,5.7L21.8,5.7z"/>
		</g>
	</g>
</g>
</svg>
