<?xml version="1.0" encoding="utf-8"?>
<!-- Generator: Adobe Illustrator 24.0.1, SVG Export Plug-In . SVG Version: 6.00 Build 0)  -->
<svg version="1.1" id="图层_1" xmlns="http://www.w3.org/2000/svg" xmlns:xlink="http://www.w3.org/1999/xlink" x="0px" y="0px"
	 viewBox="0 0 52 52" style="enable-background:new 0 0 52 52;" xml:space="preserve">
<style type="text/css">
	.st0{fill:#8B9ED4;}
</style>
<g>
	<g>
		<path class="st0" d="M48.2,2c0.5,0,0.9,0.2,1.3,0.5C49.8,2.9,50,3.3,50,3.8v44.4c0,0.5-0.2,0.9-0.5,1.3c-0.3,0.3-0.8,0.5-1.3,0.5
			H3.8c-0.5,0-0.9-0.2-1.3-0.5C2.2,49.1,2,48.7,2,48.2V3.8c0-0.5,0.2-0.9,0.5-1.3C2.9,2.2,3.3,2,3.8,2H48.2 M48.2,0H3.8
			c-1,0-2,0.4-2.7,1.1C0.4,1.8,0,2.8,0,3.8v44.4c0,1,0.4,2,1.1,2.7C1.8,51.6,2.8,52,3.8,52h44.4c1,0,2-0.4,2.7-1.1
			c0.7-0.7,1.1-1.7,1.1-2.7V3.8c0-1-0.4-2-1.1-2.7C50.2,0.4,49.2,0,48.2,0L48.2,0z"/>
	</g>
	<g>
		<path class="st0" d="M22.9,12.2L22.9,12.2L22.9,12.2 M21.6,14.2c1.1,2,2.4,4.8,2.4,5.6c0,1.1-1.1,2.1-2.4,2.1s-2.4-0.9-2.4-2.1
			C19.2,19,20.5,16.2,21.6,14.2 M21.6,10.7c-0.5,0-4.4,6.9-4.4,9.1c0,2.3,2,4.1,4.4,4.1c2.4,0,4.4-1.8,4.4-4.1
			C26,17.6,22.1,10.7,21.6,10.7L21.6,10.7z"/>
	</g>
	<g>
		<path class="st0" d="M40.1,26.5c-0.8-0.7-1.9-1.1-3-1v-3.8l3.6,0c0.6,0,1.1-0.5,1.1-1.1c0-0.6-0.5-1.1-1.1-1.1h-3.6v-2.2h3.6
			c0.6,0,1.1-0.5,1.1-1.1c0-0.6-0.5-1.1-1.1-1.1h-3.6v-2.2h3.6c0.6,0,1.1-0.5,1.1-1.1c0-0.6-0.5-1.1-1.1-1.1h-3.6V9.5
			c0-0.8-0.7-1.5-1.5-1.5c-0.8,0-1.5,0.7-1.5,1.5v17.4c-1,0.5-2.2,0.4-3-0.3c-1.6-1.4-4-1.4-5.6,0c-1,0.9-2.5,0.9-3.5,0
			c-1.6-1.4-4-1.4-5.6,0c-1,0.9-2.5,0.9-3.5,0c-1-0.9-0.8-0.9-2.4-0.9c-1,0-1.8,0.6-2.2,1.6v14.5c0,1.1,0.9,2,2,2h31.3
			c1.1,0,2-0.9,2-2V26.3C43.6,27.4,40.9,27.2,40.1,26.5L40.1,26.5z"/>
	</g>
	<g>
		<path d="M40.1,26.5"/>
	</g>
</g>
</svg>
