<?xml version="1.0" encoding="utf-8"?>
<!-- Generator: Adobe Illustrator 24.0.1, SVG Export Plug-In . SVG Version: 6.00 Build 0)  -->
<svg version="1.1" id="图层_1" xmlns="http://www.w3.org/2000/svg" xmlns:xlink="http://www.w3.org/1999/xlink" x="0px" y="0px"
	 viewBox="0 0 24 52" style="enable-background:new 0 0 24 52;" xml:space="preserve">
<style type="text/css">
	.st0{fill:#8B9ED4;}
</style>
<g>
	<g>
		<path class="st0" d="M15,2c2.2,0,4,1.8,4,4v30c0,0,0,0.1,0,0.1c-0.1,0.6,0.2,1.2,0.7,1.7C21.2,39.1,22,41,22,43c0,3.9-3.1,7-7,7
			s-7-3.1-7-7c0-2,0.8-3.9,2.3-5.2c0.5-0.4,0.7-1,0.7-1.7c0,0,0-0.1,0-0.1V6C11,3.8,12.8,2,15,2 M15,0c-3.3,0-6,2.7-6,6v30
			c0,0.1,0,0.2,0,0.3C7.1,38,6,40.4,6,43c0,5,4,9,9,9s9-4,9-9c0-2.6-1.1-5-3-6.7c0-0.1,0-0.2,0-0.3V6C21,2.7,18.3,0,15,0L15,0z"/>
	</g>
	<g>
		<path class="st0" d="M17,41h-4V25c0-1.1,0.9-2,2-2l0,0c1.1,0,2,0.9,2,2V41z"/>
	</g>
	<g>
		<g>
			<g>
				<rect y="8" class="st0" width="8" height="2"/>
			</g>
			<g>
				<rect x="4" y="12" class="st0" width="4" height="2"/>
			</g>
			<g>
				<rect x="4" y="16" class="st0" width="4" height="2"/>
			</g>
		</g>
		<g>
			<g>
				<rect y="20" class="st0" width="8" height="2"/>
			</g>
			<g>
				<rect y="32" class="st0" width="8" height="2"/>
			</g>
			<g>
				<rect x="4" y="24" class="st0" width="4" height="2"/>
			</g>
			<g>
				<rect x="4" y="28" class="st0" width="4" height="2"/>
			</g>
		</g>
	</g>
	<path class="st0" d="M15,39c-2.2,0-4,1.8-4,4c0,2.2,1.8,4,4,4s4-1.8,4-4C19,40.8,17.2,39,15,39z M15,45.5v-1c0.8,0,1.5-0.7,1.5-1.5
		h1C17.5,44.4,16.4,45.5,15,45.5z"/>
</g>
</svg>
