<?xml version="1.0" encoding="utf-8"?>
<!-- Generator: Adobe Illustrator 24.0.1, SVG Export Plug-In . SVG Version: 6.00 Build 0)  -->
<svg version="1.1" id="图层_1" xmlns="http://www.w3.org/2000/svg" xmlns:xlink="http://www.w3.org/1999/xlink" x="0px" y="0px"
	 viewBox="0 0 60 60" style="enable-background:new 0 0 60 60;" xml:space="preserve">
<style type="text/css">
	.st0{fill:#8B9ED4;}
</style>
<g>
	<g>
		<path class="st0" d="M45,49.5c0.4-0.4,1.1-0.7,1.9-0.7c3.8,0,4.9,4.1,9,1.1c-0.4-2.2-2.2-6.7-5.6-12.7
			C47.3,42.8,45.4,47.3,45,49.5z"/>
	</g>
	<g>
		<path class="st0" d="M15.7,38.7L39,15.5c0.8-0.7,1.9-0.7,2.6,0s0.8,1.9,0,2.6L18.4,41.3c0.4,0.7,0.4,1.5,0.4,2.2
			c0,3-2.6,5.6-5.6,5.6s-5.6-2.6-5.6-5.6c0-3,2.6-5.6,5.6-5.6C14.2,37.9,15,38.3,15.7,38.7L15.7,38.7z"/>
	</g>
	<g>
		<path class="st0" d="M48,2c1.9,0,3.7,0.8,4.9,2.1c1.5,1.6,2.3,3.8,2.1,5.9c-0.1,1.2-0.5,3-2,4.3c0,0-0.1,0-0.1,0.1l-28.1,28
			c-0.4,0.3-0.6,0.8-0.6,1.3c-0.3,6-5,10.4-11.1,10.4C7,54.3,2,49.5,2,43.5c0-5.9,5-10.7,11.1-10.7c0.5,0,1-0.2,1.4-0.6l28.1-28
			C44.1,2.8,46,2,48,2 M48,0c-2.4,0-4.8,0.9-6.7,2.8l-28.1,28C6,30.8,0,36.4,0,43.5c0,7.1,6,12.7,13.1,12.7
			c7.1,0,12.8-5.2,13.1-12.3l28.1-28c3.8-3.4,3.4-9.3,0-13.1C52.7,0.9,50.3,0,48,0L48,0z"/>
	</g>
	<g>
		<path class="st0" d="M50.6,34.5c6.8,10.9,7.4,15,7.4,16.1c0,2-0.7,3.8-2.1,5.2c-1.4,1.4-3.2,2.1-5.3,2.1c-4.1,0-7.4-3.2-7.4-7.3
			C43.3,49.6,43.8,45.4,50.6,34.5 M50.6,30.8c-6.4,9.7-9.4,16.5-9.4,19.8c0,5.2,4.1,9.3,9.4,9.3s9.4-4.1,9.4-9.3
			C60,47.3,57,40.6,50.6,30.8L50.6,30.8z"/>
	</g>
</g>
</svg>
