<?xml version="1.0" encoding="utf-8"?>
<!-- Generator: Adobe Illustrator 24.0.1, SVG Export Plug-In . SVG Version: 6.00 Build 0)  -->
<svg version="1.1" id="图层_1" xmlns="http://www.w3.org/2000/svg" xmlns:xlink="http://www.w3.org/1999/xlink" x="0px" y="0px"
	 viewBox="0 0 34 52" style="enable-background:new 0 0 34 52;" xml:space="preserve">
<style type="text/css">
	.st0{fill:#8B9ED4;}
</style>
<g>
	<g>
		<path class="st0" d="M6.7,33.3c0.7-0.7,2-1.3,3.3-1.3c6.7,0,8.7,7.3,16.1,2c-0.7-4-4-12-10-22.7C10.7,21.3,7.4,29.3,6.7,33.3z"/>
	</g>
	<g>
		<path class="st0" d="M16.7,3.7c13.2,20.7,14.7,29,14.7,31.7c0,4-1.5,7.6-4.2,10.4c-2.8,2.8-6.5,4.3-10.5,4.3C8.5,50,2,43.6,2,35.3
			C2,32.7,3.5,24.3,16.7,3.7 M16.7,0C5.4,17.3,0,29.3,0,35.3C0,44.7,7.4,52,16.7,52s16.7-7.3,16.7-16.7C33.4,29.3,28.1,17.3,16.7,0
			L16.7,0z"/>
	</g>
</g>
</svg>
