<?xml version="1.0" encoding="utf-8"?>
<!-- Generator: Adobe Illustrator 24.0.1, SVG Export Plug-In . SVG Version: 6.00 Build 0)  -->
<svg version="1.1" id="图层_1" xmlns="http://www.w3.org/2000/svg" xmlns:xlink="http://www.w3.org/1999/xlink" x="0px" y="0px"
	 viewBox="0 0 52 60" style="enable-background:new 0 0 52 60;" xml:space="preserve">
<style type="text/css">
	.st0{fill:#8B9ED4;}
</style>
<g id="漏水_1_" transform="translate(1298)">
	<g id="Fill_1_1_">
		<path class="st0" d="M-1298,37h52v-2h-52V37z"/>
	</g>
	<g id="编组_1_" transform="translate(5)">
		<g id="Fill_2_1_">
			<path class="st0" d="M-1269,28c0,1.1-0.9,2-2,2c-1.1,0-2-0.9-2-2c0-1.1,0.9-2,2-2C-1269.9,26-1269,26.9-1269,28"/>
		</g>
		<g id="Fill_4_1_">
			<path class="st0" d="M-1275,17c1.1,0,2,0.9,2,2c0,1.1-0.9,2-2,2s-2-0.9-2-2C-1277,17.9-1276.1,17-1275,17"/>
		</g>
		<g id="Fill_6_1_">
			<path class="st0" d="M-1279,30c-1.1,0-2-0.9-2-2c0-1.1,0.9-2,2-2c1.1,0,2,0.9,2,2C-1277,29.1-1277.9,30-1279,30"/>
		</g>
		<g id="Fill_8_1_">
			<path class="st0" d="M-1259.8,30c-4.3-10.1-14.3-23.1-17.2-26.8c-2.9,3.7-12.8,16.7-17.2,26.8l-1.8-0.8
				c5.2-12,17.7-27.6,18.2-28.2l0.8-1l0.8,1c0.5,0.7,13,16.2,18.2,28.2L-1259.8,30z"/>
		</g>
		<g id="Fill_10_1_">
			<path class="st0" d="M-1277,60c-1.5,0-2.9-0.2-4.3-0.5c-8.4-1.9-15-9-16.7-18.2l2-0.4c1.6,8.4,7.5,14.9,15.1,16.6
				c4.8,1.1,9.7,0.1,13.8-2.6c4.8-3.2,8.1-8.3,9.1-14l2,0.4c-1.1,6.2-4.7,11.8-10,15.3C-1269.2,58.8-1273.1,60-1277,60"/>
		</g>
	</g>
</g>
</svg>
