<?xml version="1.0" encoding="utf-8"?>
<!-- Generator: Adobe Illustrator 24.0.1, SVG Export Plug-In . SVG Version: 6.00 Build 0)  -->
<svg version="1.1" id="图层_1" xmlns="http://www.w3.org/2000/svg" xmlns:xlink="http://www.w3.org/1999/xlink" x="0px" y="0px"
	 viewBox="0 0 40 56" style="enable-background:new 0 0 40 56;" xml:space="preserve">
<style type="text/css">
	.st0{fill:#8B9ED4;}
</style>
<g>
	<path class="st0" d="M38,2v52H2V2H38 M38,0H2C0.9,0,0,0.9,0,2v52c0,1.1,0.9,2,2,2h36c1.1,0,2-0.9,2-2V2C40,0.9,39.1,0,38,0L38,0z"
		/>
	<g>
		<circle class="st0" cx="8" cy="8" r="2"/>
		<circle class="st0" cx="8" cy="16" r="2"/>
		<circle class="st0" cx="8" cy="24" r="2"/>
		<circle class="st0" cx="8" cy="32" r="2"/>
		<circle class="st0" cx="8" cy="40" r="2"/>
		<circle class="st0" cx="16" cy="8" r="2"/>
		<circle class="st0" cx="24" cy="8" r="2"/>
		<circle class="st0" cx="32" cy="8" r="2"/>
		<circle class="st0" cx="32" cy="16" r="2"/>
		<circle class="st0" cx="32" cy="24" r="2"/>
		<circle class="st0" cx="32" cy="32" r="2"/>
		<circle class="st0" cx="32" cy="40" r="2"/>
		<circle class="st0" cx="32" cy="48" r="2"/>
		<circle class="st0" cx="24" cy="48" r="2"/>
		<circle class="st0" cx="16" cy="48" r="2"/>
		<circle class="st0" cx="8" cy="48" r="2"/>
	</g>
</g>
</svg>
