<?xml version="1.0" encoding="UTF-8"?>
<svg width="60px" height="44px" viewBox="0 0 60 44" version="1.1" xmlns="http://www.w3.org/2000/svg" xmlns:xlink="http://www.w3.org/1999/xlink">
    <title>烟感</title>
    <defs>
        <polygon id="path-1" points="0 0 59.9993344 0 59.9993344 43.9994151 0 43.9994151"></polygon>
    </defs>
    <g id="页面-1" stroke="none" stroke-width="1" fill="none" fill-rule="evenodd">
        <g id="监控管理-设备状态" transform="translate(-1768.000000, -179.000000)">
            <g id="编组-2" transform="translate(176.000000, 80.000000)">
                <g id="编组-6" transform="translate(88.000000, 90.000000)">
                    <g id="烟感" transform="translate(1504.000000, 9.000000)">
                        <g id="编组">
                            <mask id="mask-2" fill="white">
                                <use xlink:href="#path-1"></use>
                            </mask>
                            <g id="Clip-2"></g>
                            <path d="M57.8548,15.5324 C58.3548,13.0104 57.7548,10.8924 55.9548,9.2784 C54.2528,7.8664 52.3528,6.4544 50.2508,5.5484 C39.3468,1.0084 27.9428,0.7064 16.6388,3.4284 C12.6368,4.3364 8.9348,6.1524 5.3328,8.0684 C2.6328,9.5804 1.2308,12.2044 1.9308,15.6324 C12.7348,4.6404 46.1488,4.2364 57.8548,15.5324 M8.8348,29.0464 C8.9348,28.8444 9.1348,28.7424 9.2348,28.5424 C8.5348,27.0304 7.8328,25.5164 7.2328,23.9044 C7.0348,23.2984 7.2328,22.5904 7.2328,21.8864 C7.7328,22.2904 8.5348,22.5904 8.8348,23.1964 C10.6368,27.2324 12.4368,31.2644 14.1368,35.4024 C15.0368,37.8224 16.7368,39.3324 19.0388,40.2404 C26.2408,42.8644 33.4448,42.8644 40.6468,40.3424 C43.0488,39.4344 44.7488,37.8224 45.7488,35.4024 C47.3508,31.4684 49.0508,27.5344 50.8508,23.6004 C51.1508,22.8944 51.8528,22.3904 52.4528,21.7844 C52.4528,22.5904 52.5528,23.4984 52.3528,24.3064 C51.8528,25.8204 51.1508,27.1304 50.5528,28.5424 C50.7508,28.6444 50.8508,28.8444 51.0528,28.9464 C52.6508,27.8364 54.3528,26.8264 55.8548,25.4144 C58.9548,22.4904 58.9548,19.0624 55.8548,16.2384 C54.2528,14.8244 52.3528,13.5144 50.3508,12.7084 C38.3468,7.8664 25.9408,7.6644 13.6368,11.2964 C10.2348,12.3044 7.0348,14.2204 4.2328,16.3384 C0.7308,18.9604 0.9308,22.5904 3.9328,25.4144 C5.4328,26.8264 7.2328,27.8364 8.8348,29.0464 M29.0428,-0.0016 C37.0468,0.1004 43.9488,0.9084 50.5528,3.8324 C52.6508,4.7404 54.6528,6.0524 56.5548,7.5644 C58.8548,9.3804 60.0568,11.9024 59.8548,14.9264 C59.7548,15.9344 59.7548,16.8424 59.8548,17.8504 C60.7548,24.0024 57.3548,27.7364 52.3528,30.0564 C49.9508,31.1644 48.4508,32.5764 47.6488,35.0984 C46.3508,39.4344 43.1468,41.6544 38.9468,42.7624 C33.1448,44.3764 27.3428,44.3764 21.5408,42.9644 C16.8368,41.8544 13.3368,39.4344 11.9368,34.5924 C11.3348,32.3744 10.0348,31.0644 7.8328,30.1564 C6.0348,29.4504 4.4328,28.1404 2.9328,26.8264 C0.9308,25.1124 -0.0692,22.8944 0.0308,20.1704 C0.1308,18.5584 0.1308,16.9444 0.0308,15.3284 C-0.2692,11.2964 1.6328,8.4724 4.7328,6.3544 C10.3348,2.5204 16.6388,1.1084 23.2408,0.4044 C25.3408,0.1004 27.6428,0.1004 29.0428,-0.0016" id="Fill-1" fill="#8B9ED4" mask="url(#mask-2)"></path>
                        </g>
                        <path d="M29.843,32.3742 C34.429,32.3742 38.145,34.0462 38.145,36.1062 C38.145,38.1662 34.429,39.8382 29.843,39.8382 C25.257,39.8382 21.541,38.1662 21.541,36.1062 C21.541,34.0462 25.257,32.3742 29.843,32.3742" id="Fill-3" fill="#8B9ED4"></path>
                        <path d="M9.2356,17.6496 C9.2356,17.6496 11.8356,15.0276 14.3376,14.3216 L18.9396,26.8276 C18.9396,26.8276 14.6376,28.8456 13.8376,29.6516 L9.2356,17.6496 Z" id="Fill-5" fill="#8B9ED4"></path>
                        <path d="M44.7492,14.3214 C44.7492,14.3214 48.4512,16.1374 49.5512,17.5494 L45.3492,29.5514 C45.3492,29.5514 44.0472,27.8374 40.3472,26.6254 L44.7492,14.3214 Z" id="Fill-7" fill="#8B9ED4"></path>
                        <path d="M23.6398,25.8196 C23.6398,25.8196 31.7438,24.4076 35.3458,25.8196 L35.3458,11.3976 C35.3458,11.3976 30.2438,9.7816 23.6398,11.3976 L23.6398,25.8196 Z" id="Fill-9" fill="#8B9ED4"></path>
                    </g>
                </g>
            </g>
        </g>
    </g>
</svg>