<?xml version="1.0" encoding="utf-8"?>
<!-- Generator: Adobe Illustrator 24.0.1, SVG Export Plug-In . SVG Version: 6.00 Build 0)  -->
<svg version="1.1" id="图层_1" xmlns="http://www.w3.org/2000/svg" xmlns:xlink="http://www.w3.org/1999/xlink" x="0px" y="0px"
	 viewBox="0 0 40 58" style="enable-background:new 0 0 40 58;" xml:space="preserve">
<style type="text/css">
	.st0{fill:#8B9ED4;}
</style>
<g>
	<g>
		<path class="st0" d="M20,2c9.9,0,18,8.1,18,18c0,5.6-2.6,10.9-7.2,14.3c-0.5,0.4-0.8,1-0.8,1.6V42H10v-6.1c0-0.6-0.3-1.2-0.8-1.6
			C4.6,30.9,2,25.6,2,20C2,10.1,10.1,2,20,2 M20,0C9,0,0,9,0,20c0,6.5,3.2,12.3,8,15.9V44h24v-8.1c4.8-3.7,8-9.4,8-15.9
			C40,9,31,0,20,0L20,0z"/>
	</g>
	<g>
		<path class="st0" d="M30,52H10c-0.6,0-1-0.4-1-1s0.4-1,1-1h20c0.6,0,1,0.4,1,1S30.6,52,30,52z"/>
	</g>
	<g>
		<path class="st0" d="M26,58H14c-0.6,0-1-0.4-1-1s0.4-1,1-1h12c0.6,0,1,0.4,1,1S26.6,58,26,58z"/>
	</g>
	<g>
		<polygon class="st0" points="14,38 18.1,25 12,25 18.4,10 24.7,10 20.6,19.7 28,19.7 		"/>
	</g>
</g>
</svg>
