<?xml version="1.0" encoding="utf-8"?>
<!-- Generator: Adobe Illustrator 24.0.1, SVG Export Plug-In . SVG Version: 6.00 Build 0)  -->
<svg version="1.1" id="图层_1" xmlns="http://www.w3.org/2000/svg" xmlns:xlink="http://www.w3.org/1999/xlink" x="0px" y="0px"
	 viewBox="0 0 38 60" style="enable-background:new 0 0 38 60;" xml:space="preserve">
<style type="text/css">
	.st0{fill:#8B9ED4;}
</style>
<g>
	<g>
		<path class="st0" d="M33.9,2C35.1,2,36,2.9,36,4v52v0l0,0c0,0.5-0.2,0.9-0.5,1.3C35.1,57.8,34.6,58,34,58h-30C2.9,58,2,57.1,2,56
			V4c0-1.1,0.9-2,2.1-2H33.9 M33.9,0H4.1C1.8,0,0,1.8,0,4v52c0,2.2,1.8,4,4.1,4h30c2.2,0,4.1-1.8,4-4V4C38,1.8,36.2,0,33.9,0L33.9,0
			z"/>
	</g>
	<g>
		<path class="st0" d="M30,25.3H8c-0.8,0-1.5-0.7-1.5-1.5v-16C6.5,7,7.2,6.3,8,6.3h22c0.8,0,1.5,0.7,1.5,1.5v16
			C31.5,24.6,30.8,25.3,30,25.3z M8,7.3c-0.2,0-0.5,0.2-0.5,0.5v16c0,0.2,0.3,0.5,0.5,0.5h22c0.2,0,0.5-0.3,0.5-0.5v-16
			c0-0.3-0.3-0.5-0.5-0.5H8z"/>
	</g>
	<g>
		<path class="st0" d="M9.1,24.8h22V7.3L9.1,24.8z M29,19.6h-6.7v-1H29V19.6z"/>
	</g>
	<g>
		<path class="st0" d="M28.9,39.2c0.3,0,0.7,0.4,0.7,0.7V53c0,0.5-0.4,0.8-0.7,0.8H8.3c-0.3,0-0.7-0.4-0.7-0.7V39.9
			c0-0.3,0.4-0.7,0.7-0.7H28.9 M28.9,38.2H8.3c-0.9,0-1.7,0.8-1.7,1.7v13.2c0,0.9,0.8,1.7,1.7,1.7h20.6c0.9,0,1.7-0.8,1.7-1.8V39.9
			C30.6,39,29.8,38.2,28.9,38.2L28.9,38.2z"/>
	</g>
	<g>
		<path class="st0" d="M21.6,42.9v7.3h6v-7.3H21.6z M26.5,49.6h-3.8v-1.2h1.1V46h1.5v2.4h1.2V49.6z"/>
	</g>
	<g>
		<path class="st0" d="M9.6,42.9v7.3h6v-7.3H9.6z M14.5,49.6h-3.8v-1.2h1.1V46h1.5v2.4h1.2V49.6z"/>
	</g>
	<g>
		<g>
			<circle class="st0" cx="9.3" cy="29.2" r="1.9"/>
		</g>
		<g>
			<circle class="st0" cx="15.6" cy="29.2" r="1.9"/>
		</g>
		<g>
			<circle class="st0" cx="21.8" cy="29.2" r="1.9"/>
		</g>
		<g>
			<circle class="st0" cx="28.1" cy="29.2" r="1.9"/>
		</g>
	</g>
	<g>
		<path class="st0" d="M10.5,12.6v-1c0.5-0.4,0.8-0.6,1.7-0.6s2.1,0.6,2.9,0.6s1.3-0.5,1.5-0.7v1c-0.2,0.2-0.7,0.5-1.7,0.5
			s-2-0.6-2.9-0.6C11.1,11.8,10.8,12.3,10.5,12.6z"/>
	</g>
</g>
</svg>
