<?xml version="1.0" encoding="utf-8"?>
<!-- Generator: Adobe Illustrator 24.0.1, SVG Export Plug-In . SVG Version: 6.00 Build 0)  -->
<svg version="1.1" id="图层_1" xmlns="http://www.w3.org/2000/svg" xmlns:xlink="http://www.w3.org/1999/xlink" x="0px" y="0px"
	 viewBox="0 0 50 40" style="enable-background:new 0 0 50 40;" xml:space="preserve">
<style type="text/css">
	.st0{fill:#8B9ED4;}
</style>
<g>
	<path class="st0" d="M48.3,8.7v29.7H1.7V8.7H48.3 M50,7H0v33h50V7z"/>
</g>
<g>
	<path class="st0" d="M16.7,1.6v4.8h-10V1.6L16.7,1.6 M16.7,0h-10C5.7,0,5,0.7,5,1.6v4.8C5,7.2,5.8,8,6.7,8h10
		c0.9,0,1.7-0.7,1.7-1.6V1.6C18.3,0.8,17.6,0,16.7,0z"/>
</g>
<g>
	<path class="st0" d="M43.3,1.6v4.8h-10V1.6L43.3,1.6 M43.3,0h-10c-0.9,0-1.7,0.8-1.7,1.6v4.8c0,0.9,0.7,1.6,1.7,1.6h10
		C44.2,8,45,7.3,45,6.4V1.6C45,0.7,44.3,0,43.3,0z"/>
</g>
<g>
	<g>
		<rect x="4" y="8" class="st0" width="2" height="31"/>
	</g>
	<g>
		<rect x="8" y="8" class="st0" width="2" height="31"/>
	</g>
	<g>
		<rect x="12" y="8" class="st0" width="2" height="31"/>
	</g>
	<g>
		<rect x="16" y="8" class="st0" width="2" height="31"/>
	</g>
	<g>
		<rect x="20" y="8" class="st0" width="2" height="31"/>
	</g>
	<g>
		<rect x="24" y="8" class="st0" width="2" height="31"/>
	</g>
	<g>
		<rect x="28" y="8" class="st0" width="2" height="31"/>
	</g>
	<g>
		<rect x="32" y="8" class="st0" width="2" height="31"/>
	</g>
	<g>
		<rect x="36" y="8" class="st0" width="2" height="31"/>
	</g>
	<g>
		<rect x="40" y="8" class="st0" width="2" height="31"/>
	</g>
	<g>
		<rect x="44" y="8" class="st0" width="2" height="31"/>
	</g>
</g>
</svg>
