<?xml version="1.0" encoding="utf-8"?>
<!-- Generator: Adobe Illustrator 24.0.1, SVG Export Plug-In . SVG Version: 6.00 Build 0)  -->
<svg version="1.1" id="图层_1" xmlns="http://www.w3.org/2000/svg" xmlns:xlink="http://www.w3.org/1999/xlink" x="0px" y="0px"
	 viewBox="0 0 60 28" style="enable-background:new 0 0 60 28;" xml:space="preserve">
<style type="text/css">
	.st0{fill:#8B9ED4;}
</style>
<g>
	<g>
		<path class="st0" d="M56.4,1.3c1.3,0,2.4,1.1,2.4,2.4l0,20.8c0,1.3-1.1,2.4-2.4,2.4L3.6,26.7c-1.3,0-2.4-1.1-2.4-2.4l0-20.8
			c0-1.3,1.1-2.4,2.4-2.4L56.4,1.3 M56.4,0.1L3.6,0C1.6,0,0,1.6,0,3.6l0,20.8c0,2,1.6,3.6,3.6,3.6L56.4,28c2,0,3.6-1.6,3.6-3.6
			l0-20.8C60,1.7,58.4,0.1,56.4,0.1L56.4,0.1z"/>
	</g>
	<g>
		<path class="st0" d="M45.8,4.4c5.3,0,9.6,4.3,9.6,9.7s-4.3,9.6-9.7,9.6c-5.3,0-9.6-4.3-9.6-9.7S40.5,4.4,45.8,4.4 M45.8,3
			c-6.1,0-11,4.9-11,11s4.9,11,11,11c6.1,0,11-4.9,11-11C56.8,8,51.9,3.1,45.8,3L45.8,3z"/>
	</g>
	<g>
		<path class="st0" d="M51.6,20.7c-0.8,0-1.5-0.3-2-0.9c-0.1-0.1-0.2-0.2-0.3-0.4l-0.1-0.1c0,0,0-0.1,0-0.1c-0.4-0.7-1.3-2.1-2-2.8
			c0,0-0.1-0.1-0.1-0.1c-0.3,0.1-0.6,0.2-1,0.2c0,0,0,0,0,0c-0.3,0-0.7-0.1-1-0.2c0,0,0,0,0,0c-0.7,1-2.1,2.7-4.6,3.1
			c-0.9,0.3-2,0-2.7-0.8c-0.7-0.7-1-1.8-0.7-2.8c0.3-1,1.1-1.7,2-1.9c0.1,0,0.3-0.1,0.5-0.1c0,0,0.1,0,0.1,0c0.9,0,2.6-0.1,3.5-0.3
			c0,0,0.1,0,0.1,0c0.1-0.6,0.3-1.1,0.7-1.5c0.1-0.1,0.1-0.1,0.2-0.2c0,0,0,0,0,0c-0.5-1.1-1.2-3.2-0.4-5.5c0.3-0.9,1-1.7,2-1.9
			c1-0.2,2,0.1,2.7,0.8C49.5,6,49.7,7,49.4,8c0,0.1-0.1,0.3-0.2,0.5l-0.1,0.1c0,0,0,0.1,0,0.1c-0.4,0.7-1.2,2.2-1.4,3.1
			c0,0,0,0.1,0,0.1c0.1,0.1,0.2,0.1,0.3,0.2c0.4,0.4,0.7,0.9,0.7,1.5c0,0,0,0,0,0c1.2,0.1,3.4,0.5,5,2.4c0.1,0.1,0.3,0.3,0.4,0.5
			c0,0,0,0,0,0c0.7,1.3,0.4,2.8-0.8,3.7C52.8,20.6,52.2,20.7,51.6,20.7z M50.5,18.8C50.5,18.8,50.5,18.9,50.5,18.8
			c0.6,0.6,1.4,0.7,2,0.3c0.6-0.4,0.8-1.2,0.4-1.9c0,0,0,0,0,0c-0.1-0.1-0.1-0.2-0.2-0.3c-1.1-1.3-2.5-1.7-3.5-1.9
			c-0.1,0.4-0.3,0.7-0.6,1c0.8,1,1.7,2.4,1.8,2.6c0,0,0,0.1,0,0.1l0,0.1C50.5,18.7,50.5,18.8,50.5,18.8z M50.3,18.7L50.3,18.7
			L50.3,18.7z M39.7,15.3C39.7,15.4,39.6,15.4,39.7,15.3c-0.6,0.1-1,0.5-1.2,1c-0.2,0.5,0,1.1,0.3,1.4c0.4,0.4,0.9,0.5,1.4,0.4
			c1.6-0.3,2.7-1.3,3.4-2.1c-0.3-0.3-0.5-0.6-0.6-1c-1.3,0.2-2.9,0.2-3.1,0.2c0,0-0.1,0-0.1,0c0,0-0.1,0-0.1,0
			C39.8,15.3,39.7,15.3,39.7,15.3z M39.9,15.2L39.9,15.2C39.9,15.2,39.9,15.2,39.9,15.2z M39.9,15.2C39.9,15.2,39.9,15.2,39.9,15.2
			C39.9,15.2,39.9,15.2,39.9,15.2z M39.9,15.2C39.9,15.2,39.9,15.2,39.9,15.2C39.9,15.2,39.9,15.2,39.9,15.2z M44.8,14
			c0,0.3,0.1,0.7,0.4,0.9c0.2,0.2,0.6,0.4,0.9,0.4c0,0,0,0,0,0c0.7,0,1.3-0.6,1.3-1.3c0-0.3-0.1-0.7-0.4-0.9
			c-0.2-0.2-0.6-0.4-0.9-0.4c0,0,0,0,0,0c-0.3,0-0.7,0.1-0.9,0.4C45,13.3,44.8,13.6,44.8,14L44.8,14z M46.7,5.7c-0.1,0-0.2,0-0.3,0
			c-0.5,0.1-0.9,0.5-1,1c-0.6,1.6-0.2,3,0.1,4c0.4-0.1,0.8-0.1,1.2,0c0.4-1.2,1.2-2.6,1.3-2.8c0,0,0-0.1,0-0.1l0-0.1
			c0,0,0-0.1,0.1-0.1c0,0,0,0,0-0.1c0.2-0.5,0-1-0.3-1.4C47.5,5.9,47.1,5.7,46.7,5.7z M48.1,7.9C48.1,7.9,48.1,7.9,48.1,7.9
			C48.1,7.9,48.1,7.9,48.1,7.9z M48.1,7.9C48.1,7.9,48.1,7.9,48.1,7.9C48.1,7.9,48.1,7.9,48.1,7.9z"/>
	</g>
	<g>
		<g>
			<g>
				<path class="st0" d="M30,6L3.5,6C3.2,6,3,5.7,3,5.4C3,5,3.2,4.8,3.6,4.8l26.5,0c0.3,0,0.6,0.3,0.6,0.6S30.4,6,30,6z"/>
			</g>
		</g>
		<g>
			<g>
				<path class="st0" d="M30,11.4l-26.5,0c-0.3,0-0.6-0.3-0.6-0.6c0-0.3,0.3-0.6,0.6-0.6l26.5,0c0.3,0,0.6,0.3,0.6,0.6
					C30.6,11.2,30.3,11.4,30,11.4z"/>
			</g>
		</g>
		<g>
			<g>
				<path class="st0" d="M30,16.8l-26.5,0c-0.3,0-0.6-0.3-0.6-0.6c0-0.3,0.3-0.6,0.6-0.6l26.5,0c0.3,0,0.6,0.3,0.6,0.6
					S30.3,16.8,30,16.8z"/>
			</g>
		</g>
		<g>
			<g>
				<path class="st0" d="M30,22.2l-26.5,0c-0.3,0-0.6-0.3-0.6-0.6S3.2,21,3.5,21L30,21c0.3,0,0.6,0.3,0.6,0.6S30.3,22.2,30,22.2z"/>
			</g>
		</g>
	</g>
</g>
</svg>
