<?xml version="1.0" encoding="utf-8"?>
<!-- Generator: Adobe Illustrator 24.0.1, SVG Export Plug-In . SVG Version: 6.00 Build 0)  -->
<svg version="1.1" id="图层_1" xmlns="http://www.w3.org/2000/svg" xmlns:xlink="http://www.w3.org/1999/xlink" x="0px" y="0px"
	 viewBox="0 0 30 60" style="enable-background:new 0 0 30 60;" xml:space="preserve">
<style type="text/css">
	.st0{fill:#8B9ED4;}
</style>
<g id="页面-1_4_">
	<g id="监控管理-设备状态备份_3_" transform="translate(-1592.000000, -450.000000)">
		<g id="红外设备_1_" transform="translate(1592.000000, 450.000000)">
			<g id="形状结合_5_">
				<path class="st0" d="M21.5,18c2.5,0,4.5,2,4.5,4.4V52c0,5.2-6.4,7.9-11,7.9c-2.4,0-5-0.7-7-1.8c-2.6-1.5-4-3.6-4-6.1V22.4
					C4,19.9,6,18,8.5,18H21.5z M24,32H6L6,52c0,1.7,1,3.2,3,4.4c1.7,1,4,1.6,6,1.6c4.5,0,8.8-2.6,9-5.8l0-0.2L24,32z M15,49
					c1.1,0,2,0.9,2,2s-0.9,2-2,2s-2-0.9-2-2S13.9,49,15,49z M15,42c1.1,0,2,0.9,2,2s-0.9,2-2,2s-2-0.9-2-2S13.9,42,15,42z M15,35
					c1.1,0,2,0.9,2,2s-0.9,2-2,2s-2-0.9-2-2S13.9,35,15,35z M21.5,20h-13c-1.3,0-2.4,1-2.5,2.2l0,0.2L6,30h18l0-7.6
					c0-1.3-1-2.3-2.3-2.4L21.5,20z M15,22c1.7,0,3,1.3,3,3s-1.3,3-3,3s-3-1.3-3-3S13.3,22,15,22z M15,24c-0.6,0-1,0.4-1,1s0.4,1,1,1
					s1-0.4,1-1S15.6,24,15,24z M15,12c2.6,0,4.8,0.7,6.6,2.2c0.4,0.3,0.5,1,0.2,1.4c-0.3,0.4-1,0.5-1.4,0.2C18.9,14.6,17.1,14,15,14
					s-3.9,0.6-5.4,1.8c-0.4,0.3-1.1,0.3-1.4-0.2c-0.3-0.4-0.3-1.1,0.2-1.4C10.2,12.7,12.4,12,15,12z M15,6c4.6,0,8.2,1.4,10.8,4.3
					c0.4,0.4,0.3,1-0.1,1.4s-1,0.3-1.4-0.1C22.1,9.2,19.1,8,15,8s-7.1,1.2-9.2,3.7c-0.4,0.4-1,0.5-1.4,0.1c-0.4-0.4-0.5-1-0.1-1.4
					C6.8,7.4,10.4,6,15,6z M14.6,0L15,0c5.1,0.1,9.9,2.2,14.6,6.2c0.4,0.4,0.5,1,0.1,1.4c-0.4,0.4-1,0.5-1.4,0.1C24,4,19.5,2.1,15,2
					C10.4,1.9,6,3.8,1.7,7.7c-0.4,0.4-1,0.3-1.4-0.1s-0.3-1,0.1-1.4C4.9,2.1,9.7,0,14.6,0z"/>
			</g>
		</g>
	</g>
</g>
</svg>
