<?xml version="1.0" encoding="utf-8"?>
<!-- Generator: Adobe Illustrator 24.0.1, SVG Export Plug-In . SVG Version: 6.00 Build 0)  -->
<svg version="1.1" id="图层_1" xmlns="http://www.w3.org/2000/svg" xmlns:xlink="http://www.w3.org/1999/xlink" x="0px" y="0px"
	 viewBox="0 0 54 58" style="enable-background:new 0 0 54 58;" xml:space="preserve">
<style type="text/css">
	.st0{fill:#8B9ED4;}
</style>
<g>
	<g>
		<g>
			<path class="st0" d="M23,58H3c-1.7,0-3-1.3-3-3V3c0-1.7,1.3-3,3-3h20c1.7,0,3,1.3,3,3v16.6c0,0.6-0.4,1-1,1s-1-0.4-1-1V3
				c0-0.6-0.4-1-1-1H3C2.4,2,2,2.4,2,3v52c0,0.6,0.4,1,1,1h20c0.6,0,1-0.4,1-1V37.6c0-0.6,0.4-1,1-1s1,0.4,1,1V55
				C26,56.7,24.7,58,23,58z"/>
		</g>
		<g>
			<path class="st0" d="M51,58H31c-1.7,0-3-1.3-3-3V37.6c0-0.6,0.4-1,1-1s1,0.4,1,1V55c0,0.6,0.4,1,1,1h20c0.6,0,1-0.4,1-1V3
				c0-0.6-0.4-1-1-1H31c-0.6,0-1,0.4-1,1v16.6c0,0.6-0.4,1-1,1s-1-0.4-1-1V3c0-1.7,1.3-3,3-3h20c1.7,0,3,1.3,3,3v52
				C54,56.7,52.7,58,51,58z"/>
		</g>
	</g>
	<g>
		<path class="st0" d="M22,35H8c-0.6,0-1-0.4-1-1V24c0-0.6,0.4-1,1-1h14c0.6,0,1,0.4,1,1s-0.4,1-1,1H9v8h13c0.6,0,1,0.4,1,1
			S22.6,35,22,35z"/>
	</g>
	<g>
		<path class="st0" d="M44,35H31c-0.6,0-1-0.4-1-1s0.4-1,1-1h12v-8H31c-0.6,0-1-0.4-1-1s0.4-1,1-1h13c0.6,0,1,0.4,1,1v10
			C45,34.6,44.6,35,44,35z"/>
	</g>
	<g>
		<path class="st0" d="M33,30H21c-0.6,0-1-0.4-1-1s0.4-1,1-1h12c0.6,0,1,0.4,1,1S33.6,30,33,30z"/>
	</g>
</g>
</svg>
