<?xml version="1.0" encoding="utf-8"?>
<!-- Generator: Adobe Illustrator 24.0.1, SVG Export Plug-In . SVG Version: 6.00 Build 0)  -->
<svg version="1.1" id="图层_1" xmlns="http://www.w3.org/2000/svg" xmlns:xlink="http://www.w3.org/1999/xlink" x="0px" y="0px"
	 viewBox="0 0 50 47" style="enable-background:new 0 0 50 47;" xml:space="preserve">
<style type="text/css">
	.st0{fill:#8B9ED4;}
</style>
<g>
	<g>
		<g>
			<path class="st0" d="M48,2v36H2V2H48 M49,0H1C0.5,0,0,0.5,0,1v38c0,0.6,0.5,1,1,1h48c0.5,0,1-0.4,1-1V1C50,0.5,49.5,0,49,0L49,0z
				"/>
		</g>
	</g>
	<g>
		<path class="st0" d="M42,47H10c-0.6,0-1-0.4-1-1s0.4-1,1-1h32c0.6,0,1,0.4,1,1S42.6,47,42,47z"/>
	</g>
	<g>
		<path class="st0" d="M33.8,18.2L33.8,18.2c0.1-0.1,0.3-0.6,0.1-1c-0.1-0.1-0.3-0.5-0.8-0.5l-0.1,0l-5.6,0l1.4-7.2c0,0,0,0,0-0.1
			c0-0.4,0-0.8-0.3-1.1C28.4,8.1,28.2,8,27.9,8c-0.3,0-0.5,0.1-0.7,0.2c-0.1,0-0.1,0.1-0.2,0.2L16.2,21.1c-0.2,0.3-0.3,0.7-0.1,1.1
			c0.1,0.2,0.4,0.5,1,0.5c0,0,0.1,0,0.1,0h4.9l-2.8,8c0,0,0,0.1,0,0.1c0,0.3,0.1,0.6,0.2,0.8c0.2,0.2,0.5,0.3,0.8,0.3
			c0.2,0,0.4,0,0.6-0.1c0.1,0,0.2-0.1,0.3-0.2L33.8,18.2C33.7,18.3,33.8,18.2,33.8,18.2L33.8,18.2z"/>
	</g>
</g>
</svg>
