<?xml version="1.0" encoding="utf-8"?>
<!-- Generator: Adobe Illustrator 24.0.1, SVG Export Plug-In . SVG Version: 6.00 Build 0)  -->
<svg version="1.1" id="图层_1" xmlns="http://www.w3.org/2000/svg" xmlns:xlink="http://www.w3.org/1999/xlink" x="0px" y="0px"
	 viewBox="0 0 34 60" style="enable-background:new 0 0 34 60;" xml:space="preserve">
<style type="text/css">
	.st0{fill:#8B9ED4;}
</style>
<g>
	<g>
		<path class="st0" d="M12.8,15.6c0.5,0,0.7,0.2,0.7,0.3v41.8c0,0.1-0.3,0.3-0.8,0.3H2.9c-0.5,0-0.7-0.2-0.7-0.3V15.9
			c0-0.1,0.3-0.3,0.8-0.3L12.8,15.6 M12.8,13.6H2.9c-1.5,0-2.7,1-2.7,2.3v41.9C0.2,59,1.4,60,2.9,60h9.8c1.5,0,2.7-1,2.7-2.3V15.8
			C15.5,14.6,14.3,13.6,12.8,13.6L12.8,13.6z"/>
	</g>
	<path class="st0" d="M11.4,31.4L11.4,31.4c0,1.9-1.6,3.5-3.5,3.5l0,0c-1.9,0-3.5-1.6-3.5-3.5l0,0c0-1.9,1.6-3.5,3.5-3.5l0,0
		C9.8,27.9,11.4,29.4,11.4,31.4z"/>
	<g>
		<path class="st0" d="M7.9,18.5c1.4,0,2.5,1.1,2.5,2.5s-1.2,2.6-2.5,2.6S5.3,22.4,5.3,21S6.5,18.5,7.9,18.5 M7.9,17.5
			c-1.9,0-3.5,1.6-3.5,3.5s1.5,3.6,3.5,3.6c1.9,0,3.5-1.6,3.5-3.5S9.8,17.5,7.9,17.5L7.9,17.5z"/>
	</g>
	<g>
		<path class="st0" d="M7.9,39.2c1.4,0,2.5,1.1,2.5,2.5s-1.1,2.5-2.5,2.5s-2.5-1.1-2.5-2.5C5.3,40.3,6.5,39.2,7.9,39.2 M7.9,38.2
			c-1.9,0-3.5,1.6-3.5,3.5s1.6,3.5,3.5,3.5s3.5-1.6,3.5-3.5C11.4,39.7,9.8,38.2,7.9,38.2L7.9,38.2z"/>
	</g>
	<path class="st0" d="M11.4,52L11.4,52c0,1.9-1.6,3.5-3.5,3.5l0,0c-1.9,0-3.5-1.6-3.5-3.5l0,0c0-1.9,1.6-3.5,3.5-3.5l0,0
		C9.8,48.5,11.4,50.1,11.4,52z"/>
	<rect x="5.6" y="12.7" class="st0" width="4.6" height="1.2"/>
	<rect x="6.4" y="11.4" class="st0" width="3.1" height="0.8"/>
	<path class="st0" d="M9.1,14.6c-0.3,0-0.6-0.1-0.8-0.4c-0.3-0.4-3.2-4-2.5-6.5C6,6.8,6.6,6.2,7.5,5.8c0.2,0,0.4-0.1,0.4-0.2
		C7.8,5.4,7.3,4.9,7,4.6c-1-1-2.3-2.4-1.4-4C5.9,0,6.5-0.1,6.9,0.1C7.4,0.4,7.6,1,7.3,1.4C7.2,1.8,7.9,2.6,8.5,3.2
		C9.3,4.1,10.1,5,9.9,6.1c-0.2,1-1.3,1.4-1.6,1.6C7.9,7.8,7.8,8,7.7,8.2C7.4,9.5,9,12,9.8,13c0.3,0.4,0.3,1-0.1,1.4
		C9.5,14.5,9.3,14.6,9.1,14.6z"/>
</g>
<g>
	<g>
		<path class="st0" d="M30.8,15.6c0.5,0,0.7,0.2,0.7,0.3v41.8c0,0.1-0.3,0.3-0.8,0.3h-9.8c-0.5,0-0.7-0.2-0.7-0.3V15.9
			c0-0.1,0.3-0.3,0.8-0.3L30.8,15.6 M30.8,13.6h-9.9c-1.5,0-2.7,1-2.7,2.3v41.9c0,1.2,1.2,2.2,2.7,2.2h9.8c1.5,0,2.7-1,2.7-2.3V15.8
			C33.5,14.6,32.3,13.6,30.8,13.6L30.8,13.6z"/>
	</g>
	<path class="st0" d="M29.4,31.4L29.4,31.4c0,1.9-1.6,3.5-3.5,3.5l0,0c-1.9,0-3.5-1.6-3.5-3.5l0,0c0-1.9,1.6-3.5,3.5-3.5l0,0
		C27.8,27.9,29.4,29.4,29.4,31.4z"/>
	<g>
		<path class="st0" d="M25.9,18.5c1.4,0,2.5,1.1,2.5,2.5s-1.2,2.6-2.5,2.6c-1.3,0-2.6-1.2-2.6-2.6S24.5,18.5,25.9,18.5 M25.9,17.5
			c-1.9,0-3.5,1.6-3.5,3.5s1.5,3.6,3.5,3.6c1.9,0,3.5-1.6,3.5-3.5S27.8,17.5,25.9,17.5L25.9,17.5z"/>
	</g>
	<g>
		<path class="st0" d="M25.9,39.2c1.4,0,2.5,1.1,2.5,2.5s-1.1,2.5-2.5,2.5s-2.5-1.1-2.5-2.5C23.3,40.3,24.5,39.2,25.9,39.2
			 M25.9,38.2c-1.9,0-3.5,1.6-3.5,3.5s1.6,3.5,3.5,3.5s3.5-1.6,3.5-3.5C29.4,39.7,27.8,38.2,25.9,38.2L25.9,38.2z"/>
	</g>
	<path class="st0" d="M29.4,52L29.4,52c0,1.9-1.6,3.5-3.5,3.5l0,0c-1.9,0-3.5-1.6-3.5-3.5l0,0c0-1.9,1.6-3.5,3.5-3.5l0,0
		C27.8,48.5,29.4,50.1,29.4,52z"/>
	<rect x="23.6" y="12.7" class="st0" width="4.6" height="1.2"/>
	<rect x="24.4" y="11.4" class="st0" width="3.1" height="0.8"/>
	<path class="st0" d="M27.1,14.6c-0.3,0-0.6-0.1-0.8-0.4c-0.3-0.4-3.2-4-2.5-6.5c0.2-0.9,0.8-1.5,1.7-1.9c0.2,0,0.4-0.1,0.4-0.2
		c-0.1-0.2-0.6-0.7-0.9-1c-1-1-2.3-2.4-1.4-4c0.3-0.6,0.9-0.7,1.3-0.5c0.5,0.3,0.7,0.9,0.4,1.3c-0.1,0.4,0.6,1.2,1.2,1.8
		c0.8,0.9,1.6,1.8,1.4,2.9c-0.2,1-1.3,1.4-1.6,1.6c-0.4,0.1-0.5,0.3-0.6,0.5C25.4,9.5,27,12,27.8,13c0.3,0.4,0.3,1-0.1,1.4
		C27.5,14.5,27.3,14.6,27.1,14.6z"/>
</g>
</svg>
