<?xml version="1.0" encoding="utf-8"?>
<!-- Generator: Adobe Illustrator 24.0.1, SVG Export Plug-In . SVG Version: 6.00 Build 0)  -->
<svg version="1.1" id="图层_1" xmlns="http://www.w3.org/2000/svg" xmlns:xlink="http://www.w3.org/1999/xlink" x="0px" y="0px"
	 viewBox="0 0 48 56" style="enable-background:new 0 0 48 56;" xml:space="preserve">
<style type="text/css">
	.st0{fill:#8B9ED4;}
</style>
<g>
	<path class="st0" d="M46,9v44H2V9H46 M46,7H2C0.9,7,0,7.9,0,9v44c0,1.1,0.9,2,2,2h44c1.1,0,2-0.9,2-2V9C48,7.9,47.1,7,46,7L46,7z"
		/>
</g>
<g>
	<path class="st0" d="M40,15v32H8V15H40 M40,13H8c-1.1,0-2,0.9-2,2v32c0,1.1,0.9,2,2,2h32c1.1,0,2-0.9,2-2V15C42,13.9,41.1,13,40,13
		L40,13z"/>
</g>
<g>
	<polygon class="st0" points="18.7,35.3 24,35.3 21.3,42 29.3,32.7 24,32.7 26.7,26 	"/>
</g>
<g>
	<path class="st0" d="M11,9c-0.6,0-1-0.4-1-1V1c0-0.6,0.4-1,1-1s1,0.4,1,1v7C12,8.6,11.6,9,11,9z"/>
</g>
<g>
	<path class="st0" d="M24,9c-0.6,0-1-0.4-1-1V1c0-0.6,0.4-1,1-1s1,0.4,1,1v7C25,8.6,24.6,9,24,9z"/>
</g>
<g>
	<path class="st0" d="M37,9c-0.6,0-1-0.4-1-1V1c0-0.6,0.4-1,1-1s1,0.4,1,1v7C38,8.6,37.6,9,37,9z"/>
</g>
<g>
	<g>
		<circle class="st0" cx="24" cy="21.5" r="1.5"/>
	</g>
	<g>
		<circle class="st0" cx="31.5" cy="21.5" r="1.5"/>
	</g>
	<g>
		<circle class="st0" cx="16.5" cy="21.5" r="1.5"/>
	</g>
</g>
</svg>
