<?xml version="1.0" encoding="utf-8"?>
<!-- Generator: Adobe Illustrator 24.0.1, SVG Export Plug-In . SVG Version: 6.00 Build 0)  -->
<svg version="1.1" id="图层_1" xmlns="http://www.w3.org/2000/svg" xmlns:xlink="http://www.w3.org/1999/xlink" x="0px" y="0px"
	 viewBox="0 0 60 60" style="enable-background:new 0 0 60 60;" xml:space="preserve">
<style type="text/css">
	.st0{fill:#8B9ED4;}
</style>
<g id="页面-1_5_">
	<g id="监控管理-设备状态备份_4_" transform="translate(-1030.000000, -446.000000)">
		<g id="采集控制设备_1_">
			<path class="st0" d="M1036.5,496.2c0.4,0.3,0.6,0.8,0.4,1.3l-0.1,0.1l-4,6.5h54.4l-4-6.5c-0.3-0.4-0.2-1,0.2-1.3l0.1-0.1
				c0.4-0.3,1-0.2,1.3,0.2l0.1,0.1l5,8c0.4,0.6,0,1.4-0.7,1.5l-0.1,0h-58c-0.7,0-1.2-0.8-0.9-1.4l0.1-0.1l5-8
				C1035.4,496,1036.1,495.9,1036.5,496.2z M1036.5,485.2c0.4,0.3,0.6,0.8,0.4,1.3l-0.1,0.1l-4,6.5h54.4l-4-6.5
				c-0.3-0.4-0.2-1,0.2-1.3l0.1-0.1c0.4-0.3,1-0.2,1.3,0.2l0.1,0.1l5,8c0.4,0.6,0,1.4-0.7,1.5l-0.1,0h-58c-0.7,0-1.2-0.8-0.9-1.4
				l0.1-0.1l5-8C1035.4,485,1036.1,484.9,1036.5,485.2z M1060,446c3.9,0,7,3.1,7,7c0,3.5-2.6,6.4-6,6.9l0,7.1l7,0
				c1.2-3.4,3.6-5.8,7.1-7.2c0-0.3-0.1-0.6-0.1-0.8c0-3.3,2.7-6,6-6s6,2.7,6,6s-2.7,6-6,6c-2.3,0-4.3-1.3-5.3-3.3
				c-2.6,1-4.4,2.8-5.5,5.3l8.8,0c0.3,0,0.6,0.2,0.8,0.4l0,0l10,15c0.4,0.7,0,1.6-0.8,1.6l0,0h-58c-0.8,0-1.3-0.9-0.8-1.6l0,0l10-15
				c0.2-0.3,0.5-0.4,0.8-0.4l0,0l8.1,0c-1.1-2.5-3-4.3-5.7-5.3c-1,2-3,3.3-5.4,3.3c-3.3,0-6-2.7-6-6s2.7-6,6-6s6,2.7,6,6
				c0,0.3,0,0.5,0,0.8c3.6,1.3,6,3.7,7.2,7.2l7.8,0l0-7.1c-3.4-0.5-6-3.4-6-6.9C1053,449.1,1056.1,446,1060,446z M1049.7,469l-8.2,0
				l-8.7,13h54.3l-8.7-13l-9,0c-0.5,2.2-0.6,4.8-0.3,7.9c0.1,0.5-0.3,1-0.9,1.1c-0.5,0.1-1-0.3-1.1-0.9c-0.3-3.1-0.3-5.8,0.2-8.1
				h-6.4l0,10c0,0.6-0.4,1-1,1c-0.6,0-1-0.4-1-1l0-10h-7.2c0.5,2.3,0.6,5,0.2,8.1c-0.1,0.5-0.6,0.9-1.1,0.9
				c-0.5-0.1-0.9-0.6-0.9-1.1C1050.4,473.8,1050.3,471.2,1049.7,469z M1038,455c-2.2,0-4,1.8-4,4s1.8,4,4,4c2.2,0,4-1.8,4-4
				S1040.2,455,1038,455z M1081,455c-2.2,0-4,1.8-4,4s1.8,4,4,4c2.2,0,4-1.8,4-4S1083.2,455,1081,455z M1060,448c-2.8,0-5,2.2-5,5
				s2.2,5,5,5c2.8,0,5-2.2,5-5S1062.8,448,1060,448z"/>
		</g>
	</g>
</g>
</svg>
