<?xml version="1.0" encoding="utf-8"?>
<!-- Generator: Adobe Illustrator 24.0.1, SVG Export Plug-In . SVG Version: 6.00 Build 0)  -->
<svg version="1.1" id="图层_1" xmlns="http://www.w3.org/2000/svg" xmlns:xlink="http://www.w3.org/1999/xlink" x="0px" y="0px"
	 viewBox="0 0 50 40" style="enable-background:new 0 0 50 40;" xml:space="preserve">
<style type="text/css">
	.st0{fill:#8B9ED4;}
	.st1{fill:none;}
</style>
<g>
	<g>
		<path class="st0" d="M48.3,8.7v29.7H1.7V8.7H48.3 M50,7H0v33h50V7z"/>
	</g>
	<g>
		<path class="st0" d="M16.7,1.6v4.8h-10V1.6L16.7,1.6 M16.7,0h-10C5.7,0,5,0.7,5,1.6v4.8C5,7.2,5.8,8,6.7,8h10
			c0.9,0,1.7-0.7,1.7-1.6V1.6C18.3,0.8,17.6,0,16.7,0z"/>
	</g>
	<g>
		<path class="st0" d="M43.3,1.6v4.8h-10V1.6L43.3,1.6 M43.3,0h-10c-0.9,0-1.7,0.8-1.7,1.6v4.8c0,0.9,0.7,1.6,1.7,1.6h10
			C44.2,8,45,7.3,45,6.4V1.6C45,0.7,44.3,0,43.3,0z"/>
	</g>
	<g>
		<line class="st1" x1="7.5" y1="18.1" x2="15.8" y2="18.1"/>
	</g>
	<g>
		<rect x="7.5" y="17.3" class="st0" width="8.3" height="1.7"/>
	</g>
	<g>
		<line class="st1" x1="11.7" y1="14" x2="11.7" y2="22.3"/>
	</g>
	<g>
		<rect x="10.8" y="14" class="st0" width="1.7" height="8.3"/>
	</g>
	<g>
		<line class="st1" x1="34.2" y1="18.1" x2="42.5" y2="18.1"/>
	</g>
	<g>
		<rect x="34.2" y="17.3" class="st0" width="8.3" height="1.7"/>
	</g>
	<g>
		<g>
			<polygon class="st0" points="27.5,14.9 25.8,20.8 30.5,20.8 23.8,33 23.5,33 25.3,24.9 19.5,24.9 22.3,14.9 			"/>
		</g>
	</g>
</g>
</svg>
