<?xml version="1.0" encoding="utf-8"?>
<!-- Generator: Adobe Illustrator 24.0.1, SVG Export Plug-In . SVG Version: 6.00 Build 0)  -->
<svg version="1.1" id="图层_1" xmlns="http://www.w3.org/2000/svg" xmlns:xlink="http://www.w3.org/1999/xlink" x="0px" y="0px"
	 viewBox="0 0 60 36" style="enable-background:new 0 0 60 36;" xml:space="preserve">
<style type="text/css">
	.st0{fill:#8B9ED4;}
</style>
<g>
	<g>
		<g>
			<path class="st0" d="M58,2v32H2V2H58 M58,0H2C0.9,0,0,0.9,0,2v32c0,1.1,0.9,2,2,2h56c1.1,0,2-0.9,2-2V2C60,0.9,59.1,0,58,0L58,0z
				"/>
		</g>
	</g>
	<g>
		<path class="st0" d="M28.3,25.9c-0.8,0-1.6-0.4-2.3-1.1c-0.1-0.1-0.2-0.3-0.4-0.5l-0.1-0.1c0,0,0-0.1,0-0.1
			c-0.5-0.8-1.5-2.5-2.2-3.2c0,0-0.1-0.1-0.1-0.1c-0.3,0.2-0.7,0.2-1.1,0.2l0,0c-0.4,0-0.7-0.1-1.1-0.2l0,0c-0.7,1.1-2.3,3.1-5,3.6
			c-1,0.3-2.2,0-3-0.9c-0.8-0.9-1.1-2.1-0.7-3.2c0.3-1.1,1.2-1.9,2.2-2.2c0.1,0,0.3-0.1,0.6-0.1c0,0,0.1,0,0.1,0
			c1,0,2.8-0.1,3.8-0.4c0,0,0.1,0,0.1,0c0.1-0.7,0.4-1.3,0.8-1.8c0.1-0.1,0.2-0.2,0.3-0.2c0,0,0,0,0,0c-0.6-1.2-1.4-3.7-0.5-6.4
			c0.3-1.1,1.1-2,2.2-2.3c1.1-0.3,2.2,0.1,3,0.9c0.7,0.9,1,2.1,0.7,3.2c0,0.2-0.1,0.4-0.2,0.6l-0.1,0.1c0,0,0,0.1,0,0.1
			c-0.4,0.8-1.3,2.6-1.5,3.6c0,0,0,0.1-0.1,0.2c0.1,0.1,0.2,0.2,0.3,0.3c0.4,0.5,0.7,1.1,0.8,1.7c0,0,0,0,0,0
			c1.3,0.1,3.7,0.6,5.5,2.8c0.1,0.1,0.3,0.4,0.4,0.6c0,0,0,0,0,0c0.8,1.5,0.4,3.3-0.8,4.3C29.5,25.7,28.9,25.9,28.3,25.9z M27,23.7
			C27.1,23.7,27.1,23.7,27,23.7c0.6,0.7,1.5,0.8,2.2,0.3c0.7-0.5,0.8-1.4,0.5-2.2c0,0,0,0,0,0c-0.1-0.1-0.2-0.2-0.3-0.4
			c-1.2-1.5-2.7-2-3.8-2.2c-0.1,0.4-0.4,0.9-0.6,1.2c0.9,1.2,1.8,2.8,1.9,3c0,0,0,0.1,0,0.1l0,0.1C27,23.6,27,23.6,27,23.7z
			 M26.8,23.5L26.8,23.5L26.8,23.5z M15.1,19.6C15.1,19.6,15.1,19.6,15.1,19.6c-0.6,0.2-1.1,0.6-1.3,1.2c-0.2,0.6,0,1.2,0.4,1.7
			c0.4,0.4,1,0.6,1.6,0.5c1.8-0.4,3-1.5,3.7-2.4c-0.3-0.4-0.5-0.7-0.7-1.2c-1.4,0.2-3.2,0.3-3.4,0.3h-0.1c0,0-0.1,0-0.1,0
			C15.2,19.6,15.2,19.6,15.1,19.6z M15.3,19.5L15.3,19.5L15.3,19.5z M15.3,19.5L15.3,19.5L15.3,19.5z M15.3,19.5L15.3,19.5
			L15.3,19.5z M20.8,18c0,0.4,0.1,0.8,0.4,1c0.3,0.3,0.6,0.4,1,0.4l0,0c0.8,0,1.4-0.7,1.4-1.5c0-0.4-0.1-0.8-0.4-1
			c-0.3-0.3-0.6-0.4-1-0.4l0,0c-0.4,0-0.7,0.2-1,0.4C20.9,17.2,20.8,17.6,20.8,18L20.8,18z M22.9,8.4c-0.1,0-0.3,0-0.4,0
			c-0.6,0.2-1,0.6-1.2,1.2c-0.6,1.8-0.3,3.5,0.1,4.6c0.4-0.1,0.9-0.1,1.3,0c0.5-1.4,1.4-3.1,1.5-3.3c0,0,0-0.1,0-0.1l0-0.1
			c0,0,0-0.1,0.1-0.1c0,0,0-0.1,0-0.1c0.2-0.6,0-1.2-0.4-1.7C23.7,8.6,23.3,8.4,22.9,8.4z M24.4,11L24.4,11L24.4,11z M24.4,11
			L24.4,11L24.4,11z"/>
	</g>
	<g>
		<path class="st0" d="M21.8,5.1c7,0,12.6,5.7,12.6,12.6s-5.7,12.6-12.6,12.6S9.2,24.7,9.2,17.7S14.9,5.1,21.8,5.1 M21.8,4.1
			c-7.5,0-13.6,6.1-13.6,13.6c0,7.5,6.1,13.6,13.6,13.6s13.6-6.1,13.6-13.6C35.5,10.2,29.3,4.1,21.8,4.1L21.8,4.1z"/>
	</g>
	<g>
		<polygon class="st0" points="45,6.8 55.9,6.8 54.5,5.5 46.4,5.5 		"/>
	</g>
	<g>
		<polygon class="st0" points="45,10.9 55.9,10.9 54.5,9.5 46.4,9.5 		"/>
	</g>
	<g>
		<polygon class="st0" points="45,15 55.9,15 54.5,13.6 46.4,13.6 		"/>
	</g>
	<g>
		<rect x="40.9" y="1.4" class="st0" width="1.4" height="32.7"/>
	</g>
</g>
</svg>
