<?xml version="1.0" encoding="utf-8"?>
<!-- Generator: Adobe Illustrator 24.0.1, SVG Export Plug-In . SVG Version: 6.00 Build 0)  -->
<svg version="1.1" id="图层_1" xmlns="http://www.w3.org/2000/svg" xmlns:xlink="http://www.w3.org/1999/xlink" x="0px" y="0px"
	 viewBox="0 0 60 46" style="enable-background:new 0 0 60 46;" xml:space="preserve">
<style type="text/css">
	.st0{fill:#8B9ED4;}
	.st1{fill-rule:evenodd;clip-rule:evenodd;fill:#8B9ED4;}
</style>
<g>
	<g id="矩形_7_">
		<path class="st0" d="M46,1.7l4,2.2v18.3l-4,2.2V1.7 M45,0v26l6-3.3V3.3L45,0L45,0z"/>
	</g>
	<g>
		<path class="st1" d="M21,2L21,2C9.3,2.5,0,12.2,0,24c0,12.2,9.8,22,22,22c12.2,0,22-9.8,22-22h1V2H21z M22,37c-7.2,0-13-5.8-13-13
			c0-7.2,5.8-13,13-13c7.2,0,13,5.8,13,13C35,31.2,29.2,37,22,37z"/>
	</g>
	<g id="风扇K_1_" transform="translate(13.130435, 13.913043)">
		<g id="形状_6_">
			<path class="st0" d="M7.1,10.3c0,0.8,0.7,1.5,1.5,1.5s1.5-0.7,1.5-1.5c0-0.8-0.7-1.5-1.5-1.5S7.1,9.5,7.1,10.3z M5.6,10.9
				c-1.3,0.4-2.7,1.2-3.9,3.1c-2.7,4.2,2.1,6.2,3.8,5.5c3.2-1.2,1.5-4.2,2.3-6.3C6.7,13,5.8,12,5.6,10.9z M6.7,8
				c0.5-0.5,1.2-0.7,2-0.7c0.4,0,0.9,0.1,1.2,0.3c0.4-1.2,0.5-2.9-0.4-5C7.5-2,3.2,0.8,2.8,2.6C1.9,6,5.4,6.2,6.7,8L6.7,8z
				 M18.3,9.3c-2.5-2.4-4.5,0.5-6.6,0.6c0,0.2,0,0.3,0,0.5c0,1-0.5,1.9-1.3,2.5c0.9,1,2.3,1.9,4.5,2.2C19.8,15.7,19.6,10.5,18.3,9.3
				L18.3,9.3z"/>
		</g>
	</g>
	<g id="路径-4复制-22_1_">
		<path class="st0" d="M60,8.4c0-2-1-3.1-2.5-3.1c-0.7,0-0.9,0.2-1.9,1.5c-0.6,0.7-0.9,1-1.2,1c-0.9,0-1.2-0.4-1.2-1.9
			c0-0.3-0.3-0.6-0.6-0.6S52,5.5,52,5.9C52,8,52.8,9,54.5,9c0.8,0,1.3-0.4,2.1-1.5c0.6-0.8,0.9-1,0.9-1c0.8,0,1.2,0.5,1.2,1.9
			C58.8,8.7,59,9,59.4,9S60,8.7,60,8.4z"/>
	</g>
	<g id="路径-4复制-22备份_1_">
		<path class="st0" d="M60,14.6c0-2-1-3.1-2.5-3.1c-0.7,0-0.9,0.2-1.9,1.5c-0.6,0.7-0.9,1-1.2,1c-0.9,0-1.2-0.4-1.2-1.9
			c0-0.3-0.3-0.6-0.6-0.6c-0.3,0-0.6,0.3-0.6,0.6c0,2.1,0.8,3.1,2.5,3.1c0.8,0,1.3-0.4,2.1-1.5c0.6-0.8,0.9-1,0.9-1
			c0.8,0,1.2,0.5,1.2,1.9c0,0.3,0.3,0.6,0.6,0.6S60,15,60,14.6z"/>
	</g>
	<g id="路径-4复制-22备份-2_1_">
		<path class="st0" d="M60,20.9c0-2-1-3.1-2.5-3.1c-0.7,0-0.9,0.2-1.9,1.5c-0.6,0.7-0.9,1-1.2,1c-0.9,0-1.2-0.4-1.2-1.9
			c0-0.3-0.3-0.6-0.6-0.6c-0.3,0-0.6,0.3-0.6,0.6c0,2.1,0.8,3.1,2.5,3.1c0.8,0,1.3-0.4,2.1-1.5c0.6-0.8,0.9-1,0.9-1
			c0.8,0,1.2,0.5,1.2,1.9c0,0.3,0.3,0.6,0.6,0.6S60,21.2,60,20.9z"/>
	</g>
</g>
</svg>
