<?xml version="1.0" encoding="utf-8"?>
<!-- Generator: Adobe Illustrator 24.0.1, SVG Export Plug-In . SVG Version: 6.00 Build 0)  -->
<svg version="1.1" id="图层_1" xmlns="http://www.w3.org/2000/svg" xmlns:xlink="http://www.w3.org/1999/xlink" x="0px" y="0px"
	 viewBox="0 0 30 60" style="enable-background:new 0 0 30 60;" xml:space="preserve">
<style type="text/css">
	.st0{fill:#8B9ED4;}
</style>
<g>
	<g id="形状结合_6_">
		<path class="st0" d="M29.1,0c0.2,0,0.5,0.1,0.7,0.3C29.9,0.4,30,0.7,30,0.9V59c0,0.3-0.1,0.5-0.2,0.7c-0.2,0.2-0.4,0.3-0.7,0.3
			H0.9C0.4,60,0,59.6,0,59.1V0.9C0,0.4,0.4,0,0.9,0H29.1z M28,2H2v56h26V2z M1.5,28h-1v4h1V28z"/>
	</g>
	<g id="路径_19_">
		<path class="st0" d="M25.5,4C25.8,4,26,4.2,26,4.4v51.1c0,0.2-0.2,0.4-0.5,0.4H4.5C4.2,56,4,55.8,4,55.6V4.4
			c0-0.1,0.1-0.2,0.1-0.3C4.2,4,4.3,4,4.5,4H25.5z M25,5H5v50h20V5z"/>
	</g>
	<g>
		<g id="路径_14_">
			<path class="st0" d="M9.5,7.9c0.3,0.2,0.7,0.2,1,0C10.8,7.7,11,7.4,11,7s-0.2-0.7-0.5-0.9s-0.7-0.2-1,0S9,6.6,9,7
				S9.2,7.7,9.5,7.9z"/>
		</g>
		<g id="路径_13_">
			<path class="st0" d="M14.5,7.9c0.3,0.2,0.7,0.2,1,0C15.8,7.7,16,7.4,16,7s-0.2-0.7-0.5-0.9s-0.7-0.2-1,0S14,6.6,14,7
				S14.2,7.7,14.5,7.9z"/>
		</g>
		<g id="路径_12_">
			<path class="st0" d="M19.5,7.9c0.3,0.2,0.7,0.2,1,0C20.8,7.7,21,7.4,21,7s-0.2-0.7-0.5-0.9s-0.7-0.2-1,0S19,6.6,19,7
				S19.2,7.7,19.5,7.9z"/>
		</g>
	</g>
	<g>
		<path class="st0" d="M19.5,17.5h-9v-5h9V17.5z M11.5,16.5h7v-3h-7V16.5z"/>
	</g>
	<g>
		<path class="st0" d="M13,52H8V27h5V52z M9,51h3V28H9V51z"/>
	</g>
	<g>
		<path class="st0" d="M22,52h-5V27h5V52z M18,51h3V28h-3V51z"/>
	</g>
</g>
</svg>
