<?xml version="1.0" encoding="utf-8"?>
<!-- Generator: Adobe Illustrator 24.0.1, SVG Export Plug-In . SVG Version: 6.00 Build 0)  -->
<svg version="1.1" id="图层_1" xmlns="http://www.w3.org/2000/svg" xmlns:xlink="http://www.w3.org/1999/xlink" x="0px" y="0px"
	 viewBox="0 0 36 60" style="enable-background:new 0 0 36 60;" xml:space="preserve">
<style type="text/css">
	.st0{fill:#8B9ED4;}
</style>
<g>
	<g>
		<path class="st0" d="M34,2v56H2V2H34 M34.5,0h-33C0.7,0,0,0.7,0,1.5v57C0,59.3,0.7,60,1.5,60h33c0.8,0,1.5-0.7,1.5-1.5v-57
			C36,0.7,35.3,0,34.5,0L34.5,0z"/>
	</g>
	<g>
		<path class="st0" d="M28.3,36.5h1.3v6.3h-1.3V36.5z M28.3,13h1.2v1.3h-1.2V13z M28.3,10h1.2v1.3h-1.2V10z M11,14.5V9.9H6.4v4.6H11
			z M7.2,10.7h3v2l-1.1,1.1h-2V10.7z M16.5,9.9h-4.6v4.6h4.6V9.9z M12.7,10.7h3v2l-1.1,1.1h-2L12.7,10.7L12.7,10.7z M22,9.9h-4.6
			v4.6H22V9.9z M18.2,10.7h3v2l-1.1,1.1h-2L18.2,10.7L18.2,10.7z M27.5,9.9h-4.6v4.6h4.6V9.9z M23.7,10.7h3v2l-1.1,1.1h-2L23.7,10.7
			L23.7,10.7z M15.2,23.8c0.4,0,0.7-0.3,0.7-0.7c0-0.4-0.3-0.7-0.7-0.7h-1.1v-2.9H7v7.1h7.1v-2.9L15.2,23.8L15.2,23.8z M13.3,25.9
			H7.8v-5.5h5.5v2.1h-0.9c-0.3-0.8-1-1.3-1.9-1.3c-1.1,0-2,0.9-2,2c0,1.1,0.9,2,2,2c0.9,0,1.6-0.6,1.9-1.3h0.9V25.9z M11.2,23.1
			c0,0.4-0.3,0.7-0.7,0.7c-0.4,0-0.7-0.3-0.7-0.7c0-0.4,0.3-0.7,0.7-0.7C10.9,22.4,11.2,22.7,11.2,23.1L11.2,23.1z M18,22.4h1.2v1.3
			H18V22.4z M22.2,22.4h1.2v1.3h-1.2V22.4z M26.4,22.4h1.2v1.3h-1.2V22.4z M15.2,32.7c0.2,0.3,0.5,0.5,0.9,0.5h3.8
			c0.4,0,0.7-0.2,0.9-0.5c0.2-0.3,0.2-0.7,0-1.1L19,28.4c-0.4-0.7-1.5-0.7-1.8,0l-1.9,3.3C15,32,15,32.4,15.2,32.7L15.2,32.7z
			 M19.9,32.7v-0.5h-2.3l1.6-1.2l0.7,1.2V32.7z M18,28.9l1.1,1.9H18l0.5-0.5l-0.4-0.4l-1.2,1.4h1.1l-0.6,0.5l0.3,0.4h-1.4L18,28.9z
			 M15.3,39.3h5.4v-5.4h-5.4V39.3z M16.1,34.7h3.8v3.8h-3.8V34.7z M16.1,34.7"/>
	</g>
	<g>
		<rect x="1.5" y="5.4" class="st0" width="34" height="2"/>
	</g>
	<g>
		<rect x="0.5" y="52.4" class="st0" width="34" height="2"/>
	</g>
</g>
</svg>
