<?xml version="1.0" encoding="utf-8"?>
<!-- Generator: Adobe Illustrator 24.0.1, SVG Export Plug-In . SVG Version: 6.00 Build 0)  -->
<svg version="1.1" id="图层_1" xmlns="http://www.w3.org/2000/svg" xmlns:xlink="http://www.w3.org/1999/xlink" x="0px" y="0px"
	 viewBox="0 0 60 50" style="enable-background:new 0 0 60 50;" xml:space="preserve">
<style type="text/css">
	.st0{fill:#8B9ED4;}
	.st1{fill-rule:evenodd;clip-rule:evenodd;fill:#8B9ED4;}
</style>
<g id="页面-1_6_">
	<g id="监控管理-设备状态备份_5_" transform="translate(-1666.000000, -356.000000)">
		<g id="电量仪_1_" transform="translate(1666.000000, 356.000000)">
			<g id="矩形_6_">
				<path class="st0" d="M58,0c1.1,0,2,0.9,2,2v46c0,1.1-0.9,2-2,2H2c-1.1,0-2-0.9-2-2V2c0-1.1,0.9-2,2-2H58z M58,2H2v46h56V2z"/>
			</g>
			<g id="Fill-3_1_">
				<path class="st0" d="M52,4c2.2,0,4,1.8,4,4.1V34H4V8.1C4,5.8,5.8,4,8,4H52z M52,6H8C7,6,6.1,6.9,6,7.9l0,0.2V32h48V8.1
					c0-1.1-0.8-2-1.8-2.1L52,6z"/>
			</g>
			<g id="Fill-5_1_">
				<polygon class="st1" points="4,41 12,41 12,38 4,38 				"/>
			</g>
			<g id="Fill-7_1_">
				<polygon class="st1" points="48,41 56,41 56,38 48,38 				"/>
			</g>
			<g id="Fill-8_1_">
				<path class="st1" d="M30,38c1.7,0,3,1.3,3,3s-1.3,3-3,3s-3-1.3-3-3S28.3,38,30,38"/>
			</g>
			<g id="Fill-9_1_">
				<path class="st1" d="M30,17l-2,6.7c0,0-3.8,1.8-4,5.3h12c0,0-0.9-4-4.2-5.3L30,17z"/>
			</g>
			<g id="Fill-10_1_">
				<polygon class="st1" points="28.5,13.6 31.5,13.6 31.5,9.4 28.5,9.4 				"/>
			</g>
			<g id="Fill-11_1_">
				<polygon class="st1" points="37,14.1 38.1,10 41,10.8 39.9,14.9 				"/>
			</g>
			<g id="Fill-12_1_">
				<polygon class="st1" points="20,10.9 22.9,10.1 24,14.1 21.1,14.9 				"/>
			</g>
			<g id="Fill-13_1_">
				<polygon class="st1" points="43.6,16.2 45.7,12.6 48.3,14.1 46.2,17.7 				"/>
			</g>
			<g id="Fill-14_1_">
				<polygon class="st1" points="12.7,14.1 15.3,12.6 17.4,16.3 14.8,17.8 				"/>
			</g>
			<g id="Fill-15_1_">
				<path class="st1" d="M40,38c1.7,0,3,1.3,3,3s-1.3,3-3,3s-3-1.3-3-3S38.3,38,40,38"/>
			</g>
			<g id="Fill-16_1_">
				<path class="st1" d="M20,38c1.7,0,3,1.3,3,3s-1.3,3-3,3s-3-1.3-3-3S18.3,38,20,38"/>
			</g>
		</g>
	</g>
</g>
</svg>
